%TF.GenerationSoftware,KiCad,Pcbnew,8.0.4*%
%TF.CreationDate,2024-09-05T09:17:28+05:30*%
%TF.ProjectId,BreadBoard_PowerSupply,42726561-6442-46f6-9172-645f506f7765,1*%
%TF.SameCoordinates,Original*%
%TF.FileFunction,Legend,Bot*%
%TF.FilePolarity,Positive*%
%FSLAX46Y46*%
G04 Gerber Fmt 4.6, Leading zero omitted, Abs format (unit mm)*
G04 Created by KiCad (PCBNEW 8.0.4) date 2024-09-05 09:17:28*
%MOMM*%
%LPD*%
G01*
G04 APERTURE LIST*
%ADD10C,0.100000*%
%ADD11C,0.250000*%
%ADD12C,0.200000*%
%ADD13C,0.010000*%
G04 APERTURE END LIST*
D10*
X160105519Y-84159519D02*
G75*
G02*
X155870481Y-84159519I-2117519J0D01*
G01*
X155870481Y-84159519D02*
G75*
G02*
X160105519Y-84159519I2117519J0D01*
G01*
D11*
X173266190Y-105670952D02*
X173318571Y-105828095D01*
X173318571Y-105828095D02*
X173370952Y-105880476D01*
X173370952Y-105880476D02*
X173475714Y-105932857D01*
X173475714Y-105932857D02*
X173632857Y-105932857D01*
X173632857Y-105932857D02*
X173737619Y-105880476D01*
X173737619Y-105880476D02*
X173790000Y-105828095D01*
X173790000Y-105828095D02*
X173842380Y-105723333D01*
X173842380Y-105723333D02*
X173842380Y-105304285D01*
X173842380Y-105304285D02*
X172742380Y-105304285D01*
X172742380Y-105304285D02*
X172742380Y-105670952D01*
X172742380Y-105670952D02*
X172794761Y-105775714D01*
X172794761Y-105775714D02*
X172847142Y-105828095D01*
X172847142Y-105828095D02*
X172951904Y-105880476D01*
X172951904Y-105880476D02*
X173056666Y-105880476D01*
X173056666Y-105880476D02*
X173161428Y-105828095D01*
X173161428Y-105828095D02*
X173213809Y-105775714D01*
X173213809Y-105775714D02*
X173266190Y-105670952D01*
X173266190Y-105670952D02*
X173266190Y-105304285D01*
X173842380Y-106404285D02*
X173109047Y-106404285D01*
X173318571Y-106404285D02*
X173213809Y-106456666D01*
X173213809Y-106456666D02*
X173161428Y-106509047D01*
X173161428Y-106509047D02*
X173109047Y-106613809D01*
X173109047Y-106613809D02*
X173109047Y-106718571D01*
X173842380Y-107085237D02*
X173109047Y-107085237D01*
X172742380Y-107085237D02*
X172794761Y-107032856D01*
X172794761Y-107032856D02*
X172847142Y-107085237D01*
X172847142Y-107085237D02*
X172794761Y-107137618D01*
X172794761Y-107137618D02*
X172742380Y-107085237D01*
X172742380Y-107085237D02*
X172847142Y-107085237D01*
X173109047Y-107609047D02*
X174051904Y-107609047D01*
X174051904Y-107609047D02*
X174156666Y-107556666D01*
X174156666Y-107556666D02*
X174209047Y-107451904D01*
X174209047Y-107451904D02*
X174209047Y-107399523D01*
X172742380Y-107609047D02*
X172794761Y-107556666D01*
X172794761Y-107556666D02*
X172847142Y-107609047D01*
X172847142Y-107609047D02*
X172794761Y-107661428D01*
X172794761Y-107661428D02*
X172742380Y-107609047D01*
X172742380Y-107609047D02*
X172847142Y-107609047D01*
X173842380Y-108132857D02*
X173109047Y-108132857D01*
X173318571Y-108132857D02*
X173213809Y-108185238D01*
X173213809Y-108185238D02*
X173161428Y-108237619D01*
X173161428Y-108237619D02*
X173109047Y-108342381D01*
X173109047Y-108342381D02*
X173109047Y-108447143D01*
X173842380Y-109285238D02*
X173266190Y-109285238D01*
X173266190Y-109285238D02*
X173161428Y-109232857D01*
X173161428Y-109232857D02*
X173109047Y-109128095D01*
X173109047Y-109128095D02*
X173109047Y-108918571D01*
X173109047Y-108918571D02*
X173161428Y-108813809D01*
X173790000Y-109285238D02*
X173842380Y-109180476D01*
X173842380Y-109180476D02*
X173842380Y-108918571D01*
X173842380Y-108918571D02*
X173790000Y-108813809D01*
X173790000Y-108813809D02*
X173685238Y-108761428D01*
X173685238Y-108761428D02*
X173580476Y-108761428D01*
X173580476Y-108761428D02*
X173475714Y-108813809D01*
X173475714Y-108813809D02*
X173423333Y-108918571D01*
X173423333Y-108918571D02*
X173423333Y-109180476D01*
X173423333Y-109180476D02*
X173370952Y-109285238D01*
X173109047Y-109809047D02*
X174051904Y-109809047D01*
X174051904Y-109809047D02*
X174156666Y-109756666D01*
X174156666Y-109756666D02*
X174209047Y-109651904D01*
X174209047Y-109651904D02*
X174209047Y-109599523D01*
X172742380Y-109809047D02*
X172794761Y-109756666D01*
X172794761Y-109756666D02*
X172847142Y-109809047D01*
X172847142Y-109809047D02*
X172794761Y-109861428D01*
X172794761Y-109861428D02*
X172742380Y-109809047D01*
X172742380Y-109809047D02*
X172847142Y-109809047D01*
X173842380Y-111170952D02*
X172742380Y-111170952D01*
X173842380Y-111799524D02*
X173213809Y-111328095D01*
X172742380Y-111799524D02*
X173370952Y-111170952D01*
X173842380Y-112742381D02*
X173266190Y-112742381D01*
X173266190Y-112742381D02*
X173161428Y-112690000D01*
X173161428Y-112690000D02*
X173109047Y-112585238D01*
X173109047Y-112585238D02*
X173109047Y-112375714D01*
X173109047Y-112375714D02*
X173161428Y-112270952D01*
X173790000Y-112742381D02*
X173842380Y-112637619D01*
X173842380Y-112637619D02*
X173842380Y-112375714D01*
X173842380Y-112375714D02*
X173790000Y-112270952D01*
X173790000Y-112270952D02*
X173685238Y-112218571D01*
X173685238Y-112218571D02*
X173580476Y-112218571D01*
X173580476Y-112218571D02*
X173475714Y-112270952D01*
X173475714Y-112270952D02*
X173423333Y-112375714D01*
X173423333Y-112375714D02*
X173423333Y-112637619D01*
X173423333Y-112637619D02*
X173370952Y-112742381D01*
X173790000Y-113737619D02*
X173842380Y-113632857D01*
X173842380Y-113632857D02*
X173842380Y-113423333D01*
X173842380Y-113423333D02*
X173790000Y-113318571D01*
X173790000Y-113318571D02*
X173737619Y-113266190D01*
X173737619Y-113266190D02*
X173632857Y-113213809D01*
X173632857Y-113213809D02*
X173318571Y-113213809D01*
X173318571Y-113213809D02*
X173213809Y-113266190D01*
X173213809Y-113266190D02*
X173161428Y-113318571D01*
X173161428Y-113318571D02*
X173109047Y-113423333D01*
X173109047Y-113423333D02*
X173109047Y-113632857D01*
X173109047Y-113632857D02*
X173161428Y-113737619D01*
X173842380Y-114209047D02*
X172742380Y-114209047D01*
X173842380Y-114680476D02*
X173266190Y-114680476D01*
X173266190Y-114680476D02*
X173161428Y-114628095D01*
X173161428Y-114628095D02*
X173109047Y-114523333D01*
X173109047Y-114523333D02*
X173109047Y-114366190D01*
X173109047Y-114366190D02*
X173161428Y-114261428D01*
X173161428Y-114261428D02*
X173213809Y-114209047D01*
X173842380Y-115675714D02*
X173266190Y-115675714D01*
X173266190Y-115675714D02*
X173161428Y-115623333D01*
X173161428Y-115623333D02*
X173109047Y-115518571D01*
X173109047Y-115518571D02*
X173109047Y-115309047D01*
X173109047Y-115309047D02*
X173161428Y-115204285D01*
X173790000Y-115675714D02*
X173842380Y-115570952D01*
X173842380Y-115570952D02*
X173842380Y-115309047D01*
X173842380Y-115309047D02*
X173790000Y-115204285D01*
X173790000Y-115204285D02*
X173685238Y-115151904D01*
X173685238Y-115151904D02*
X173580476Y-115151904D01*
X173580476Y-115151904D02*
X173475714Y-115204285D01*
X173475714Y-115204285D02*
X173423333Y-115309047D01*
X173423333Y-115309047D02*
X173423333Y-115570952D01*
X173423333Y-115570952D02*
X173370952Y-115675714D01*
D10*
X171576419Y-106221884D02*
X170576419Y-106221884D01*
X170576419Y-106221884D02*
X170576419Y-106459979D01*
X170576419Y-106459979D02*
X170624038Y-106602836D01*
X170624038Y-106602836D02*
X170719276Y-106698074D01*
X170719276Y-106698074D02*
X170814514Y-106745693D01*
X170814514Y-106745693D02*
X171004990Y-106793312D01*
X171004990Y-106793312D02*
X171147847Y-106793312D01*
X171147847Y-106793312D02*
X171338323Y-106745693D01*
X171338323Y-106745693D02*
X171433561Y-106698074D01*
X171433561Y-106698074D02*
X171528800Y-106602836D01*
X171528800Y-106602836D02*
X171576419Y-106459979D01*
X171576419Y-106459979D02*
X171576419Y-106221884D01*
X171528800Y-107602836D02*
X171576419Y-107507598D01*
X171576419Y-107507598D02*
X171576419Y-107317122D01*
X171576419Y-107317122D02*
X171528800Y-107221884D01*
X171528800Y-107221884D02*
X171433561Y-107174265D01*
X171433561Y-107174265D02*
X171052609Y-107174265D01*
X171052609Y-107174265D02*
X170957371Y-107221884D01*
X170957371Y-107221884D02*
X170909752Y-107317122D01*
X170909752Y-107317122D02*
X170909752Y-107507598D01*
X170909752Y-107507598D02*
X170957371Y-107602836D01*
X170957371Y-107602836D02*
X171052609Y-107650455D01*
X171052609Y-107650455D02*
X171147847Y-107650455D01*
X171147847Y-107650455D02*
X171243085Y-107174265D01*
X171528800Y-108031408D02*
X171576419Y-108126646D01*
X171576419Y-108126646D02*
X171576419Y-108317122D01*
X171576419Y-108317122D02*
X171528800Y-108412360D01*
X171528800Y-108412360D02*
X171433561Y-108459979D01*
X171433561Y-108459979D02*
X171385942Y-108459979D01*
X171385942Y-108459979D02*
X171290704Y-108412360D01*
X171290704Y-108412360D02*
X171243085Y-108317122D01*
X171243085Y-108317122D02*
X171243085Y-108174265D01*
X171243085Y-108174265D02*
X171195466Y-108079027D01*
X171195466Y-108079027D02*
X171100228Y-108031408D01*
X171100228Y-108031408D02*
X171052609Y-108031408D01*
X171052609Y-108031408D02*
X170957371Y-108079027D01*
X170957371Y-108079027D02*
X170909752Y-108174265D01*
X170909752Y-108174265D02*
X170909752Y-108317122D01*
X170909752Y-108317122D02*
X170957371Y-108412360D01*
X171576419Y-108888551D02*
X170909752Y-108888551D01*
X170576419Y-108888551D02*
X170624038Y-108840932D01*
X170624038Y-108840932D02*
X170671657Y-108888551D01*
X170671657Y-108888551D02*
X170624038Y-108936170D01*
X170624038Y-108936170D02*
X170576419Y-108888551D01*
X170576419Y-108888551D02*
X170671657Y-108888551D01*
X170909752Y-109793312D02*
X171719276Y-109793312D01*
X171719276Y-109793312D02*
X171814514Y-109745693D01*
X171814514Y-109745693D02*
X171862133Y-109698074D01*
X171862133Y-109698074D02*
X171909752Y-109602836D01*
X171909752Y-109602836D02*
X171909752Y-109459979D01*
X171909752Y-109459979D02*
X171862133Y-109364741D01*
X171528800Y-109793312D02*
X171576419Y-109698074D01*
X171576419Y-109698074D02*
X171576419Y-109507598D01*
X171576419Y-109507598D02*
X171528800Y-109412360D01*
X171528800Y-109412360D02*
X171481180Y-109364741D01*
X171481180Y-109364741D02*
X171385942Y-109317122D01*
X171385942Y-109317122D02*
X171100228Y-109317122D01*
X171100228Y-109317122D02*
X171004990Y-109364741D01*
X171004990Y-109364741D02*
X170957371Y-109412360D01*
X170957371Y-109412360D02*
X170909752Y-109507598D01*
X170909752Y-109507598D02*
X170909752Y-109698074D01*
X170909752Y-109698074D02*
X170957371Y-109793312D01*
X170909752Y-110269503D02*
X171576419Y-110269503D01*
X171004990Y-110269503D02*
X170957371Y-110317122D01*
X170957371Y-110317122D02*
X170909752Y-110412360D01*
X170909752Y-110412360D02*
X170909752Y-110555217D01*
X170909752Y-110555217D02*
X170957371Y-110650455D01*
X170957371Y-110650455D02*
X171052609Y-110698074D01*
X171052609Y-110698074D02*
X171576419Y-110698074D01*
X171528800Y-111555217D02*
X171576419Y-111459979D01*
X171576419Y-111459979D02*
X171576419Y-111269503D01*
X171576419Y-111269503D02*
X171528800Y-111174265D01*
X171528800Y-111174265D02*
X171433561Y-111126646D01*
X171433561Y-111126646D02*
X171052609Y-111126646D01*
X171052609Y-111126646D02*
X170957371Y-111174265D01*
X170957371Y-111174265D02*
X170909752Y-111269503D01*
X170909752Y-111269503D02*
X170909752Y-111459979D01*
X170909752Y-111459979D02*
X170957371Y-111555217D01*
X170957371Y-111555217D02*
X171052609Y-111602836D01*
X171052609Y-111602836D02*
X171147847Y-111602836D01*
X171147847Y-111602836D02*
X171243085Y-111126646D01*
X171576419Y-112459979D02*
X170576419Y-112459979D01*
X171528800Y-112459979D02*
X171576419Y-112364741D01*
X171576419Y-112364741D02*
X171576419Y-112174265D01*
X171576419Y-112174265D02*
X171528800Y-112079027D01*
X171528800Y-112079027D02*
X171481180Y-112031408D01*
X171481180Y-112031408D02*
X171385942Y-111983789D01*
X171385942Y-111983789D02*
X171100228Y-111983789D01*
X171100228Y-111983789D02*
X171004990Y-112031408D01*
X171004990Y-112031408D02*
X170957371Y-112079027D01*
X170957371Y-112079027D02*
X170909752Y-112174265D01*
X170909752Y-112174265D02*
X170909752Y-112364741D01*
X170909752Y-112364741D02*
X170957371Y-112459979D01*
X171576419Y-113698075D02*
X170576419Y-113698075D01*
X170957371Y-113698075D02*
X170909752Y-113793313D01*
X170909752Y-113793313D02*
X170909752Y-113983789D01*
X170909752Y-113983789D02*
X170957371Y-114079027D01*
X170957371Y-114079027D02*
X171004990Y-114126646D01*
X171004990Y-114126646D02*
X171100228Y-114174265D01*
X171100228Y-114174265D02*
X171385942Y-114174265D01*
X171385942Y-114174265D02*
X171481180Y-114126646D01*
X171481180Y-114126646D02*
X171528800Y-114079027D01*
X171528800Y-114079027D02*
X171576419Y-113983789D01*
X171576419Y-113983789D02*
X171576419Y-113793313D01*
X171576419Y-113793313D02*
X171528800Y-113698075D01*
X170909752Y-114507599D02*
X171576419Y-114745694D01*
X170909752Y-114983789D02*
X171576419Y-114745694D01*
X171576419Y-114745694D02*
X171814514Y-114650456D01*
X171814514Y-114650456D02*
X171862133Y-114602837D01*
X171862133Y-114602837D02*
X171909752Y-114507599D01*
D12*
X161549409Y-80637523D02*
X161597028Y-80780380D01*
X161597028Y-80780380D02*
X161644647Y-80827999D01*
X161644647Y-80827999D02*
X161739885Y-80875618D01*
X161739885Y-80875618D02*
X161882742Y-80875618D01*
X161882742Y-80875618D02*
X161977980Y-80827999D01*
X161977980Y-80827999D02*
X162025600Y-80780380D01*
X162025600Y-80780380D02*
X162073219Y-80685142D01*
X162073219Y-80685142D02*
X162073219Y-80304190D01*
X162073219Y-80304190D02*
X161073219Y-80304190D01*
X161073219Y-80304190D02*
X161073219Y-80637523D01*
X161073219Y-80637523D02*
X161120838Y-80732761D01*
X161120838Y-80732761D02*
X161168457Y-80780380D01*
X161168457Y-80780380D02*
X161263695Y-80827999D01*
X161263695Y-80827999D02*
X161358933Y-80827999D01*
X161358933Y-80827999D02*
X161454171Y-80780380D01*
X161454171Y-80780380D02*
X161501790Y-80732761D01*
X161501790Y-80732761D02*
X161549409Y-80637523D01*
X161549409Y-80637523D02*
X161549409Y-80304190D01*
X162073219Y-81304190D02*
X161406552Y-81304190D01*
X161597028Y-81304190D02*
X161501790Y-81351809D01*
X161501790Y-81351809D02*
X161454171Y-81399428D01*
X161454171Y-81399428D02*
X161406552Y-81494666D01*
X161406552Y-81494666D02*
X161406552Y-81589904D01*
X162025600Y-82304190D02*
X162073219Y-82208952D01*
X162073219Y-82208952D02*
X162073219Y-82018476D01*
X162073219Y-82018476D02*
X162025600Y-81923238D01*
X162025600Y-81923238D02*
X161930361Y-81875619D01*
X161930361Y-81875619D02*
X161549409Y-81875619D01*
X161549409Y-81875619D02*
X161454171Y-81923238D01*
X161454171Y-81923238D02*
X161406552Y-82018476D01*
X161406552Y-82018476D02*
X161406552Y-82208952D01*
X161406552Y-82208952D02*
X161454171Y-82304190D01*
X161454171Y-82304190D02*
X161549409Y-82351809D01*
X161549409Y-82351809D02*
X161644647Y-82351809D01*
X161644647Y-82351809D02*
X161739885Y-81875619D01*
X162073219Y-83208952D02*
X161549409Y-83208952D01*
X161549409Y-83208952D02*
X161454171Y-83161333D01*
X161454171Y-83161333D02*
X161406552Y-83066095D01*
X161406552Y-83066095D02*
X161406552Y-82875619D01*
X161406552Y-82875619D02*
X161454171Y-82780381D01*
X162025600Y-83208952D02*
X162073219Y-83113714D01*
X162073219Y-83113714D02*
X162073219Y-82875619D01*
X162073219Y-82875619D02*
X162025600Y-82780381D01*
X162025600Y-82780381D02*
X161930361Y-82732762D01*
X161930361Y-82732762D02*
X161835123Y-82732762D01*
X161835123Y-82732762D02*
X161739885Y-82780381D01*
X161739885Y-82780381D02*
X161692266Y-82875619D01*
X161692266Y-82875619D02*
X161692266Y-83113714D01*
X161692266Y-83113714D02*
X161644647Y-83208952D01*
X162073219Y-84113714D02*
X161073219Y-84113714D01*
X162025600Y-84113714D02*
X162073219Y-84018476D01*
X162073219Y-84018476D02*
X162073219Y-83828000D01*
X162073219Y-83828000D02*
X162025600Y-83732762D01*
X162025600Y-83732762D02*
X161977980Y-83685143D01*
X161977980Y-83685143D02*
X161882742Y-83637524D01*
X161882742Y-83637524D02*
X161597028Y-83637524D01*
X161597028Y-83637524D02*
X161501790Y-83685143D01*
X161501790Y-83685143D02*
X161454171Y-83732762D01*
X161454171Y-83732762D02*
X161406552Y-83828000D01*
X161406552Y-83828000D02*
X161406552Y-84018476D01*
X161406552Y-84018476D02*
X161454171Y-84113714D01*
X162073219Y-84589905D02*
X161073219Y-84589905D01*
X161454171Y-84589905D02*
X161406552Y-84685143D01*
X161406552Y-84685143D02*
X161406552Y-84875619D01*
X161406552Y-84875619D02*
X161454171Y-84970857D01*
X161454171Y-84970857D02*
X161501790Y-85018476D01*
X161501790Y-85018476D02*
X161597028Y-85066095D01*
X161597028Y-85066095D02*
X161882742Y-85066095D01*
X161882742Y-85066095D02*
X161977980Y-85018476D01*
X161977980Y-85018476D02*
X162025600Y-84970857D01*
X162025600Y-84970857D02*
X162073219Y-84875619D01*
X162073219Y-84875619D02*
X162073219Y-84685143D01*
X162073219Y-84685143D02*
X162025600Y-84589905D01*
X162073219Y-85637524D02*
X162025600Y-85542286D01*
X162025600Y-85542286D02*
X161977980Y-85494667D01*
X161977980Y-85494667D02*
X161882742Y-85447048D01*
X161882742Y-85447048D02*
X161597028Y-85447048D01*
X161597028Y-85447048D02*
X161501790Y-85494667D01*
X161501790Y-85494667D02*
X161454171Y-85542286D01*
X161454171Y-85542286D02*
X161406552Y-85637524D01*
X161406552Y-85637524D02*
X161406552Y-85780381D01*
X161406552Y-85780381D02*
X161454171Y-85875619D01*
X161454171Y-85875619D02*
X161501790Y-85923238D01*
X161501790Y-85923238D02*
X161597028Y-85970857D01*
X161597028Y-85970857D02*
X161882742Y-85970857D01*
X161882742Y-85970857D02*
X161977980Y-85923238D01*
X161977980Y-85923238D02*
X162025600Y-85875619D01*
X162025600Y-85875619D02*
X162073219Y-85780381D01*
X162073219Y-85780381D02*
X162073219Y-85637524D01*
X162073219Y-86828000D02*
X161549409Y-86828000D01*
X161549409Y-86828000D02*
X161454171Y-86780381D01*
X161454171Y-86780381D02*
X161406552Y-86685143D01*
X161406552Y-86685143D02*
X161406552Y-86494667D01*
X161406552Y-86494667D02*
X161454171Y-86399429D01*
X162025600Y-86828000D02*
X162073219Y-86732762D01*
X162073219Y-86732762D02*
X162073219Y-86494667D01*
X162073219Y-86494667D02*
X162025600Y-86399429D01*
X162025600Y-86399429D02*
X161930361Y-86351810D01*
X161930361Y-86351810D02*
X161835123Y-86351810D01*
X161835123Y-86351810D02*
X161739885Y-86399429D01*
X161739885Y-86399429D02*
X161692266Y-86494667D01*
X161692266Y-86494667D02*
X161692266Y-86732762D01*
X161692266Y-86732762D02*
X161644647Y-86828000D01*
X162073219Y-87304191D02*
X161406552Y-87304191D01*
X161597028Y-87304191D02*
X161501790Y-87351810D01*
X161501790Y-87351810D02*
X161454171Y-87399429D01*
X161454171Y-87399429D02*
X161406552Y-87494667D01*
X161406552Y-87494667D02*
X161406552Y-87589905D01*
X162073219Y-88351810D02*
X161073219Y-88351810D01*
X162025600Y-88351810D02*
X162073219Y-88256572D01*
X162073219Y-88256572D02*
X162073219Y-88066096D01*
X162073219Y-88066096D02*
X162025600Y-87970858D01*
X162025600Y-87970858D02*
X161977980Y-87923239D01*
X161977980Y-87923239D02*
X161882742Y-87875620D01*
X161882742Y-87875620D02*
X161597028Y-87875620D01*
X161597028Y-87875620D02*
X161501790Y-87923239D01*
X161501790Y-87923239D02*
X161454171Y-87970858D01*
X161454171Y-87970858D02*
X161406552Y-88066096D01*
X161406552Y-88066096D02*
X161406552Y-88256572D01*
X161406552Y-88256572D02*
X161454171Y-88351810D01*
X163683163Y-82351809D02*
X162683163Y-82351809D01*
X162683163Y-82351809D02*
X162683163Y-82732761D01*
X162683163Y-82732761D02*
X162730782Y-82827999D01*
X162730782Y-82827999D02*
X162778401Y-82875618D01*
X162778401Y-82875618D02*
X162873639Y-82923237D01*
X162873639Y-82923237D02*
X163016496Y-82923237D01*
X163016496Y-82923237D02*
X163111734Y-82875618D01*
X163111734Y-82875618D02*
X163159353Y-82827999D01*
X163159353Y-82827999D02*
X163206972Y-82732761D01*
X163206972Y-82732761D02*
X163206972Y-82351809D01*
X163683163Y-83494666D02*
X163635544Y-83399428D01*
X163635544Y-83399428D02*
X163587924Y-83351809D01*
X163587924Y-83351809D02*
X163492686Y-83304190D01*
X163492686Y-83304190D02*
X163206972Y-83304190D01*
X163206972Y-83304190D02*
X163111734Y-83351809D01*
X163111734Y-83351809D02*
X163064115Y-83399428D01*
X163064115Y-83399428D02*
X163016496Y-83494666D01*
X163016496Y-83494666D02*
X163016496Y-83637523D01*
X163016496Y-83637523D02*
X163064115Y-83732761D01*
X163064115Y-83732761D02*
X163111734Y-83780380D01*
X163111734Y-83780380D02*
X163206972Y-83827999D01*
X163206972Y-83827999D02*
X163492686Y-83827999D01*
X163492686Y-83827999D02*
X163587924Y-83780380D01*
X163587924Y-83780380D02*
X163635544Y-83732761D01*
X163635544Y-83732761D02*
X163683163Y-83637523D01*
X163683163Y-83637523D02*
X163683163Y-83494666D01*
X163016496Y-84161333D02*
X163683163Y-84351809D01*
X163683163Y-84351809D02*
X163206972Y-84542285D01*
X163206972Y-84542285D02*
X163683163Y-84732761D01*
X163683163Y-84732761D02*
X163016496Y-84923237D01*
X163635544Y-85685142D02*
X163683163Y-85589904D01*
X163683163Y-85589904D02*
X163683163Y-85399428D01*
X163683163Y-85399428D02*
X163635544Y-85304190D01*
X163635544Y-85304190D02*
X163540305Y-85256571D01*
X163540305Y-85256571D02*
X163159353Y-85256571D01*
X163159353Y-85256571D02*
X163064115Y-85304190D01*
X163064115Y-85304190D02*
X163016496Y-85399428D01*
X163016496Y-85399428D02*
X163016496Y-85589904D01*
X163016496Y-85589904D02*
X163064115Y-85685142D01*
X163064115Y-85685142D02*
X163159353Y-85732761D01*
X163159353Y-85732761D02*
X163254591Y-85732761D01*
X163254591Y-85732761D02*
X163349829Y-85256571D01*
X163683163Y-86161333D02*
X163016496Y-86161333D01*
X163206972Y-86161333D02*
X163111734Y-86208952D01*
X163111734Y-86208952D02*
X163064115Y-86256571D01*
X163064115Y-86256571D02*
X163016496Y-86351809D01*
X163016496Y-86351809D02*
X163016496Y-86447047D01*
X165245488Y-82042285D02*
X165293107Y-82185142D01*
X165293107Y-82185142D02*
X165293107Y-82423237D01*
X165293107Y-82423237D02*
X165245488Y-82518475D01*
X165245488Y-82518475D02*
X165197868Y-82566094D01*
X165197868Y-82566094D02*
X165102630Y-82613713D01*
X165102630Y-82613713D02*
X165007392Y-82613713D01*
X165007392Y-82613713D02*
X164912154Y-82566094D01*
X164912154Y-82566094D02*
X164864535Y-82518475D01*
X164864535Y-82518475D02*
X164816916Y-82423237D01*
X164816916Y-82423237D02*
X164769297Y-82232761D01*
X164769297Y-82232761D02*
X164721678Y-82137523D01*
X164721678Y-82137523D02*
X164674059Y-82089904D01*
X164674059Y-82089904D02*
X164578821Y-82042285D01*
X164578821Y-82042285D02*
X164483583Y-82042285D01*
X164483583Y-82042285D02*
X164388345Y-82089904D01*
X164388345Y-82089904D02*
X164340726Y-82137523D01*
X164340726Y-82137523D02*
X164293107Y-82232761D01*
X164293107Y-82232761D02*
X164293107Y-82470856D01*
X164293107Y-82470856D02*
X164340726Y-82613713D01*
X164626440Y-83470856D02*
X165293107Y-83470856D01*
X164626440Y-83042285D02*
X165150249Y-83042285D01*
X165150249Y-83042285D02*
X165245488Y-83089904D01*
X165245488Y-83089904D02*
X165293107Y-83185142D01*
X165293107Y-83185142D02*
X165293107Y-83327999D01*
X165293107Y-83327999D02*
X165245488Y-83423237D01*
X165245488Y-83423237D02*
X165197868Y-83470856D01*
X164626440Y-83947047D02*
X165626440Y-83947047D01*
X164674059Y-83947047D02*
X164626440Y-84042285D01*
X164626440Y-84042285D02*
X164626440Y-84232761D01*
X164626440Y-84232761D02*
X164674059Y-84327999D01*
X164674059Y-84327999D02*
X164721678Y-84375618D01*
X164721678Y-84375618D02*
X164816916Y-84423237D01*
X164816916Y-84423237D02*
X165102630Y-84423237D01*
X165102630Y-84423237D02*
X165197868Y-84375618D01*
X165197868Y-84375618D02*
X165245488Y-84327999D01*
X165245488Y-84327999D02*
X165293107Y-84232761D01*
X165293107Y-84232761D02*
X165293107Y-84042285D01*
X165293107Y-84042285D02*
X165245488Y-83947047D01*
X164626440Y-84851809D02*
X165626440Y-84851809D01*
X164674059Y-84851809D02*
X164626440Y-84947047D01*
X164626440Y-84947047D02*
X164626440Y-85137523D01*
X164626440Y-85137523D02*
X164674059Y-85232761D01*
X164674059Y-85232761D02*
X164721678Y-85280380D01*
X164721678Y-85280380D02*
X164816916Y-85327999D01*
X164816916Y-85327999D02*
X165102630Y-85327999D01*
X165102630Y-85327999D02*
X165197868Y-85280380D01*
X165197868Y-85280380D02*
X165245488Y-85232761D01*
X165245488Y-85232761D02*
X165293107Y-85137523D01*
X165293107Y-85137523D02*
X165293107Y-84947047D01*
X165293107Y-84947047D02*
X165245488Y-84851809D01*
X165293107Y-85899428D02*
X165245488Y-85804190D01*
X165245488Y-85804190D02*
X165150249Y-85756571D01*
X165150249Y-85756571D02*
X164293107Y-85756571D01*
X164626440Y-86185143D02*
X165293107Y-86423238D01*
X164626440Y-86661333D02*
X165293107Y-86423238D01*
X165293107Y-86423238D02*
X165531202Y-86328000D01*
X165531202Y-86328000D02*
X165578821Y-86280381D01*
X165578821Y-86280381D02*
X165626440Y-86185143D01*
X157489940Y-82776816D02*
X158489940Y-83110149D01*
X158489940Y-83110149D02*
X157489940Y-83443482D01*
X158489940Y-84300625D02*
X158489940Y-83729197D01*
X158489940Y-84014911D02*
X157489940Y-84014911D01*
X157489940Y-84014911D02*
X157632797Y-83919673D01*
X157632797Y-83919673D02*
X157728035Y-83824435D01*
X157728035Y-83824435D02*
X157775654Y-83729197D01*
X158394701Y-84729197D02*
X158442321Y-84776816D01*
X158442321Y-84776816D02*
X158489940Y-84729197D01*
X158489940Y-84729197D02*
X158442321Y-84681578D01*
X158442321Y-84681578D02*
X158394701Y-84729197D01*
X158394701Y-84729197D02*
X158489940Y-84729197D01*
X157489940Y-85395863D02*
X157489940Y-85491101D01*
X157489940Y-85491101D02*
X157537559Y-85586339D01*
X157537559Y-85586339D02*
X157585178Y-85633958D01*
X157585178Y-85633958D02*
X157680416Y-85681577D01*
X157680416Y-85681577D02*
X157870892Y-85729196D01*
X157870892Y-85729196D02*
X158108987Y-85729196D01*
X158108987Y-85729196D02*
X158299463Y-85681577D01*
X158299463Y-85681577D02*
X158394701Y-85633958D01*
X158394701Y-85633958D02*
X158442321Y-85586339D01*
X158442321Y-85586339D02*
X158489940Y-85491101D01*
X158489940Y-85491101D02*
X158489940Y-85395863D01*
X158489940Y-85395863D02*
X158442321Y-85300625D01*
X158442321Y-85300625D02*
X158394701Y-85253006D01*
X158394701Y-85253006D02*
X158299463Y-85205387D01*
X158299463Y-85205387D02*
X158108987Y-85157768D01*
X158108987Y-85157768D02*
X157870892Y-85157768D01*
X157870892Y-85157768D02*
X157680416Y-85205387D01*
X157680416Y-85205387D02*
X157585178Y-85253006D01*
X157585178Y-85253006D02*
X157537559Y-85300625D01*
X157537559Y-85300625D02*
X157489940Y-85395863D01*
D13*
%TO.C,REF\u002A\u002A*%
X160461264Y-109020873D02*
X160478739Y-109052233D01*
X160479575Y-109088034D01*
X160459082Y-109119472D01*
X160454416Y-109123348D01*
X160444949Y-109128814D01*
X160431267Y-109133021D01*
X160410748Y-109136133D01*
X160380768Y-109138313D01*
X160338704Y-109139724D01*
X160281932Y-109140529D01*
X160207830Y-109140893D01*
X160113773Y-109140978D01*
X159792227Y-109140978D01*
X159770647Y-109114327D01*
X159755877Y-109090614D01*
X159749067Y-109067600D01*
X159754949Y-109046594D01*
X159770647Y-109020873D01*
X159792227Y-108994222D01*
X160439684Y-108994222D01*
X160461264Y-109020873D01*
G36*
X160461264Y-109020873D02*
G01*
X160478739Y-109052233D01*
X160479575Y-109088034D01*
X160459082Y-109119472D01*
X160454416Y-109123348D01*
X160444949Y-109128814D01*
X160431267Y-109133021D01*
X160410748Y-109136133D01*
X160380768Y-109138313D01*
X160338704Y-109139724D01*
X160281932Y-109140529D01*
X160207830Y-109140893D01*
X160113773Y-109140978D01*
X159792227Y-109140978D01*
X159770647Y-109114327D01*
X159755877Y-109090614D01*
X159749067Y-109067600D01*
X159754949Y-109046594D01*
X159770647Y-109020873D01*
X159792227Y-108994222D01*
X160439684Y-108994222D01*
X160461264Y-109020873D01*
G37*
X160201567Y-101854041D02*
X160275789Y-101854299D01*
X160332541Y-101854970D01*
X160374512Y-101856248D01*
X160404389Y-101858327D01*
X160424861Y-101861401D01*
X160438614Y-101865666D01*
X160448337Y-101871316D01*
X160456717Y-101878545D01*
X160478181Y-101910009D01*
X160479947Y-101945174D01*
X160460267Y-101978178D01*
X160454398Y-101983484D01*
X160445314Y-101988934D01*
X160431973Y-101993100D01*
X160411757Y-101996154D01*
X160382049Y-101998268D01*
X160340232Y-101999614D01*
X160283689Y-102000362D01*
X160209802Y-102000686D01*
X160115956Y-102000755D01*
X160040294Y-102000716D01*
X159962385Y-102000461D01*
X159902375Y-101999817D01*
X159857648Y-101998613D01*
X159825585Y-101996676D01*
X159803571Y-101993836D01*
X159788987Y-101989921D01*
X159779218Y-101984758D01*
X159771645Y-101978178D01*
X159752623Y-101948994D01*
X159753463Y-101915863D01*
X159776776Y-101881709D01*
X159804485Y-101854000D01*
X160117537Y-101854000D01*
X160201567Y-101854041D01*
G36*
X160201567Y-101854041D02*
G01*
X160275789Y-101854299D01*
X160332541Y-101854970D01*
X160374512Y-101856248D01*
X160404389Y-101858327D01*
X160424861Y-101861401D01*
X160438614Y-101865666D01*
X160448337Y-101871316D01*
X160456717Y-101878545D01*
X160478181Y-101910009D01*
X160479947Y-101945174D01*
X160460267Y-101978178D01*
X160454398Y-101983484D01*
X160445314Y-101988934D01*
X160431973Y-101993100D01*
X160411757Y-101996154D01*
X160382049Y-101998268D01*
X160340232Y-101999614D01*
X160283689Y-102000362D01*
X160209802Y-102000686D01*
X160115956Y-102000755D01*
X160040294Y-102000716D01*
X159962385Y-102000461D01*
X159902375Y-101999817D01*
X159857648Y-101998613D01*
X159825585Y-101996676D01*
X159803571Y-101993836D01*
X159788987Y-101989921D01*
X159779218Y-101984758D01*
X159771645Y-101978178D01*
X159752623Y-101948994D01*
X159753463Y-101915863D01*
X159776776Y-101881709D01*
X159804485Y-101854000D01*
X160117537Y-101854000D01*
X160201567Y-101854041D01*
G37*
X155014307Y-102097331D02*
X155055450Y-102099540D01*
X155087582Y-102105106D01*
X155118122Y-102115414D01*
X155154489Y-102131852D01*
X155181728Y-102145800D01*
X155267429Y-102204335D01*
X155336617Y-102276381D01*
X155387741Y-102360053D01*
X155419250Y-102453469D01*
X155426225Y-102486566D01*
X155433094Y-102527040D01*
X155434919Y-102560001D01*
X155431947Y-102594302D01*
X155424426Y-102638800D01*
X155412002Y-102690066D01*
X155374112Y-102780566D01*
X155319836Y-102859655D01*
X155251770Y-102925472D01*
X155172511Y-102976160D01*
X155084654Y-103009860D01*
X154990795Y-103024714D01*
X154893530Y-103018864D01*
X154797220Y-102992601D01*
X154708494Y-102947582D01*
X154633419Y-102886627D01*
X154573641Y-102811816D01*
X154530809Y-102725232D01*
X154506571Y-102628957D01*
X154502576Y-102525072D01*
X154512850Y-102447438D01*
X154540053Y-102364687D01*
X154585484Y-102289594D01*
X154651302Y-102217702D01*
X154695567Y-102179154D01*
X154753961Y-102139744D01*
X154814586Y-102114554D01*
X154883865Y-102101139D01*
X154968222Y-102097052D01*
X155014307Y-102097331D01*
G36*
X155014307Y-102097331D02*
G01*
X155055450Y-102099540D01*
X155087582Y-102105106D01*
X155118122Y-102115414D01*
X155154489Y-102131852D01*
X155181728Y-102145800D01*
X155267429Y-102204335D01*
X155336617Y-102276381D01*
X155387741Y-102360053D01*
X155419250Y-102453469D01*
X155426225Y-102486566D01*
X155433094Y-102527040D01*
X155434919Y-102560001D01*
X155431947Y-102594302D01*
X155424426Y-102638800D01*
X155412002Y-102690066D01*
X155374112Y-102780566D01*
X155319836Y-102859655D01*
X155251770Y-102925472D01*
X155172511Y-102976160D01*
X155084654Y-103009860D01*
X154990795Y-103024714D01*
X154893530Y-103018864D01*
X154797220Y-102992601D01*
X154708494Y-102947582D01*
X154633419Y-102886627D01*
X154573641Y-102811816D01*
X154530809Y-102725232D01*
X154506571Y-102628957D01*
X154502576Y-102525072D01*
X154512850Y-102447438D01*
X154540053Y-102364687D01*
X154585484Y-102289594D01*
X154651302Y-102217702D01*
X154695567Y-102179154D01*
X154753961Y-102139744D01*
X154814586Y-102114554D01*
X154883865Y-102101139D01*
X154968222Y-102097052D01*
X155014307Y-102097331D01*
G37*
X159875178Y-109391083D02*
X159876631Y-109392443D01*
X159884992Y-109403646D01*
X159890547Y-109420748D01*
X159893840Y-109447918D01*
X159895418Y-109489322D01*
X159895822Y-109549127D01*
X159895822Y-109688489D01*
X160159589Y-109688489D01*
X160235417Y-109688564D01*
X160302083Y-109688972D01*
X160351867Y-109689954D01*
X160387784Y-109691750D01*
X160412850Y-109694601D01*
X160430081Y-109698747D01*
X160442492Y-109704429D01*
X160453100Y-109711886D01*
X160455906Y-109714176D01*
X160478548Y-109745354D01*
X160480112Y-109779734D01*
X160460267Y-109812666D01*
X160452191Y-109819645D01*
X160441593Y-109825117D01*
X160425749Y-109829137D01*
X160401773Y-109831928D01*
X160366774Y-109833712D01*
X160317864Y-109834711D01*
X160252154Y-109835148D01*
X160166756Y-109835244D01*
X159895822Y-109835244D01*
X159895822Y-109981180D01*
X159895821Y-109992280D01*
X159895596Y-110048798D01*
X159894457Y-110087642D01*
X159891657Y-110113035D01*
X159886450Y-110129196D01*
X159878089Y-110140348D01*
X159865826Y-110150711D01*
X159835138Y-110166559D01*
X159801358Y-110163457D01*
X159768822Y-110137813D01*
X159765105Y-110132871D01*
X159760269Y-110122662D01*
X159756506Y-110107236D01*
X159753683Y-110084114D01*
X159751670Y-110050817D01*
X159750333Y-110004863D01*
X159749542Y-109943772D01*
X159749163Y-109865065D01*
X159749067Y-109766260D01*
X159749068Y-109746233D01*
X159749158Y-109652110D01*
X159749498Y-109577595D01*
X159750239Y-109520189D01*
X159751535Y-109477389D01*
X159753537Y-109446696D01*
X159756396Y-109425609D01*
X159760266Y-109411627D01*
X159765298Y-109402250D01*
X159771645Y-109394978D01*
X159804362Y-109376172D01*
X159841939Y-109374725D01*
X159875178Y-109391083D01*
G36*
X159875178Y-109391083D02*
G01*
X159876631Y-109392443D01*
X159884992Y-109403646D01*
X159890547Y-109420748D01*
X159893840Y-109447918D01*
X159895418Y-109489322D01*
X159895822Y-109549127D01*
X159895822Y-109688489D01*
X160159589Y-109688489D01*
X160235417Y-109688564D01*
X160302083Y-109688972D01*
X160351867Y-109689954D01*
X160387784Y-109691750D01*
X160412850Y-109694601D01*
X160430081Y-109698747D01*
X160442492Y-109704429D01*
X160453100Y-109711886D01*
X160455906Y-109714176D01*
X160478548Y-109745354D01*
X160480112Y-109779734D01*
X160460267Y-109812666D01*
X160452191Y-109819645D01*
X160441593Y-109825117D01*
X160425749Y-109829137D01*
X160401773Y-109831928D01*
X160366774Y-109833712D01*
X160317864Y-109834711D01*
X160252154Y-109835148D01*
X160166756Y-109835244D01*
X159895822Y-109835244D01*
X159895822Y-109981180D01*
X159895821Y-109992280D01*
X159895596Y-110048798D01*
X159894457Y-110087642D01*
X159891657Y-110113035D01*
X159886450Y-110129196D01*
X159878089Y-110140348D01*
X159865826Y-110150711D01*
X159835138Y-110166559D01*
X159801358Y-110163457D01*
X159768822Y-110137813D01*
X159765105Y-110132871D01*
X159760269Y-110122662D01*
X159756506Y-110107236D01*
X159753683Y-110084114D01*
X159751670Y-110050817D01*
X159750333Y-110004863D01*
X159749542Y-109943772D01*
X159749163Y-109865065D01*
X159749067Y-109766260D01*
X159749068Y-109746233D01*
X159749158Y-109652110D01*
X159749498Y-109577595D01*
X159750239Y-109520189D01*
X159751535Y-109477389D01*
X159753537Y-109446696D01*
X159756396Y-109425609D01*
X159760266Y-109411627D01*
X159765298Y-109402250D01*
X159771645Y-109394978D01*
X159804362Y-109376172D01*
X159841939Y-109374725D01*
X159875178Y-109391083D01*
G37*
X160157631Y-110398891D02*
X160274000Y-110399375D01*
X160288175Y-110399443D01*
X160349937Y-110400029D01*
X160393620Y-110401352D01*
X160423001Y-110403897D01*
X160441855Y-110408152D01*
X160453959Y-110414604D01*
X160463089Y-110423738D01*
X160480506Y-110457196D01*
X160477604Y-110492144D01*
X160453100Y-110523047D01*
X160439897Y-110532056D01*
X160421361Y-110539508D01*
X160395333Y-110543876D01*
X160356787Y-110545931D01*
X160300700Y-110546444D01*
X160178045Y-110546444D01*
X160178045Y-111043155D01*
X160312871Y-111043155D01*
X160348662Y-111043228D01*
X160394992Y-111043991D01*
X160425526Y-111046167D01*
X160444557Y-111050464D01*
X160456374Y-111057588D01*
X160465271Y-111068245D01*
X160480341Y-111100496D01*
X160477673Y-111135783D01*
X160453100Y-111166514D01*
X160446845Y-111171169D01*
X160436321Y-111177105D01*
X160422391Y-111181636D01*
X160402317Y-111184952D01*
X160373360Y-111187241D01*
X160332780Y-111188692D01*
X160277840Y-111189495D01*
X160205799Y-111189838D01*
X160113920Y-111189911D01*
X159804485Y-111189911D01*
X159776776Y-111162202D01*
X159754533Y-111130823D01*
X159751844Y-111097594D01*
X159771645Y-111065733D01*
X159781415Y-111057447D01*
X159797307Y-111050035D01*
X159821275Y-111045698D01*
X159858148Y-111043662D01*
X159912756Y-111043155D01*
X160031289Y-111043155D01*
X160031289Y-110546444D01*
X159915776Y-110546444D01*
X159864078Y-110546006D01*
X159829554Y-110544042D01*
X159806978Y-110539526D01*
X159791126Y-110531433D01*
X159776776Y-110518735D01*
X159754533Y-110487357D01*
X159751844Y-110454128D01*
X159771645Y-110422266D01*
X159777835Y-110416634D01*
X159786041Y-110411544D01*
X159797817Y-110407457D01*
X159815276Y-110404279D01*
X159840530Y-110401913D01*
X159875690Y-110400262D01*
X159922869Y-110399231D01*
X159984177Y-110398723D01*
X160061727Y-110398641D01*
X160157631Y-110398891D01*
G36*
X160157631Y-110398891D02*
G01*
X160274000Y-110399375D01*
X160288175Y-110399443D01*
X160349937Y-110400029D01*
X160393620Y-110401352D01*
X160423001Y-110403897D01*
X160441855Y-110408152D01*
X160453959Y-110414604D01*
X160463089Y-110423738D01*
X160480506Y-110457196D01*
X160477604Y-110492144D01*
X160453100Y-110523047D01*
X160439897Y-110532056D01*
X160421361Y-110539508D01*
X160395333Y-110543876D01*
X160356787Y-110545931D01*
X160300700Y-110546444D01*
X160178045Y-110546444D01*
X160178045Y-111043155D01*
X160312871Y-111043155D01*
X160348662Y-111043228D01*
X160394992Y-111043991D01*
X160425526Y-111046167D01*
X160444557Y-111050464D01*
X160456374Y-111057588D01*
X160465271Y-111068245D01*
X160480341Y-111100496D01*
X160477673Y-111135783D01*
X160453100Y-111166514D01*
X160446845Y-111171169D01*
X160436321Y-111177105D01*
X160422391Y-111181636D01*
X160402317Y-111184952D01*
X160373360Y-111187241D01*
X160332780Y-111188692D01*
X160277840Y-111189495D01*
X160205799Y-111189838D01*
X160113920Y-111189911D01*
X159804485Y-111189911D01*
X159776776Y-111162202D01*
X159754533Y-111130823D01*
X159751844Y-111097594D01*
X159771645Y-111065733D01*
X159781415Y-111057447D01*
X159797307Y-111050035D01*
X159821275Y-111045698D01*
X159858148Y-111043662D01*
X159912756Y-111043155D01*
X160031289Y-111043155D01*
X160031289Y-110546444D01*
X159915776Y-110546444D01*
X159864078Y-110546006D01*
X159829554Y-110544042D01*
X159806978Y-110539526D01*
X159791126Y-110531433D01*
X159776776Y-110518735D01*
X159754533Y-110487357D01*
X159751844Y-110454128D01*
X159771645Y-110422266D01*
X159777835Y-110416634D01*
X159786041Y-110411544D01*
X159797817Y-110407457D01*
X159815276Y-110404279D01*
X159840530Y-110401913D01*
X159875690Y-110400262D01*
X159922869Y-110399231D01*
X159984177Y-110398723D01*
X160061727Y-110398641D01*
X160157631Y-110398891D01*
G37*
X160175526Y-105714825D02*
X160254311Y-105715050D01*
X160315021Y-105715668D01*
X160336089Y-105716225D01*
X160360396Y-105716867D01*
X160393175Y-105718837D01*
X160416095Y-105721765D01*
X160431897Y-105725842D01*
X160443319Y-105731257D01*
X160453100Y-105738197D01*
X160482845Y-105761594D01*
X160482251Y-105927286D01*
X160481953Y-105962082D01*
X160478522Y-106060565D01*
X160470839Y-106141527D01*
X160458282Y-106208621D01*
X160440227Y-106265504D01*
X160416052Y-106315831D01*
X160414135Y-106319190D01*
X160377417Y-106377002D01*
X160340451Y-106419356D01*
X160296966Y-106452172D01*
X160240689Y-106481372D01*
X160231073Y-106485654D01*
X160167887Y-106508231D01*
X160112509Y-106515203D01*
X160057483Y-106506601D01*
X159995351Y-106482459D01*
X159993658Y-106481663D01*
X159924236Y-106441212D01*
X159867638Y-106390527D01*
X159823070Y-106327802D01*
X159789741Y-106251226D01*
X159766861Y-106158991D01*
X159753636Y-106049288D01*
X159749275Y-105920309D01*
X159749270Y-105916737D01*
X159749372Y-105872844D01*
X159895822Y-105872844D01*
X159896270Y-105960333D01*
X159898746Y-106027253D01*
X159909998Y-106119651D01*
X159929537Y-106198966D01*
X159956511Y-106260940D01*
X159977240Y-106291880D01*
X160007006Y-106320000D01*
X160049434Y-106343340D01*
X160065400Y-106350467D01*
X160097902Y-106362291D01*
X160122333Y-106364721D01*
X160147061Y-106359108D01*
X160162939Y-106353382D01*
X160222847Y-106320452D01*
X160268600Y-106273114D01*
X160301736Y-106209348D01*
X160323790Y-106127139D01*
X160324292Y-106124345D01*
X160330255Y-106078060D01*
X160334483Y-106021664D01*
X160336089Y-105966726D01*
X160336089Y-105872844D01*
X159895822Y-105872844D01*
X159749372Y-105872844D01*
X159749410Y-105856717D01*
X159750446Y-105814786D01*
X159753040Y-105786672D01*
X159757853Y-105768103D01*
X159765544Y-105754806D01*
X159776776Y-105742509D01*
X159804485Y-105714800D01*
X160113920Y-105714800D01*
X160175526Y-105714825D01*
G36*
X160175526Y-105714825D02*
G01*
X160254311Y-105715050D01*
X160315021Y-105715668D01*
X160336089Y-105716225D01*
X160360396Y-105716867D01*
X160393175Y-105718837D01*
X160416095Y-105721765D01*
X160431897Y-105725842D01*
X160443319Y-105731257D01*
X160453100Y-105738197D01*
X160482845Y-105761594D01*
X160482251Y-105927286D01*
X160481953Y-105962082D01*
X160478522Y-106060565D01*
X160470839Y-106141527D01*
X160458282Y-106208621D01*
X160440227Y-106265504D01*
X160416052Y-106315831D01*
X160414135Y-106319190D01*
X160377417Y-106377002D01*
X160340451Y-106419356D01*
X160296966Y-106452172D01*
X160240689Y-106481372D01*
X160231073Y-106485654D01*
X160167887Y-106508231D01*
X160112509Y-106515203D01*
X160057483Y-106506601D01*
X159995351Y-106482459D01*
X159993658Y-106481663D01*
X159924236Y-106441212D01*
X159867638Y-106390527D01*
X159823070Y-106327802D01*
X159789741Y-106251226D01*
X159766861Y-106158991D01*
X159753636Y-106049288D01*
X159749275Y-105920309D01*
X159749270Y-105916737D01*
X159749372Y-105872844D01*
X159895822Y-105872844D01*
X159896270Y-105960333D01*
X159898746Y-106027253D01*
X159909998Y-106119651D01*
X159929537Y-106198966D01*
X159956511Y-106260940D01*
X159977240Y-106291880D01*
X160007006Y-106320000D01*
X160049434Y-106343340D01*
X160065400Y-106350467D01*
X160097902Y-106362291D01*
X160122333Y-106364721D01*
X160147061Y-106359108D01*
X160162939Y-106353382D01*
X160222847Y-106320452D01*
X160268600Y-106273114D01*
X160301736Y-106209348D01*
X160323790Y-106127139D01*
X160324292Y-106124345D01*
X160330255Y-106078060D01*
X160334483Y-106021664D01*
X160336089Y-105966726D01*
X160336089Y-105872844D01*
X159895822Y-105872844D01*
X159749372Y-105872844D01*
X159749410Y-105856717D01*
X159750446Y-105814786D01*
X159753040Y-105786672D01*
X159757853Y-105768103D01*
X159765544Y-105754806D01*
X159776776Y-105742509D01*
X159804485Y-105714800D01*
X160113920Y-105714800D01*
X160175526Y-105714825D01*
G37*
X160115956Y-98625378D02*
X160191617Y-98625417D01*
X160269526Y-98625672D01*
X160329536Y-98626316D01*
X160374264Y-98627520D01*
X160406326Y-98629457D01*
X160428340Y-98632297D01*
X160442924Y-98636212D01*
X160452694Y-98641374D01*
X160460267Y-98647955D01*
X160466501Y-98654923D01*
X160473801Y-98667921D01*
X160478554Y-98687069D01*
X160481292Y-98716472D01*
X160482545Y-98760238D01*
X160482845Y-98822472D01*
X160482469Y-98871418D01*
X160478041Y-98978278D01*
X160467953Y-99067506D01*
X160451365Y-99142304D01*
X160427435Y-99205875D01*
X160395321Y-99261421D01*
X160354182Y-99312146D01*
X160348330Y-99318134D01*
X160299821Y-99355001D01*
X160239013Y-99386101D01*
X160174769Y-99407583D01*
X160115956Y-99415600D01*
X160094739Y-99414321D01*
X160037323Y-99402009D01*
X159977413Y-99379480D01*
X159923363Y-99350250D01*
X159883532Y-99317833D01*
X159866510Y-99298292D01*
X159827322Y-99243580D01*
X159797193Y-99183277D01*
X159775232Y-99114081D01*
X159760550Y-99032689D01*
X159752259Y-98935800D01*
X159750148Y-98848333D01*
X159895808Y-98848333D01*
X159895817Y-98851361D01*
X159897782Y-98902481D01*
X159902507Y-98962584D01*
X159909035Y-99019292D01*
X159918331Y-99069250D01*
X159944600Y-99144002D01*
X159983899Y-99201511D01*
X160036933Y-99243012D01*
X160088200Y-99264229D01*
X160136026Y-99265647D01*
X160186961Y-99247365D01*
X160232878Y-99217695D01*
X160275287Y-99170998D01*
X160305090Y-99109608D01*
X160324226Y-99030462D01*
X160324464Y-99028972D01*
X160330256Y-98980001D01*
X160334396Y-98921307D01*
X160336004Y-98865266D01*
X160336089Y-98772133D01*
X159895822Y-98772133D01*
X159895808Y-98848333D01*
X159750148Y-98848333D01*
X159749467Y-98820111D01*
X159749066Y-98780629D01*
X159748653Y-98734918D01*
X159750457Y-98699117D01*
X159756739Y-98672026D01*
X159769759Y-98652444D01*
X159791778Y-98639170D01*
X159825055Y-98631002D01*
X159871851Y-98626740D01*
X159895822Y-98626143D01*
X159934427Y-98625183D01*
X160015041Y-98625130D01*
X160115956Y-98625378D01*
G36*
X160115956Y-98625378D02*
G01*
X160191617Y-98625417D01*
X160269526Y-98625672D01*
X160329536Y-98626316D01*
X160374264Y-98627520D01*
X160406326Y-98629457D01*
X160428340Y-98632297D01*
X160442924Y-98636212D01*
X160452694Y-98641374D01*
X160460267Y-98647955D01*
X160466501Y-98654923D01*
X160473801Y-98667921D01*
X160478554Y-98687069D01*
X160481292Y-98716472D01*
X160482545Y-98760238D01*
X160482845Y-98822472D01*
X160482469Y-98871418D01*
X160478041Y-98978278D01*
X160467953Y-99067506D01*
X160451365Y-99142304D01*
X160427435Y-99205875D01*
X160395321Y-99261421D01*
X160354182Y-99312146D01*
X160348330Y-99318134D01*
X160299821Y-99355001D01*
X160239013Y-99386101D01*
X160174769Y-99407583D01*
X160115956Y-99415600D01*
X160094739Y-99414321D01*
X160037323Y-99402009D01*
X159977413Y-99379480D01*
X159923363Y-99350250D01*
X159883532Y-99317833D01*
X159866510Y-99298292D01*
X159827322Y-99243580D01*
X159797193Y-99183277D01*
X159775232Y-99114081D01*
X159760550Y-99032689D01*
X159752259Y-98935800D01*
X159750148Y-98848333D01*
X159895808Y-98848333D01*
X159895817Y-98851361D01*
X159897782Y-98902481D01*
X159902507Y-98962584D01*
X159909035Y-99019292D01*
X159918331Y-99069250D01*
X159944600Y-99144002D01*
X159983899Y-99201511D01*
X160036933Y-99243012D01*
X160088200Y-99264229D01*
X160136026Y-99265647D01*
X160186961Y-99247365D01*
X160232878Y-99217695D01*
X160275287Y-99170998D01*
X160305090Y-99109608D01*
X160324226Y-99030462D01*
X160324464Y-99028972D01*
X160330256Y-98980001D01*
X160334396Y-98921307D01*
X160336004Y-98865266D01*
X160336089Y-98772133D01*
X159895822Y-98772133D01*
X159895808Y-98848333D01*
X159750148Y-98848333D01*
X159749467Y-98820111D01*
X159749066Y-98780629D01*
X159748653Y-98734918D01*
X159750457Y-98699117D01*
X159756739Y-98672026D01*
X159769759Y-98652444D01*
X159791778Y-98639170D01*
X159825055Y-98631002D01*
X159871851Y-98626740D01*
X159895822Y-98626143D01*
X159934427Y-98625183D01*
X160015041Y-98625130D01*
X160115956Y-98625378D01*
G37*
X160174486Y-103513489D02*
X160253573Y-103513708D01*
X160314516Y-103514317D01*
X160360062Y-103515508D01*
X160392963Y-103517471D01*
X160415968Y-103520397D01*
X160431826Y-103524477D01*
X160443286Y-103529903D01*
X160453100Y-103536864D01*
X160477493Y-103567292D01*
X160480372Y-103602235D01*
X160461282Y-103639216D01*
X160457807Y-103643400D01*
X160449279Y-103651576D01*
X160437728Y-103657636D01*
X160419896Y-103662019D01*
X160392524Y-103665161D01*
X160352354Y-103667498D01*
X160296128Y-103669469D01*
X160220589Y-103671511D01*
X160001458Y-103677155D01*
X160242099Y-103942444D01*
X160308875Y-104016278D01*
X160366991Y-104081458D01*
X160411949Y-104133652D01*
X160444871Y-104174727D01*
X160466879Y-104206545D01*
X160479094Y-104230974D01*
X160482639Y-104249876D01*
X160478636Y-104265117D01*
X160468207Y-104278561D01*
X160452474Y-104292073D01*
X160443991Y-104298318D01*
X160433413Y-104303950D01*
X160419255Y-104308161D01*
X160398803Y-104311113D01*
X160369342Y-104312968D01*
X160328161Y-104313887D01*
X160272544Y-104314032D01*
X160199779Y-104313565D01*
X160107151Y-104312648D01*
X159792199Y-104309333D01*
X159770633Y-104282682D01*
X159754441Y-104256617D01*
X159751670Y-104223759D01*
X159770623Y-104189228D01*
X159774208Y-104184916D01*
X159782737Y-104176784D01*
X159794329Y-104170755D01*
X159812235Y-104166394D01*
X159839706Y-104163266D01*
X159879994Y-104160937D01*
X159936351Y-104158971D01*
X160012029Y-104156933D01*
X160231878Y-104151289D01*
X160068084Y-103970666D01*
X159989451Y-103883928D01*
X159921058Y-103808157D01*
X159865708Y-103746020D01*
X159822338Y-103695922D01*
X159789881Y-103656265D01*
X159767273Y-103625452D01*
X159753448Y-103601886D01*
X159747343Y-103583970D01*
X159747892Y-103570107D01*
X159754029Y-103558699D01*
X159764691Y-103548150D01*
X159778811Y-103536864D01*
X159784772Y-103532411D01*
X159795268Y-103526412D01*
X159809093Y-103521833D01*
X159828998Y-103518481D01*
X159857732Y-103516167D01*
X159898045Y-103514699D01*
X159952687Y-103513887D01*
X160024407Y-103513540D01*
X160115956Y-103513466D01*
X160174486Y-103513489D01*
G36*
X160174486Y-103513489D02*
G01*
X160253573Y-103513708D01*
X160314516Y-103514317D01*
X160360062Y-103515508D01*
X160392963Y-103517471D01*
X160415968Y-103520397D01*
X160431826Y-103524477D01*
X160443286Y-103529903D01*
X160453100Y-103536864D01*
X160477493Y-103567292D01*
X160480372Y-103602235D01*
X160461282Y-103639216D01*
X160457807Y-103643400D01*
X160449279Y-103651576D01*
X160437728Y-103657636D01*
X160419896Y-103662019D01*
X160392524Y-103665161D01*
X160352354Y-103667498D01*
X160296128Y-103669469D01*
X160220589Y-103671511D01*
X160001458Y-103677155D01*
X160242099Y-103942444D01*
X160308875Y-104016278D01*
X160366991Y-104081458D01*
X160411949Y-104133652D01*
X160444871Y-104174727D01*
X160466879Y-104206545D01*
X160479094Y-104230974D01*
X160482639Y-104249876D01*
X160478636Y-104265117D01*
X160468207Y-104278561D01*
X160452474Y-104292073D01*
X160443991Y-104298318D01*
X160433413Y-104303950D01*
X160419255Y-104308161D01*
X160398803Y-104311113D01*
X160369342Y-104312968D01*
X160328161Y-104313887D01*
X160272544Y-104314032D01*
X160199779Y-104313565D01*
X160107151Y-104312648D01*
X159792199Y-104309333D01*
X159770633Y-104282682D01*
X159754441Y-104256617D01*
X159751670Y-104223759D01*
X159770623Y-104189228D01*
X159774208Y-104184916D01*
X159782737Y-104176784D01*
X159794329Y-104170755D01*
X159812235Y-104166394D01*
X159839706Y-104163266D01*
X159879994Y-104160937D01*
X159936351Y-104158971D01*
X160012029Y-104156933D01*
X160231878Y-104151289D01*
X160068084Y-103970666D01*
X159989451Y-103883928D01*
X159921058Y-103808157D01*
X159865708Y-103746020D01*
X159822338Y-103695922D01*
X159789881Y-103656265D01*
X159767273Y-103625452D01*
X159753448Y-103601886D01*
X159747343Y-103583970D01*
X159747892Y-103570107D01*
X159754029Y-103558699D01*
X159764691Y-103548150D01*
X159778811Y-103536864D01*
X159784772Y-103532411D01*
X159795268Y-103526412D01*
X159809093Y-103521833D01*
X159828998Y-103518481D01*
X159857732Y-103516167D01*
X159898045Y-103514699D01*
X159952687Y-103513887D01*
X160024407Y-103513540D01*
X160115956Y-103513466D01*
X160174486Y-103513489D01*
G37*
X160134259Y-102329702D02*
X160185592Y-102342643D01*
X160242118Y-102365806D01*
X160296035Y-102395698D01*
X160339539Y-102428827D01*
X160349887Y-102439023D01*
X160401662Y-102506108D01*
X160441554Y-102586234D01*
X160465956Y-102672444D01*
X160474068Y-102727408D01*
X160480673Y-102820861D01*
X160478586Y-102910642D01*
X160468340Y-102993131D01*
X160450470Y-103064714D01*
X160425508Y-103121772D01*
X160393988Y-103160689D01*
X160392012Y-103162064D01*
X160366786Y-103169152D01*
X160319535Y-103173391D01*
X160250071Y-103174800D01*
X160187838Y-103173940D01*
X160140456Y-103169220D01*
X160108353Y-103157530D01*
X160088800Y-103135761D01*
X160079070Y-103100802D01*
X160076433Y-103049544D01*
X160078161Y-102978877D01*
X160081173Y-102930257D01*
X160089366Y-102880061D01*
X160103419Y-102847567D01*
X160124654Y-102830108D01*
X160154394Y-102825017D01*
X160158936Y-102825123D01*
X160193730Y-102833825D01*
X160217147Y-102857835D01*
X160230347Y-102899100D01*
X160234489Y-102959569D01*
X160234489Y-103028044D01*
X160272841Y-103028044D01*
X160281976Y-103027994D01*
X160299227Y-103025773D01*
X160309521Y-103016506D01*
X160316459Y-102995125D01*
X160323641Y-102956564D01*
X160324575Y-102951090D01*
X160334478Y-102854140D01*
X160331559Y-102764148D01*
X160316829Y-102683240D01*
X160291299Y-102613541D01*
X160255978Y-102557176D01*
X160211879Y-102516271D01*
X160160012Y-102492949D01*
X160101388Y-102489337D01*
X160072494Y-102494855D01*
X160016604Y-102521539D01*
X159970945Y-102567727D01*
X159936108Y-102632709D01*
X159912690Y-102715771D01*
X159908241Y-102740445D01*
X159897742Y-102829774D01*
X159898971Y-102909581D01*
X159911906Y-102987674D01*
X159918696Y-103022817D01*
X159919713Y-103068255D01*
X159907182Y-103099570D01*
X159880395Y-103119723D01*
X159852148Y-103126107D01*
X159820924Y-103116621D01*
X159807499Y-103107292D01*
X159783967Y-103073057D01*
X159766095Y-103020435D01*
X159754599Y-102951919D01*
X159750192Y-102870000D01*
X159754179Y-102772850D01*
X159770494Y-102666843D01*
X159798545Y-102573031D01*
X159837452Y-102494235D01*
X159886334Y-102433281D01*
X159919195Y-102407211D01*
X159968394Y-102377703D01*
X160022252Y-102352432D01*
X160073419Y-102334782D01*
X160114544Y-102328142D01*
X160134259Y-102329702D01*
G36*
X160134259Y-102329702D02*
G01*
X160185592Y-102342643D01*
X160242118Y-102365806D01*
X160296035Y-102395698D01*
X160339539Y-102428827D01*
X160349887Y-102439023D01*
X160401662Y-102506108D01*
X160441554Y-102586234D01*
X160465956Y-102672444D01*
X160474068Y-102727408D01*
X160480673Y-102820861D01*
X160478586Y-102910642D01*
X160468340Y-102993131D01*
X160450470Y-103064714D01*
X160425508Y-103121772D01*
X160393988Y-103160689D01*
X160392012Y-103162064D01*
X160366786Y-103169152D01*
X160319535Y-103173391D01*
X160250071Y-103174800D01*
X160187838Y-103173940D01*
X160140456Y-103169220D01*
X160108353Y-103157530D01*
X160088800Y-103135761D01*
X160079070Y-103100802D01*
X160076433Y-103049544D01*
X160078161Y-102978877D01*
X160081173Y-102930257D01*
X160089366Y-102880061D01*
X160103419Y-102847567D01*
X160124654Y-102830108D01*
X160154394Y-102825017D01*
X160158936Y-102825123D01*
X160193730Y-102833825D01*
X160217147Y-102857835D01*
X160230347Y-102899100D01*
X160234489Y-102959569D01*
X160234489Y-103028044D01*
X160272841Y-103028044D01*
X160281976Y-103027994D01*
X160299227Y-103025773D01*
X160309521Y-103016506D01*
X160316459Y-102995125D01*
X160323641Y-102956564D01*
X160324575Y-102951090D01*
X160334478Y-102854140D01*
X160331559Y-102764148D01*
X160316829Y-102683240D01*
X160291299Y-102613541D01*
X160255978Y-102557176D01*
X160211879Y-102516271D01*
X160160012Y-102492949D01*
X160101388Y-102489337D01*
X160072494Y-102494855D01*
X160016604Y-102521539D01*
X159970945Y-102567727D01*
X159936108Y-102632709D01*
X159912690Y-102715771D01*
X159908241Y-102740445D01*
X159897742Y-102829774D01*
X159898971Y-102909581D01*
X159911906Y-102987674D01*
X159918696Y-103022817D01*
X159919713Y-103068255D01*
X159907182Y-103099570D01*
X159880395Y-103119723D01*
X159852148Y-103126107D01*
X159820924Y-103116621D01*
X159807499Y-103107292D01*
X159783967Y-103073057D01*
X159766095Y-103020435D01*
X159754599Y-102951919D01*
X159750192Y-102870000D01*
X159754179Y-102772850D01*
X159770494Y-102666843D01*
X159798545Y-102573031D01*
X159837452Y-102494235D01*
X159886334Y-102433281D01*
X159919195Y-102407211D01*
X159968394Y-102377703D01*
X160022252Y-102352432D01*
X160073419Y-102334782D01*
X160114544Y-102328142D01*
X160134259Y-102329702D01*
G37*
X160186911Y-104698829D02*
X160265228Y-104699061D01*
X160325496Y-104699681D01*
X160370393Y-104700874D01*
X160402602Y-104702821D01*
X160424800Y-104705706D01*
X160439669Y-104709712D01*
X160449889Y-104715021D01*
X160458138Y-104721817D01*
X160462795Y-104726332D01*
X160469282Y-104734562D01*
X160474194Y-104745922D01*
X160477749Y-104763190D01*
X160480167Y-104789145D01*
X160481667Y-104826564D01*
X160482467Y-104878227D01*
X160482787Y-104946911D01*
X160482845Y-105035394D01*
X160482838Y-105055069D01*
X160482572Y-105142094D01*
X160481806Y-105209746D01*
X160480392Y-105260701D01*
X160478180Y-105297633D01*
X160475022Y-105323217D01*
X160470769Y-105340129D01*
X160465271Y-105351043D01*
X160455285Y-105361536D01*
X160424168Y-105374797D01*
X160388280Y-105373614D01*
X160356733Y-105357450D01*
X160354457Y-105355261D01*
X160348189Y-105346573D01*
X160343523Y-105333231D01*
X160340227Y-105312248D01*
X160338068Y-105280637D01*
X160336814Y-105235410D01*
X160336231Y-105173580D01*
X160336089Y-105092161D01*
X160336089Y-104845555D01*
X160178045Y-104845555D01*
X160178045Y-105007994D01*
X160177964Y-105043662D01*
X160177167Y-105099432D01*
X160175162Y-105138570D01*
X160171521Y-105165024D01*
X160165812Y-105182741D01*
X160157607Y-105195671D01*
X160154423Y-105199314D01*
X160123448Y-105217722D01*
X160087112Y-105218356D01*
X160053493Y-105200817D01*
X160053424Y-105200755D01*
X160044798Y-105191084D01*
X160038742Y-105177791D01*
X160034811Y-105157083D01*
X160032556Y-105125172D01*
X160031531Y-105078266D01*
X160031289Y-105012576D01*
X160031289Y-104844429D01*
X159966378Y-104847814D01*
X159901467Y-104851200D01*
X159898414Y-105093277D01*
X159898086Y-105118293D01*
X159896606Y-105199913D01*
X159894222Y-105262232D01*
X159890227Y-105307846D01*
X159883913Y-105339348D01*
X159874574Y-105359333D01*
X159861503Y-105370396D01*
X159843992Y-105375131D01*
X159821335Y-105376133D01*
X159818970Y-105376127D01*
X159798939Y-105374973D01*
X159783146Y-105370176D01*
X159771090Y-105359368D01*
X159762267Y-105340183D01*
X159756175Y-105310255D01*
X159752311Y-105267217D01*
X159750174Y-105208701D01*
X159749260Y-105132343D01*
X159749067Y-105035774D01*
X159749067Y-104745594D01*
X159778811Y-104722197D01*
X159785495Y-104717248D01*
X159796066Y-104711404D01*
X159810153Y-104706943D01*
X159830478Y-104703679D01*
X159859765Y-104701426D01*
X159900737Y-104699998D01*
X159956117Y-104699208D01*
X160028628Y-104698871D01*
X160120994Y-104698800D01*
X160186911Y-104698829D01*
G36*
X160186911Y-104698829D02*
G01*
X160265228Y-104699061D01*
X160325496Y-104699681D01*
X160370393Y-104700874D01*
X160402602Y-104702821D01*
X160424800Y-104705706D01*
X160439669Y-104709712D01*
X160449889Y-104715021D01*
X160458138Y-104721817D01*
X160462795Y-104726332D01*
X160469282Y-104734562D01*
X160474194Y-104745922D01*
X160477749Y-104763190D01*
X160480167Y-104789145D01*
X160481667Y-104826564D01*
X160482467Y-104878227D01*
X160482787Y-104946911D01*
X160482845Y-105035394D01*
X160482838Y-105055069D01*
X160482572Y-105142094D01*
X160481806Y-105209746D01*
X160480392Y-105260701D01*
X160478180Y-105297633D01*
X160475022Y-105323217D01*
X160470769Y-105340129D01*
X160465271Y-105351043D01*
X160455285Y-105361536D01*
X160424168Y-105374797D01*
X160388280Y-105373614D01*
X160356733Y-105357450D01*
X160354457Y-105355261D01*
X160348189Y-105346573D01*
X160343523Y-105333231D01*
X160340227Y-105312248D01*
X160338068Y-105280637D01*
X160336814Y-105235410D01*
X160336231Y-105173580D01*
X160336089Y-105092161D01*
X160336089Y-104845555D01*
X160178045Y-104845555D01*
X160178045Y-105007994D01*
X160177964Y-105043662D01*
X160177167Y-105099432D01*
X160175162Y-105138570D01*
X160171521Y-105165024D01*
X160165812Y-105182741D01*
X160157607Y-105195671D01*
X160154423Y-105199314D01*
X160123448Y-105217722D01*
X160087112Y-105218356D01*
X160053493Y-105200817D01*
X160053424Y-105200755D01*
X160044798Y-105191084D01*
X160038742Y-105177791D01*
X160034811Y-105157083D01*
X160032556Y-105125172D01*
X160031531Y-105078266D01*
X160031289Y-105012576D01*
X160031289Y-104844429D01*
X159966378Y-104847814D01*
X159901467Y-104851200D01*
X159898414Y-105093277D01*
X159898086Y-105118293D01*
X159896606Y-105199913D01*
X159894222Y-105262232D01*
X159890227Y-105307846D01*
X159883913Y-105339348D01*
X159874574Y-105359333D01*
X159861503Y-105370396D01*
X159843992Y-105375131D01*
X159821335Y-105376133D01*
X159818970Y-105376127D01*
X159798939Y-105374973D01*
X159783146Y-105370176D01*
X159771090Y-105359368D01*
X159762267Y-105340183D01*
X159756175Y-105310255D01*
X159752311Y-105267217D01*
X159750174Y-105208701D01*
X159749260Y-105132343D01*
X159749067Y-105035774D01*
X159749067Y-104745594D01*
X159778811Y-104722197D01*
X159785495Y-104717248D01*
X159796066Y-104711404D01*
X159810153Y-104706943D01*
X159830478Y-104703679D01*
X159859765Y-104701426D01*
X159900737Y-104699998D01*
X159956117Y-104699208D01*
X160028628Y-104698871D01*
X160120994Y-104698800D01*
X160186911Y-104698829D01*
G37*
X160190713Y-99754303D02*
X160268889Y-99754552D01*
X160329103Y-99755188D01*
X160373982Y-99756385D01*
X160406152Y-99758316D01*
X160428239Y-99761154D01*
X160442870Y-99765073D01*
X160452670Y-99770245D01*
X160460267Y-99776844D01*
X160463444Y-99780178D01*
X160469554Y-99788700D01*
X160474229Y-99800702D01*
X160477659Y-99818913D01*
X160480036Y-99846060D01*
X160481552Y-99884871D01*
X160482398Y-99938076D01*
X160482765Y-100008402D01*
X160482845Y-100098578D01*
X160482833Y-100140686D01*
X160482651Y-100221833D01*
X160482098Y-100284325D01*
X160480982Y-100330891D01*
X160479113Y-100364259D01*
X160476298Y-100387156D01*
X160472346Y-100402312D01*
X160467066Y-100412454D01*
X160460267Y-100420311D01*
X160438667Y-100435037D01*
X160409467Y-100442889D01*
X160385560Y-100437390D01*
X160358667Y-100420311D01*
X160354059Y-100415332D01*
X160347772Y-100405557D01*
X160343146Y-100391441D01*
X160339930Y-100369946D01*
X160337870Y-100338032D01*
X160336712Y-100292658D01*
X160336202Y-100230787D01*
X160336089Y-100149378D01*
X160336089Y-99901022D01*
X160178045Y-99901022D01*
X160178045Y-100062199D01*
X160177899Y-100098017D01*
X160176176Y-100163641D01*
X160171741Y-100210882D01*
X160163637Y-100242617D01*
X160150906Y-100261723D01*
X160132592Y-100271077D01*
X160107738Y-100273555D01*
X160087482Y-100272758D01*
X160065656Y-100267506D01*
X160050304Y-100254712D01*
X160040309Y-100231372D01*
X160034553Y-100194483D01*
X160031919Y-100141041D01*
X160031289Y-100068042D01*
X160031289Y-99899895D01*
X159966378Y-99903281D01*
X159901467Y-99906666D01*
X159898418Y-100154383D01*
X159897539Y-100216974D01*
X159896095Y-100285435D01*
X159894164Y-100336339D01*
X159891514Y-100372592D01*
X159887910Y-100397099D01*
X159883121Y-100412765D01*
X159876913Y-100422494D01*
X159870510Y-100428509D01*
X159838828Y-100441518D01*
X159803142Y-100437957D01*
X159772084Y-100418182D01*
X159769161Y-100414931D01*
X159762810Y-100405951D01*
X159757957Y-100393847D01*
X159754403Y-100375841D01*
X159751946Y-100349153D01*
X159750385Y-100311003D01*
X159749518Y-100258614D01*
X159749146Y-100189206D01*
X159749067Y-100099999D01*
X159749083Y-100045266D01*
X159749275Y-99968169D01*
X159749860Y-99909223D01*
X159751051Y-99865636D01*
X159753064Y-99834617D01*
X159756112Y-99813375D01*
X159760409Y-99799118D01*
X159766172Y-99789055D01*
X159773612Y-99780394D01*
X159775293Y-99778609D01*
X159782832Y-99771365D01*
X159791850Y-99765723D01*
X159804984Y-99761483D01*
X159824872Y-99758444D01*
X159854151Y-99756406D01*
X159895458Y-99755170D01*
X159951431Y-99754535D01*
X160024707Y-99754300D01*
X160117923Y-99754266D01*
X160190713Y-99754303D01*
G36*
X160190713Y-99754303D02*
G01*
X160268889Y-99754552D01*
X160329103Y-99755188D01*
X160373982Y-99756385D01*
X160406152Y-99758316D01*
X160428239Y-99761154D01*
X160442870Y-99765073D01*
X160452670Y-99770245D01*
X160460267Y-99776844D01*
X160463444Y-99780178D01*
X160469554Y-99788700D01*
X160474229Y-99800702D01*
X160477659Y-99818913D01*
X160480036Y-99846060D01*
X160481552Y-99884871D01*
X160482398Y-99938076D01*
X160482765Y-100008402D01*
X160482845Y-100098578D01*
X160482833Y-100140686D01*
X160482651Y-100221833D01*
X160482098Y-100284325D01*
X160480982Y-100330891D01*
X160479113Y-100364259D01*
X160476298Y-100387156D01*
X160472346Y-100402312D01*
X160467066Y-100412454D01*
X160460267Y-100420311D01*
X160438667Y-100435037D01*
X160409467Y-100442889D01*
X160385560Y-100437390D01*
X160358667Y-100420311D01*
X160354059Y-100415332D01*
X160347772Y-100405557D01*
X160343146Y-100391441D01*
X160339930Y-100369946D01*
X160337870Y-100338032D01*
X160336712Y-100292658D01*
X160336202Y-100230787D01*
X160336089Y-100149378D01*
X160336089Y-99901022D01*
X160178045Y-99901022D01*
X160178045Y-100062199D01*
X160177899Y-100098017D01*
X160176176Y-100163641D01*
X160171741Y-100210882D01*
X160163637Y-100242617D01*
X160150906Y-100261723D01*
X160132592Y-100271077D01*
X160107738Y-100273555D01*
X160087482Y-100272758D01*
X160065656Y-100267506D01*
X160050304Y-100254712D01*
X160040309Y-100231372D01*
X160034553Y-100194483D01*
X160031919Y-100141041D01*
X160031289Y-100068042D01*
X160031289Y-99899895D01*
X159966378Y-99903281D01*
X159901467Y-99906666D01*
X159898418Y-100154383D01*
X159897539Y-100216974D01*
X159896095Y-100285435D01*
X159894164Y-100336339D01*
X159891514Y-100372592D01*
X159887910Y-100397099D01*
X159883121Y-100412765D01*
X159876913Y-100422494D01*
X159870510Y-100428509D01*
X159838828Y-100441518D01*
X159803142Y-100437957D01*
X159772084Y-100418182D01*
X159769161Y-100414931D01*
X159762810Y-100405951D01*
X159757957Y-100393847D01*
X159754403Y-100375841D01*
X159751946Y-100349153D01*
X159750385Y-100311003D01*
X159749518Y-100258614D01*
X159749146Y-100189206D01*
X159749067Y-100099999D01*
X159749083Y-100045266D01*
X159749275Y-99968169D01*
X159749860Y-99909223D01*
X159751051Y-99865636D01*
X159753064Y-99834617D01*
X159756112Y-99813375D01*
X159760409Y-99799118D01*
X159766172Y-99789055D01*
X159773612Y-99780394D01*
X159775293Y-99778609D01*
X159782832Y-99771365D01*
X159791850Y-99765723D01*
X159804984Y-99761483D01*
X159824872Y-99758444D01*
X159854151Y-99756406D01*
X159895458Y-99755170D01*
X159951431Y-99754535D01*
X160024707Y-99754300D01*
X160117923Y-99754266D01*
X160190713Y-99754303D01*
G37*
X159831915Y-107606772D02*
X159866481Y-107619636D01*
X159914826Y-107639395D01*
X159973825Y-107664619D01*
X160040355Y-107693881D01*
X160111291Y-107725750D01*
X160183507Y-107758799D01*
X160253880Y-107791599D01*
X160319285Y-107822720D01*
X160376597Y-107850735D01*
X160422692Y-107874214D01*
X160454446Y-107891728D01*
X160468733Y-107901849D01*
X160482102Y-107936257D01*
X160475741Y-107977954D01*
X160471044Y-107983319D01*
X160448893Y-107999148D01*
X160412132Y-108021350D01*
X160364415Y-108047767D01*
X160309393Y-108076240D01*
X160150150Y-108156014D01*
X160296742Y-108229201D01*
X160316032Y-108238897D01*
X160368380Y-108265875D01*
X160413170Y-108289904D01*
X160446154Y-108308668D01*
X160463089Y-108319854D01*
X160464332Y-108321000D01*
X160479619Y-108349121D01*
X160481302Y-108384183D01*
X160468733Y-108415224D01*
X160465884Y-108417650D01*
X160445259Y-108429910D01*
X160407708Y-108449648D01*
X160355880Y-108475552D01*
X160292423Y-108506315D01*
X160219985Y-108540625D01*
X160141216Y-108577175D01*
X160097093Y-108597415D01*
X160016365Y-108634188D01*
X159952687Y-108662645D01*
X159903752Y-108683669D01*
X159867257Y-108698146D01*
X159840895Y-108706961D01*
X159822361Y-108710996D01*
X159809352Y-108711138D01*
X159799561Y-108708270D01*
X159778678Y-108693613D01*
X159758377Y-108667010D01*
X159758035Y-108666255D01*
X159751034Y-108646665D01*
X159750504Y-108629210D01*
X159758478Y-108612298D01*
X159776989Y-108594337D01*
X159808071Y-108573737D01*
X159853756Y-108548905D01*
X159916078Y-108518250D01*
X159997071Y-108480180D01*
X160028454Y-108465546D01*
X160091638Y-108435797D01*
X160146244Y-108409703D01*
X160189290Y-108388708D01*
X160217793Y-108374261D01*
X160228770Y-108367809D01*
X160228189Y-108366450D01*
X160214242Y-108356458D01*
X160184704Y-108339167D01*
X160143087Y-108316570D01*
X160092903Y-108290662D01*
X160061414Y-108274689D01*
X160006061Y-108245739D01*
X159967044Y-108223251D01*
X159941566Y-108205035D01*
X159926831Y-108188904D01*
X159920042Y-108172670D01*
X159918400Y-108154143D01*
X159918875Y-108143640D01*
X159923082Y-108127524D01*
X159933946Y-108112210D01*
X159954219Y-108095612D01*
X159986654Y-108075643D01*
X160034004Y-108050217D01*
X160099022Y-108017248D01*
X160118277Y-108007515D01*
X160164946Y-107983057D01*
X160201109Y-107962822D01*
X160223497Y-107948689D01*
X160228845Y-107942540D01*
X160225573Y-107941173D01*
X160204664Y-107931798D01*
X160167725Y-107914938D01*
X160117874Y-107892021D01*
X160058226Y-107864480D01*
X159991898Y-107833745D01*
X159934677Y-107807030D01*
X159872688Y-107777407D01*
X159826949Y-107754336D01*
X159794908Y-107736357D01*
X159774014Y-107722010D01*
X159761718Y-107709834D01*
X159755466Y-107698368D01*
X159752574Y-107688958D01*
X159752425Y-107663853D01*
X159767768Y-107636710D01*
X159768753Y-107635410D01*
X159791388Y-107613326D01*
X159813613Y-107602277D01*
X159814253Y-107602231D01*
X159831915Y-107606772D01*
G36*
X159831915Y-107606772D02*
G01*
X159866481Y-107619636D01*
X159914826Y-107639395D01*
X159973825Y-107664619D01*
X160040355Y-107693881D01*
X160111291Y-107725750D01*
X160183507Y-107758799D01*
X160253880Y-107791599D01*
X160319285Y-107822720D01*
X160376597Y-107850735D01*
X160422692Y-107874214D01*
X160454446Y-107891728D01*
X160468733Y-107901849D01*
X160482102Y-107936257D01*
X160475741Y-107977954D01*
X160471044Y-107983319D01*
X160448893Y-107999148D01*
X160412132Y-108021350D01*
X160364415Y-108047767D01*
X160309393Y-108076240D01*
X160150150Y-108156014D01*
X160296742Y-108229201D01*
X160316032Y-108238897D01*
X160368380Y-108265875D01*
X160413170Y-108289904D01*
X160446154Y-108308668D01*
X160463089Y-108319854D01*
X160464332Y-108321000D01*
X160479619Y-108349121D01*
X160481302Y-108384183D01*
X160468733Y-108415224D01*
X160465884Y-108417650D01*
X160445259Y-108429910D01*
X160407708Y-108449648D01*
X160355880Y-108475552D01*
X160292423Y-108506315D01*
X160219985Y-108540625D01*
X160141216Y-108577175D01*
X160097093Y-108597415D01*
X160016365Y-108634188D01*
X159952687Y-108662645D01*
X159903752Y-108683669D01*
X159867257Y-108698146D01*
X159840895Y-108706961D01*
X159822361Y-108710996D01*
X159809352Y-108711138D01*
X159799561Y-108708270D01*
X159778678Y-108693613D01*
X159758377Y-108667010D01*
X159758035Y-108666255D01*
X159751034Y-108646665D01*
X159750504Y-108629210D01*
X159758478Y-108612298D01*
X159776989Y-108594337D01*
X159808071Y-108573737D01*
X159853756Y-108548905D01*
X159916078Y-108518250D01*
X159997071Y-108480180D01*
X160028454Y-108465546D01*
X160091638Y-108435797D01*
X160146244Y-108409703D01*
X160189290Y-108388708D01*
X160217793Y-108374261D01*
X160228770Y-108367809D01*
X160228189Y-108366450D01*
X160214242Y-108356458D01*
X160184704Y-108339167D01*
X160143087Y-108316570D01*
X160092903Y-108290662D01*
X160061414Y-108274689D01*
X160006061Y-108245739D01*
X159967044Y-108223251D01*
X159941566Y-108205035D01*
X159926831Y-108188904D01*
X159920042Y-108172670D01*
X159918400Y-108154143D01*
X159918875Y-108143640D01*
X159923082Y-108127524D01*
X159933946Y-108112210D01*
X159954219Y-108095612D01*
X159986654Y-108075643D01*
X160034004Y-108050217D01*
X160099022Y-108017248D01*
X160118277Y-108007515D01*
X160164946Y-107983057D01*
X160201109Y-107962822D01*
X160223497Y-107948689D01*
X160228845Y-107942540D01*
X160225573Y-107941173D01*
X160204664Y-107931798D01*
X160167725Y-107914938D01*
X160117874Y-107892021D01*
X160058226Y-107864480D01*
X159991898Y-107833745D01*
X159934677Y-107807030D01*
X159872688Y-107777407D01*
X159826949Y-107754336D01*
X159794908Y-107736357D01*
X159774014Y-107722010D01*
X159761718Y-107709834D01*
X159755466Y-107698368D01*
X159752574Y-107688958D01*
X159752425Y-107663853D01*
X159767768Y-107636710D01*
X159768753Y-107635410D01*
X159791388Y-107613326D01*
X159813613Y-107602277D01*
X159814253Y-107602231D01*
X159831915Y-107606772D01*
G37*
X160000232Y-100726048D02*
X160025029Y-100731840D01*
X160046699Y-100746647D01*
X160074049Y-100774620D01*
X160081378Y-100782598D01*
X160102281Y-100806308D01*
X160119251Y-100828702D01*
X160133205Y-100852735D01*
X160145056Y-100881363D01*
X160155720Y-100917540D01*
X160166111Y-100964220D01*
X160177146Y-101024359D01*
X160189738Y-101100910D01*
X160204804Y-101196829D01*
X160207838Y-101215192D01*
X160221458Y-101277522D01*
X160237192Y-101322740D01*
X160254263Y-101349024D01*
X160271897Y-101354553D01*
X160276168Y-101351932D01*
X160291233Y-101334000D01*
X160307867Y-101305874D01*
X160313857Y-101293074D01*
X160321050Y-101271776D01*
X160325827Y-101245390D01*
X160328646Y-101209546D01*
X160329964Y-101159872D01*
X160330237Y-101092000D01*
X160330164Y-101074215D01*
X160329053Y-101006594D01*
X160326828Y-100941655D01*
X160323762Y-100886030D01*
X160320127Y-100846349D01*
X160316059Y-100810838D01*
X160315276Y-100781585D01*
X160319876Y-100762685D01*
X160330551Y-100747571D01*
X160334144Y-100743915D01*
X160365918Y-100727573D01*
X160401572Y-100728893D01*
X160432190Y-100747850D01*
X160443796Y-100768220D01*
X160456491Y-100804204D01*
X160466541Y-100846628D01*
X160467140Y-100850078D01*
X160472356Y-100892748D01*
X160476730Y-100950134D01*
X160479818Y-101015151D01*
X160481177Y-101080711D01*
X160481218Y-101096943D01*
X160478741Y-101195256D01*
X160470735Y-101275308D01*
X160456203Y-101340487D01*
X160434149Y-101394183D01*
X160403576Y-101439784D01*
X160363486Y-101480677D01*
X160337259Y-101500798D01*
X160307712Y-101512424D01*
X160267995Y-101515333D01*
X160256026Y-101515192D01*
X160223345Y-101511319D01*
X160196819Y-101498935D01*
X160165971Y-101473770D01*
X160143831Y-101452558D01*
X160121285Y-101426162D01*
X160102917Y-101396445D01*
X160087661Y-101360215D01*
X160074449Y-101314283D01*
X160062214Y-101255456D01*
X160049889Y-101180544D01*
X160036406Y-101086355D01*
X160029396Y-101041043D01*
X160014837Y-100973089D01*
X159998337Y-100923953D01*
X159980439Y-100894386D01*
X159961685Y-100885136D01*
X159942615Y-100896952D01*
X159923771Y-100930584D01*
X159922557Y-100933630D01*
X159910479Y-100979989D01*
X159902279Y-101042639D01*
X159898119Y-101116073D01*
X159898161Y-101194783D01*
X159902569Y-101273261D01*
X159911505Y-101346000D01*
X159912154Y-101349927D01*
X159919861Y-101398743D01*
X159923473Y-101430995D01*
X159922876Y-101451992D01*
X159917954Y-101467046D01*
X159908596Y-101481466D01*
X159907725Y-101482636D01*
X159877351Y-101507153D01*
X159841850Y-101511946D01*
X159807269Y-101496140D01*
X159802813Y-101491594D01*
X159787673Y-101461980D01*
X159774550Y-101414998D01*
X159763750Y-101354694D01*
X159755581Y-101285112D01*
X159750351Y-101210297D01*
X159748367Y-101134294D01*
X159749936Y-101061147D01*
X159755366Y-100994900D01*
X159764964Y-100939600D01*
X159779825Y-100888717D01*
X159812958Y-100817405D01*
X159855640Y-100766248D01*
X159907705Y-100735425D01*
X159968983Y-100725111D01*
X160000232Y-100726048D01*
G36*
X160000232Y-100726048D02*
G01*
X160025029Y-100731840D01*
X160046699Y-100746647D01*
X160074049Y-100774620D01*
X160081378Y-100782598D01*
X160102281Y-100806308D01*
X160119251Y-100828702D01*
X160133205Y-100852735D01*
X160145056Y-100881363D01*
X160155720Y-100917540D01*
X160166111Y-100964220D01*
X160177146Y-101024359D01*
X160189738Y-101100910D01*
X160204804Y-101196829D01*
X160207838Y-101215192D01*
X160221458Y-101277522D01*
X160237192Y-101322740D01*
X160254263Y-101349024D01*
X160271897Y-101354553D01*
X160276168Y-101351932D01*
X160291233Y-101334000D01*
X160307867Y-101305874D01*
X160313857Y-101293074D01*
X160321050Y-101271776D01*
X160325827Y-101245390D01*
X160328646Y-101209546D01*
X160329964Y-101159872D01*
X160330237Y-101092000D01*
X160330164Y-101074215D01*
X160329053Y-101006594D01*
X160326828Y-100941655D01*
X160323762Y-100886030D01*
X160320127Y-100846349D01*
X160316059Y-100810838D01*
X160315276Y-100781585D01*
X160319876Y-100762685D01*
X160330551Y-100747571D01*
X160334144Y-100743915D01*
X160365918Y-100727573D01*
X160401572Y-100728893D01*
X160432190Y-100747850D01*
X160443796Y-100768220D01*
X160456491Y-100804204D01*
X160466541Y-100846628D01*
X160467140Y-100850078D01*
X160472356Y-100892748D01*
X160476730Y-100950134D01*
X160479818Y-101015151D01*
X160481177Y-101080711D01*
X160481218Y-101096943D01*
X160478741Y-101195256D01*
X160470735Y-101275308D01*
X160456203Y-101340487D01*
X160434149Y-101394183D01*
X160403576Y-101439784D01*
X160363486Y-101480677D01*
X160337259Y-101500798D01*
X160307712Y-101512424D01*
X160267995Y-101515333D01*
X160256026Y-101515192D01*
X160223345Y-101511319D01*
X160196819Y-101498935D01*
X160165971Y-101473770D01*
X160143831Y-101452558D01*
X160121285Y-101426162D01*
X160102917Y-101396445D01*
X160087661Y-101360215D01*
X160074449Y-101314283D01*
X160062214Y-101255456D01*
X160049889Y-101180544D01*
X160036406Y-101086355D01*
X160029396Y-101041043D01*
X160014837Y-100973089D01*
X159998337Y-100923953D01*
X159980439Y-100894386D01*
X159961685Y-100885136D01*
X159942615Y-100896952D01*
X159923771Y-100930584D01*
X159922557Y-100933630D01*
X159910479Y-100979989D01*
X159902279Y-101042639D01*
X159898119Y-101116073D01*
X159898161Y-101194783D01*
X159902569Y-101273261D01*
X159911505Y-101346000D01*
X159912154Y-101349927D01*
X159919861Y-101398743D01*
X159923473Y-101430995D01*
X159922876Y-101451992D01*
X159917954Y-101467046D01*
X159908596Y-101481466D01*
X159907725Y-101482636D01*
X159877351Y-101507153D01*
X159841850Y-101511946D01*
X159807269Y-101496140D01*
X159802813Y-101491594D01*
X159787673Y-101461980D01*
X159774550Y-101414998D01*
X159763750Y-101354694D01*
X159755581Y-101285112D01*
X159750351Y-101210297D01*
X159748367Y-101134294D01*
X159749936Y-101061147D01*
X159755366Y-100994900D01*
X159764964Y-100939600D01*
X159779825Y-100888717D01*
X159812958Y-100817405D01*
X159855640Y-100766248D01*
X159907705Y-100735425D01*
X159968983Y-100725111D01*
X160000232Y-100726048D01*
G37*
X157301325Y-103584449D02*
X157502581Y-103601209D01*
X157697128Y-103634708D01*
X157880756Y-103684956D01*
X157998053Y-103728810D01*
X158160951Y-103806652D01*
X158314866Y-103900172D01*
X158456671Y-104007178D01*
X158583239Y-104125481D01*
X158691441Y-104252889D01*
X158744120Y-104330394D01*
X158813750Y-104457275D01*
X158872468Y-104594757D01*
X158917587Y-104736284D01*
X158946422Y-104875298D01*
X158948106Y-104889403D01*
X158951434Y-104932847D01*
X158954275Y-104990277D01*
X158956373Y-105055878D01*
X158957468Y-105123833D01*
X158955140Y-105250622D01*
X158942136Y-105398327D01*
X158917133Y-105536221D01*
X158879318Y-105669986D01*
X158870889Y-105693438D01*
X158851408Y-105741388D01*
X158826473Y-105797860D01*
X158797722Y-105859621D01*
X158766790Y-105923437D01*
X158735315Y-105986074D01*
X158704934Y-106044297D01*
X158677283Y-106094873D01*
X158653999Y-106134567D01*
X158636718Y-106160146D01*
X158627079Y-106168375D01*
X158623984Y-106166924D01*
X158604079Y-106155750D01*
X158568420Y-106134866D01*
X158519459Y-106105735D01*
X158459646Y-106069819D01*
X158391433Y-106028580D01*
X158317271Y-105983483D01*
X158020008Y-105802215D01*
X158064539Y-105755685D01*
X158142865Y-105664277D01*
X158217439Y-105550666D01*
X158271474Y-105432878D01*
X158304290Y-105312441D01*
X158315211Y-105190883D01*
X158313868Y-105149415D01*
X158295612Y-105031920D01*
X158256617Y-104921911D01*
X158197670Y-104820570D01*
X158119557Y-104729079D01*
X158023064Y-104648620D01*
X157908978Y-104580373D01*
X157874724Y-104564092D01*
X157751240Y-104518018D01*
X157612918Y-104482894D01*
X157463561Y-104458803D01*
X157306973Y-104445827D01*
X157146956Y-104444051D01*
X156987314Y-104453557D01*
X156831850Y-104474428D01*
X156684366Y-104506748D01*
X156548667Y-104550601D01*
X156462076Y-104588018D01*
X156348688Y-104652815D01*
X156255070Y-104728228D01*
X156180959Y-104814582D01*
X156126094Y-104912205D01*
X156090212Y-105021423D01*
X156073051Y-105142561D01*
X156071880Y-105211962D01*
X156086141Y-105334832D01*
X156121241Y-105450336D01*
X156176682Y-105557047D01*
X156251964Y-105653536D01*
X156266440Y-105669280D01*
X156292962Y-105699850D01*
X156310138Y-105722191D01*
X156314787Y-105732309D01*
X156312597Y-105734294D01*
X156293721Y-105748759D01*
X156260397Y-105772600D01*
X156215380Y-105803971D01*
X156161425Y-105841026D01*
X156101285Y-105881917D01*
X156037718Y-105924798D01*
X155973476Y-105967822D01*
X155911315Y-106009143D01*
X155853991Y-106046914D01*
X155804257Y-106079288D01*
X155764868Y-106104418D01*
X155738580Y-106120458D01*
X155728147Y-106125561D01*
X155723941Y-106120950D01*
X155718933Y-106101733D01*
X155716386Y-106092162D01*
X155705249Y-106064191D01*
X155686802Y-106022552D01*
X155662725Y-105971005D01*
X155634699Y-105913310D01*
X155629154Y-105902043D01*
X155549889Y-105724313D01*
X155490385Y-105554510D01*
X155450245Y-105390570D01*
X155429071Y-105230429D01*
X155426466Y-105072023D01*
X155442033Y-104913289D01*
X155459523Y-104817732D01*
X155504564Y-104653442D01*
X155567656Y-104499411D01*
X155649915Y-104353491D01*
X155752457Y-104213534D01*
X155876399Y-104077392D01*
X155921661Y-104033527D01*
X156053865Y-103921242D01*
X156191832Y-103828028D01*
X156339750Y-103751281D01*
X156501803Y-103688397D01*
X156513391Y-103684580D01*
X156699392Y-103634493D01*
X156895521Y-103601101D01*
X157097568Y-103584416D01*
X157301325Y-103584449D01*
G36*
X157301325Y-103584449D02*
G01*
X157502581Y-103601209D01*
X157697128Y-103634708D01*
X157880756Y-103684956D01*
X157998053Y-103728810D01*
X158160951Y-103806652D01*
X158314866Y-103900172D01*
X158456671Y-104007178D01*
X158583239Y-104125481D01*
X158691441Y-104252889D01*
X158744120Y-104330394D01*
X158813750Y-104457275D01*
X158872468Y-104594757D01*
X158917587Y-104736284D01*
X158946422Y-104875298D01*
X158948106Y-104889403D01*
X158951434Y-104932847D01*
X158954275Y-104990277D01*
X158956373Y-105055878D01*
X158957468Y-105123833D01*
X158955140Y-105250622D01*
X158942136Y-105398327D01*
X158917133Y-105536221D01*
X158879318Y-105669986D01*
X158870889Y-105693438D01*
X158851408Y-105741388D01*
X158826473Y-105797860D01*
X158797722Y-105859621D01*
X158766790Y-105923437D01*
X158735315Y-105986074D01*
X158704934Y-106044297D01*
X158677283Y-106094873D01*
X158653999Y-106134567D01*
X158636718Y-106160146D01*
X158627079Y-106168375D01*
X158623984Y-106166924D01*
X158604079Y-106155750D01*
X158568420Y-106134866D01*
X158519459Y-106105735D01*
X158459646Y-106069819D01*
X158391433Y-106028580D01*
X158317271Y-105983483D01*
X158020008Y-105802215D01*
X158064539Y-105755685D01*
X158142865Y-105664277D01*
X158217439Y-105550666D01*
X158271474Y-105432878D01*
X158304290Y-105312441D01*
X158315211Y-105190883D01*
X158313868Y-105149415D01*
X158295612Y-105031920D01*
X158256617Y-104921911D01*
X158197670Y-104820570D01*
X158119557Y-104729079D01*
X158023064Y-104648620D01*
X157908978Y-104580373D01*
X157874724Y-104564092D01*
X157751240Y-104518018D01*
X157612918Y-104482894D01*
X157463561Y-104458803D01*
X157306973Y-104445827D01*
X157146956Y-104444051D01*
X156987314Y-104453557D01*
X156831850Y-104474428D01*
X156684366Y-104506748D01*
X156548667Y-104550601D01*
X156462076Y-104588018D01*
X156348688Y-104652815D01*
X156255070Y-104728228D01*
X156180959Y-104814582D01*
X156126094Y-104912205D01*
X156090212Y-105021423D01*
X156073051Y-105142561D01*
X156071880Y-105211962D01*
X156086141Y-105334832D01*
X156121241Y-105450336D01*
X156176682Y-105557047D01*
X156251964Y-105653536D01*
X156266440Y-105669280D01*
X156292962Y-105699850D01*
X156310138Y-105722191D01*
X156314787Y-105732309D01*
X156312597Y-105734294D01*
X156293721Y-105748759D01*
X156260397Y-105772600D01*
X156215380Y-105803971D01*
X156161425Y-105841026D01*
X156101285Y-105881917D01*
X156037718Y-105924798D01*
X155973476Y-105967822D01*
X155911315Y-106009143D01*
X155853991Y-106046914D01*
X155804257Y-106079288D01*
X155764868Y-106104418D01*
X155738580Y-106120458D01*
X155728147Y-106125561D01*
X155723941Y-106120950D01*
X155718933Y-106101733D01*
X155716386Y-106092162D01*
X155705249Y-106064191D01*
X155686802Y-106022552D01*
X155662725Y-105971005D01*
X155634699Y-105913310D01*
X155629154Y-105902043D01*
X155549889Y-105724313D01*
X155490385Y-105554510D01*
X155450245Y-105390570D01*
X155429071Y-105230429D01*
X155426466Y-105072023D01*
X155442033Y-104913289D01*
X155459523Y-104817732D01*
X155504564Y-104653442D01*
X155567656Y-104499411D01*
X155649915Y-104353491D01*
X155752457Y-104213534D01*
X155876399Y-104077392D01*
X155921661Y-104033527D01*
X156053865Y-103921242D01*
X156191832Y-103828028D01*
X156339750Y-103751281D01*
X156501803Y-103688397D01*
X156513391Y-103684580D01*
X156699392Y-103634493D01*
X156895521Y-103601101D01*
X157097568Y-103584416D01*
X157301325Y-103584449D01*
G37*
X157800158Y-108716732D02*
X157951594Y-108725311D01*
X158088283Y-108744167D01*
X158214276Y-108774163D01*
X158333625Y-108816164D01*
X158450381Y-108871031D01*
X158561179Y-108937833D01*
X158674739Y-109028637D01*
X158770211Y-109132292D01*
X158847073Y-109248113D01*
X158904797Y-109375414D01*
X158942858Y-109513511D01*
X158948666Y-109551207D01*
X158954396Y-109630248D01*
X158954583Y-109718371D01*
X158949539Y-109807764D01*
X158939578Y-109890616D01*
X158925012Y-109959113D01*
X158915364Y-109989965D01*
X158885123Y-110067270D01*
X158847617Y-110144321D01*
X158806614Y-110213800D01*
X158765879Y-110268385D01*
X158746505Y-110291084D01*
X158728662Y-110313799D01*
X158721778Y-110325221D01*
X158723424Y-110326463D01*
X158741205Y-110329272D01*
X158774370Y-110331224D01*
X158817733Y-110331955D01*
X158913689Y-110331955D01*
X158913689Y-111190104D01*
X158852974Y-111155839D01*
X158843868Y-111150645D01*
X158829249Y-111142285D01*
X158815173Y-111134712D01*
X158800540Y-111127888D01*
X158784249Y-111121773D01*
X158765198Y-111116327D01*
X158742286Y-111111513D01*
X158714413Y-111107292D01*
X158680478Y-111103623D01*
X158639379Y-111100469D01*
X158590015Y-111097789D01*
X158531286Y-111095546D01*
X158462090Y-111093701D01*
X158381326Y-111092213D01*
X158287894Y-111091045D01*
X158180692Y-111090156D01*
X158058620Y-111089509D01*
X157920576Y-111089064D01*
X157765459Y-111088782D01*
X157592168Y-111088625D01*
X157399603Y-111088552D01*
X157186662Y-111088526D01*
X156952245Y-111088507D01*
X155267378Y-111088311D01*
X155267378Y-110182983D01*
X155304067Y-110207415D01*
X155313647Y-110213682D01*
X155359981Y-110239792D01*
X155407102Y-110257531D01*
X155462251Y-110269092D01*
X155532667Y-110276669D01*
X155539650Y-110277161D01*
X155577641Y-110278938D01*
X155631576Y-110280556D01*
X155698703Y-110282001D01*
X155776271Y-110283260D01*
X155861528Y-110284320D01*
X155951724Y-110285171D01*
X156044107Y-110285797D01*
X156135925Y-110286188D01*
X156224427Y-110286330D01*
X156306862Y-110286210D01*
X156380479Y-110285817D01*
X156442526Y-110285138D01*
X156490251Y-110284159D01*
X156520904Y-110282868D01*
X156531733Y-110281253D01*
X156527333Y-110273043D01*
X156512362Y-110251353D01*
X156490448Y-110221986D01*
X156456236Y-110173121D01*
X156409714Y-110084875D01*
X156376046Y-109986084D01*
X156373231Y-109971557D01*
X156927465Y-109971557D01*
X156939389Y-110056681D01*
X156966040Y-110140867D01*
X157006962Y-110219392D01*
X157050530Y-110286800D01*
X158200721Y-110286800D01*
X158247089Y-110216244D01*
X158270791Y-110175583D01*
X158296639Y-110121454D01*
X158314829Y-110072311D01*
X158330551Y-110008835D01*
X158341541Y-109912669D01*
X158333365Y-109828100D01*
X158305805Y-109754781D01*
X158258642Y-109692363D01*
X158191658Y-109640498D01*
X158104633Y-109598840D01*
X157997350Y-109567038D01*
X157985009Y-109564455D01*
X157923772Y-109556000D01*
X157846692Y-109550337D01*
X157759002Y-109547424D01*
X157665934Y-109547217D01*
X157572720Y-109549670D01*
X157484594Y-109554739D01*
X157406788Y-109562381D01*
X157344533Y-109572552D01*
X157338666Y-109573833D01*
X157228121Y-109602874D01*
X157137575Y-109637390D01*
X157064953Y-109678544D01*
X157008181Y-109727501D01*
X156965184Y-109785426D01*
X156949615Y-109817380D01*
X156930722Y-109890216D01*
X156927465Y-109971557D01*
X156373231Y-109971557D01*
X156354231Y-109873490D01*
X156343265Y-109743836D01*
X156342219Y-109651330D01*
X156352014Y-109529989D01*
X156376174Y-109419901D01*
X156415785Y-109316611D01*
X156471932Y-109215662D01*
X156502883Y-109170497D01*
X156594115Y-109065089D01*
X156703106Y-108973462D01*
X156829726Y-108895668D01*
X156973845Y-108831759D01*
X157135332Y-108781786D01*
X157314059Y-108745802D01*
X157509895Y-108723857D01*
X157665934Y-108718100D01*
X157722711Y-108716006D01*
X157800158Y-108716732D01*
G36*
X157800158Y-108716732D02*
G01*
X157951594Y-108725311D01*
X158088283Y-108744167D01*
X158214276Y-108774163D01*
X158333625Y-108816164D01*
X158450381Y-108871031D01*
X158561179Y-108937833D01*
X158674739Y-109028637D01*
X158770211Y-109132292D01*
X158847073Y-109248113D01*
X158904797Y-109375414D01*
X158942858Y-109513511D01*
X158948666Y-109551207D01*
X158954396Y-109630248D01*
X158954583Y-109718371D01*
X158949539Y-109807764D01*
X158939578Y-109890616D01*
X158925012Y-109959113D01*
X158915364Y-109989965D01*
X158885123Y-110067270D01*
X158847617Y-110144321D01*
X158806614Y-110213800D01*
X158765879Y-110268385D01*
X158746505Y-110291084D01*
X158728662Y-110313799D01*
X158721778Y-110325221D01*
X158723424Y-110326463D01*
X158741205Y-110329272D01*
X158774370Y-110331224D01*
X158817733Y-110331955D01*
X158913689Y-110331955D01*
X158913689Y-111190104D01*
X158852974Y-111155839D01*
X158843868Y-111150645D01*
X158829249Y-111142285D01*
X158815173Y-111134712D01*
X158800540Y-111127888D01*
X158784249Y-111121773D01*
X158765198Y-111116327D01*
X158742286Y-111111513D01*
X158714413Y-111107292D01*
X158680478Y-111103623D01*
X158639379Y-111100469D01*
X158590015Y-111097789D01*
X158531286Y-111095546D01*
X158462090Y-111093701D01*
X158381326Y-111092213D01*
X158287894Y-111091045D01*
X158180692Y-111090156D01*
X158058620Y-111089509D01*
X157920576Y-111089064D01*
X157765459Y-111088782D01*
X157592168Y-111088625D01*
X157399603Y-111088552D01*
X157186662Y-111088526D01*
X156952245Y-111088507D01*
X155267378Y-111088311D01*
X155267378Y-110182983D01*
X155304067Y-110207415D01*
X155313647Y-110213682D01*
X155359981Y-110239792D01*
X155407102Y-110257531D01*
X155462251Y-110269092D01*
X155532667Y-110276669D01*
X155539650Y-110277161D01*
X155577641Y-110278938D01*
X155631576Y-110280556D01*
X155698703Y-110282001D01*
X155776271Y-110283260D01*
X155861528Y-110284320D01*
X155951724Y-110285171D01*
X156044107Y-110285797D01*
X156135925Y-110286188D01*
X156224427Y-110286330D01*
X156306862Y-110286210D01*
X156380479Y-110285817D01*
X156442526Y-110285138D01*
X156490251Y-110284159D01*
X156520904Y-110282868D01*
X156531733Y-110281253D01*
X156527333Y-110273043D01*
X156512362Y-110251353D01*
X156490448Y-110221986D01*
X156456236Y-110173121D01*
X156409714Y-110084875D01*
X156376046Y-109986084D01*
X156373231Y-109971557D01*
X156927465Y-109971557D01*
X156939389Y-110056681D01*
X156966040Y-110140867D01*
X157006962Y-110219392D01*
X157050530Y-110286800D01*
X158200721Y-110286800D01*
X158247089Y-110216244D01*
X158270791Y-110175583D01*
X158296639Y-110121454D01*
X158314829Y-110072311D01*
X158330551Y-110008835D01*
X158341541Y-109912669D01*
X158333365Y-109828100D01*
X158305805Y-109754781D01*
X158258642Y-109692363D01*
X158191658Y-109640498D01*
X158104633Y-109598840D01*
X157997350Y-109567038D01*
X157985009Y-109564455D01*
X157923772Y-109556000D01*
X157846692Y-109550337D01*
X157759002Y-109547424D01*
X157665934Y-109547217D01*
X157572720Y-109549670D01*
X157484594Y-109554739D01*
X157406788Y-109562381D01*
X157344533Y-109572552D01*
X157338666Y-109573833D01*
X157228121Y-109602874D01*
X157137575Y-109637390D01*
X157064953Y-109678544D01*
X157008181Y-109727501D01*
X156965184Y-109785426D01*
X156949615Y-109817380D01*
X156930722Y-109890216D01*
X156927465Y-109971557D01*
X156373231Y-109971557D01*
X156354231Y-109873490D01*
X156343265Y-109743836D01*
X156342219Y-109651330D01*
X156352014Y-109529989D01*
X156376174Y-109419901D01*
X156415785Y-109316611D01*
X156471932Y-109215662D01*
X156502883Y-109170497D01*
X156594115Y-109065089D01*
X156703106Y-108973462D01*
X156829726Y-108895668D01*
X156973845Y-108831759D01*
X157135332Y-108781786D01*
X157314059Y-108745802D01*
X157509895Y-108723857D01*
X157665934Y-108718100D01*
X157722711Y-108716006D01*
X157800158Y-108716732D01*
G37*
X158157363Y-106174739D02*
X158232202Y-106178368D01*
X158294401Y-106185978D01*
X158350984Y-106198312D01*
X158477076Y-106242687D01*
X158591679Y-106305600D01*
X158692568Y-106385762D01*
X158778924Y-106482260D01*
X158849932Y-106594178D01*
X158904776Y-106720603D01*
X158942638Y-106860622D01*
X158948351Y-106896851D01*
X158954313Y-106975845D01*
X158954646Y-107064159D01*
X158949659Y-107153925D01*
X158939666Y-107237278D01*
X158924978Y-107306349D01*
X158894749Y-107392813D01*
X158840057Y-107502714D01*
X158772543Y-107600044D01*
X158721556Y-107662133D01*
X158817622Y-107665395D01*
X158913689Y-107668657D01*
X158913689Y-108091550D01*
X158913686Y-108102457D01*
X158913380Y-108196944D01*
X158912616Y-108283669D01*
X158911451Y-108360163D01*
X158909942Y-108423957D01*
X158908147Y-108472582D01*
X158906121Y-108503567D01*
X158903922Y-108514444D01*
X158903463Y-108514422D01*
X158887910Y-108507386D01*
X158865071Y-108491566D01*
X158859638Y-108487266D01*
X158845606Y-108476223D01*
X158832186Y-108466689D01*
X158817722Y-108458539D01*
X158800556Y-108451648D01*
X158779034Y-108445889D01*
X158751498Y-108441138D01*
X158716292Y-108437269D01*
X158671760Y-108434156D01*
X158616246Y-108431675D01*
X158548093Y-108429700D01*
X158465645Y-108428106D01*
X158367246Y-108426766D01*
X158251239Y-108425556D01*
X158115968Y-108424351D01*
X157959778Y-108423025D01*
X157817012Y-108421772D01*
X157671942Y-108420349D01*
X157546027Y-108418824D01*
X157437436Y-108417067D01*
X157344334Y-108414949D01*
X157264891Y-108412340D01*
X157197273Y-108409110D01*
X157139649Y-108405131D01*
X157090185Y-108400272D01*
X157047050Y-108394403D01*
X157008410Y-108387396D01*
X156972434Y-108379120D01*
X156937289Y-108369446D01*
X156901142Y-108358244D01*
X156862161Y-108345384D01*
X156819091Y-108329910D01*
X156726871Y-108287006D01*
X156647099Y-108233265D01*
X156572965Y-108164424D01*
X156509405Y-108086815D01*
X156447725Y-107982239D01*
X156400202Y-107862756D01*
X156366567Y-107727492D01*
X156346552Y-107575574D01*
X156339889Y-107406128D01*
X156340287Y-107348110D01*
X156342335Y-107282602D01*
X156346704Y-107221307D01*
X156354035Y-107159903D01*
X156364969Y-107094068D01*
X156380147Y-107019480D01*
X156400209Y-106931816D01*
X156425797Y-106826755D01*
X156432820Y-106798194D01*
X156450776Y-106722946D01*
X156466820Y-106652612D01*
X156480028Y-106591433D01*
X156489474Y-106543646D01*
X156494231Y-106513489D01*
X156497910Y-106485217D01*
X156503187Y-106458940D01*
X156507942Y-106448941D01*
X156516781Y-106452048D01*
X156544072Y-106462806D01*
X156586906Y-106480136D01*
X156642425Y-106502874D01*
X156707772Y-106529853D01*
X156780089Y-106559910D01*
X156795879Y-106566507D01*
X156886484Y-106605093D01*
X156956217Y-106636232D01*
X157005405Y-106660083D01*
X157034374Y-106676802D01*
X157043452Y-106686546D01*
X157041405Y-106694234D01*
X157031760Y-106720585D01*
X157016190Y-106759018D01*
X156996815Y-106804178D01*
X156958814Y-106898707D01*
X156917780Y-107035520D01*
X156892612Y-107176711D01*
X156888611Y-107214686D01*
X156886447Y-107317941D01*
X156899622Y-107405048D01*
X156928756Y-107476871D01*
X156974466Y-107534269D01*
X157037372Y-107578104D01*
X157118092Y-107609238D01*
X157217245Y-107628530D01*
X157276224Y-107635950D01*
X157269445Y-107474064D01*
X157269110Y-107448106D01*
X157791842Y-107448106D01*
X157791857Y-107456993D01*
X157792655Y-107512340D01*
X157794488Y-107559264D01*
X157797111Y-107593047D01*
X157800274Y-107608972D01*
X157806741Y-107613057D01*
X157828875Y-107617428D01*
X157867988Y-107620396D01*
X157925939Y-107622086D01*
X158004586Y-107622622D01*
X158200462Y-107622622D01*
X158256973Y-107577952D01*
X158272212Y-107565215D01*
X158314844Y-107518396D01*
X158350672Y-107457745D01*
X158355850Y-107447103D01*
X158372745Y-107408324D01*
X158382909Y-107373308D01*
X158388325Y-107333278D01*
X158390978Y-107279459D01*
X158391383Y-107261352D01*
X158388540Y-107185989D01*
X158376620Y-107125257D01*
X158354037Y-107073548D01*
X158319211Y-107025254D01*
X158314798Y-107020197D01*
X158259160Y-106971728D01*
X158195333Y-106943541D01*
X158120282Y-106934248D01*
X158048693Y-106941480D01*
X157985645Y-106966204D01*
X157927758Y-107010751D01*
X157880808Y-107065681D01*
X157840961Y-107138106D01*
X157813263Y-107224660D01*
X157797096Y-107327330D01*
X157791842Y-107448106D01*
X157269110Y-107448106D01*
X157267813Y-107347505D01*
X157274194Y-107196049D01*
X157288777Y-107047604D01*
X157310882Y-106911422D01*
X157325821Y-106846755D01*
X157368741Y-106714510D01*
X157425340Y-106592238D01*
X157494017Y-106482315D01*
X157573170Y-106387117D01*
X157661196Y-106309020D01*
X157756493Y-106250401D01*
X157808864Y-106226405D01*
X157879590Y-106200768D01*
X157950812Y-106184522D01*
X158029712Y-106176178D01*
X158120282Y-106174310D01*
X158123467Y-106174245D01*
X158157363Y-106174739D01*
G36*
X158157363Y-106174739D02*
G01*
X158232202Y-106178368D01*
X158294401Y-106185978D01*
X158350984Y-106198312D01*
X158477076Y-106242687D01*
X158591679Y-106305600D01*
X158692568Y-106385762D01*
X158778924Y-106482260D01*
X158849932Y-106594178D01*
X158904776Y-106720603D01*
X158942638Y-106860622D01*
X158948351Y-106896851D01*
X158954313Y-106975845D01*
X158954646Y-107064159D01*
X158949659Y-107153925D01*
X158939666Y-107237278D01*
X158924978Y-107306349D01*
X158894749Y-107392813D01*
X158840057Y-107502714D01*
X158772543Y-107600044D01*
X158721556Y-107662133D01*
X158817622Y-107665395D01*
X158913689Y-107668657D01*
X158913689Y-108091550D01*
X158913686Y-108102457D01*
X158913380Y-108196944D01*
X158912616Y-108283669D01*
X158911451Y-108360163D01*
X158909942Y-108423957D01*
X158908147Y-108472582D01*
X158906121Y-108503567D01*
X158903922Y-108514444D01*
X158903463Y-108514422D01*
X158887910Y-108507386D01*
X158865071Y-108491566D01*
X158859638Y-108487266D01*
X158845606Y-108476223D01*
X158832186Y-108466689D01*
X158817722Y-108458539D01*
X158800556Y-108451648D01*
X158779034Y-108445889D01*
X158751498Y-108441138D01*
X158716292Y-108437269D01*
X158671760Y-108434156D01*
X158616246Y-108431675D01*
X158548093Y-108429700D01*
X158465645Y-108428106D01*
X158367246Y-108426766D01*
X158251239Y-108425556D01*
X158115968Y-108424351D01*
X157959778Y-108423025D01*
X157817012Y-108421772D01*
X157671942Y-108420349D01*
X157546027Y-108418824D01*
X157437436Y-108417067D01*
X157344334Y-108414949D01*
X157264891Y-108412340D01*
X157197273Y-108409110D01*
X157139649Y-108405131D01*
X157090185Y-108400272D01*
X157047050Y-108394403D01*
X157008410Y-108387396D01*
X156972434Y-108379120D01*
X156937289Y-108369446D01*
X156901142Y-108358244D01*
X156862161Y-108345384D01*
X156819091Y-108329910D01*
X156726871Y-108287006D01*
X156647099Y-108233265D01*
X156572965Y-108164424D01*
X156509405Y-108086815D01*
X156447725Y-107982239D01*
X156400202Y-107862756D01*
X156366567Y-107727492D01*
X156346552Y-107575574D01*
X156339889Y-107406128D01*
X156340287Y-107348110D01*
X156342335Y-107282602D01*
X156346704Y-107221307D01*
X156354035Y-107159903D01*
X156364969Y-107094068D01*
X156380147Y-107019480D01*
X156400209Y-106931816D01*
X156425797Y-106826755D01*
X156432820Y-106798194D01*
X156450776Y-106722946D01*
X156466820Y-106652612D01*
X156480028Y-106591433D01*
X156489474Y-106543646D01*
X156494231Y-106513489D01*
X156497910Y-106485217D01*
X156503187Y-106458940D01*
X156507942Y-106448941D01*
X156516781Y-106452048D01*
X156544072Y-106462806D01*
X156586906Y-106480136D01*
X156642425Y-106502874D01*
X156707772Y-106529853D01*
X156780089Y-106559910D01*
X156795879Y-106566507D01*
X156886484Y-106605093D01*
X156956217Y-106636232D01*
X157005405Y-106660083D01*
X157034374Y-106676802D01*
X157043452Y-106686546D01*
X157041405Y-106694234D01*
X157031760Y-106720585D01*
X157016190Y-106759018D01*
X156996815Y-106804178D01*
X156958814Y-106898707D01*
X156917780Y-107035520D01*
X156892612Y-107176711D01*
X156888611Y-107214686D01*
X156886447Y-107317941D01*
X156899622Y-107405048D01*
X156928756Y-107476871D01*
X156974466Y-107534269D01*
X157037372Y-107578104D01*
X157118092Y-107609238D01*
X157217245Y-107628530D01*
X157276224Y-107635950D01*
X157269445Y-107474064D01*
X157269110Y-107448106D01*
X157791842Y-107448106D01*
X157791857Y-107456993D01*
X157792655Y-107512340D01*
X157794488Y-107559264D01*
X157797111Y-107593047D01*
X157800274Y-107608972D01*
X157806741Y-107613057D01*
X157828875Y-107617428D01*
X157867988Y-107620396D01*
X157925939Y-107622086D01*
X158004586Y-107622622D01*
X158200462Y-107622622D01*
X158256973Y-107577952D01*
X158272212Y-107565215D01*
X158314844Y-107518396D01*
X158350672Y-107457745D01*
X158355850Y-107447103D01*
X158372745Y-107408324D01*
X158382909Y-107373308D01*
X158388325Y-107333278D01*
X158390978Y-107279459D01*
X158391383Y-107261352D01*
X158388540Y-107185989D01*
X158376620Y-107125257D01*
X158354037Y-107073548D01*
X158319211Y-107025254D01*
X158314798Y-107020197D01*
X158259160Y-106971728D01*
X158195333Y-106943541D01*
X158120282Y-106934248D01*
X158048693Y-106941480D01*
X157985645Y-106966204D01*
X157927758Y-107010751D01*
X157880808Y-107065681D01*
X157840961Y-107138106D01*
X157813263Y-107224660D01*
X157797096Y-107327330D01*
X157791842Y-107448106D01*
X157269110Y-107448106D01*
X157267813Y-107347505D01*
X157274194Y-107196049D01*
X157288777Y-107047604D01*
X157310882Y-106911422D01*
X157325821Y-106846755D01*
X157368741Y-106714510D01*
X157425340Y-106592238D01*
X157494017Y-106482315D01*
X157573170Y-106387117D01*
X157661196Y-106309020D01*
X157756493Y-106250401D01*
X157808864Y-106226405D01*
X157879590Y-106200768D01*
X157950812Y-106184522D01*
X158029712Y-106176178D01*
X158120282Y-106174310D01*
X158123467Y-106174245D01*
X158157363Y-106174739D01*
G37*
X158101295Y-98625313D02*
X158281535Y-98625407D01*
X158444015Y-98625605D01*
X158589670Y-98625937D01*
X158719434Y-98626431D01*
X158834243Y-98627117D01*
X158935030Y-98628024D01*
X159022730Y-98629183D01*
X159098279Y-98630622D01*
X159162611Y-98632371D01*
X159216661Y-98634460D01*
X159261363Y-98636917D01*
X159297652Y-98639773D01*
X159326463Y-98643057D01*
X159348731Y-98646798D01*
X159365390Y-98651026D01*
X159377375Y-98655771D01*
X159385621Y-98661061D01*
X159391062Y-98666927D01*
X159394634Y-98673398D01*
X159397270Y-98680503D01*
X159399906Y-98688272D01*
X159403477Y-98696734D01*
X159405145Y-98701092D01*
X159407111Y-98709605D01*
X159408911Y-98722306D01*
X159410555Y-98740115D01*
X159412047Y-98763951D01*
X159413397Y-98794734D01*
X159414611Y-98833383D01*
X159415697Y-98880818D01*
X159416661Y-98937957D01*
X159417511Y-99005721D01*
X159418253Y-99085029D01*
X159418897Y-99176801D01*
X159419447Y-99281956D01*
X159419913Y-99401413D01*
X159420300Y-99536092D01*
X159420616Y-99686912D01*
X159420869Y-99854794D01*
X159421066Y-100040655D01*
X159421213Y-100245417D01*
X159421318Y-100469998D01*
X159421389Y-100715318D01*
X159421432Y-100982296D01*
X159421437Y-101020679D01*
X159421480Y-101286078D01*
X159421525Y-101529950D01*
X159421548Y-101753217D01*
X159421524Y-101956804D01*
X159421430Y-102141633D01*
X159421243Y-102308627D01*
X159420939Y-102458710D01*
X159420494Y-102592804D01*
X159419885Y-102711834D01*
X159419089Y-102816721D01*
X159418080Y-102908390D01*
X159416837Y-102987763D01*
X159415335Y-103055763D01*
X159413551Y-103113314D01*
X159411461Y-103161338D01*
X159409042Y-103200760D01*
X159406270Y-103232501D01*
X159403121Y-103257486D01*
X159399572Y-103276636D01*
X159395598Y-103290877D01*
X159391178Y-103301129D01*
X159386286Y-103308318D01*
X159380900Y-103313365D01*
X159374996Y-103317195D01*
X159368549Y-103320729D01*
X159361537Y-103324892D01*
X159359687Y-103325975D01*
X159354180Y-103328187D01*
X159345868Y-103330214D01*
X159333809Y-103332062D01*
X159317063Y-103333739D01*
X159294687Y-103335255D01*
X159265740Y-103336617D01*
X159229280Y-103337833D01*
X159184367Y-103338911D01*
X159130057Y-103339860D01*
X159065410Y-103340688D01*
X158989484Y-103341403D01*
X158901338Y-103342013D01*
X158800029Y-103342526D01*
X158684617Y-103342950D01*
X158554160Y-103343294D01*
X158407716Y-103343566D01*
X158244344Y-103343773D01*
X158063101Y-103343924D01*
X157863048Y-103344028D01*
X157643241Y-103344092D01*
X157402739Y-103344124D01*
X157140602Y-103344133D01*
X154949031Y-103344133D01*
X154910649Y-103305751D01*
X154886911Y-103278645D01*
X154875111Y-103251747D01*
X154872267Y-103215440D01*
X154872267Y-103163511D01*
X154960206Y-103163511D01*
X155010102Y-103161573D01*
X155120523Y-103142801D01*
X155221987Y-103105783D01*
X155313152Y-103052631D01*
X155392673Y-102985454D01*
X155459205Y-102906362D01*
X155511406Y-102817466D01*
X155547930Y-102720875D01*
X155567434Y-102618700D01*
X155568561Y-102514147D01*
X156384978Y-102514147D01*
X156384978Y-102959805D01*
X157561845Y-102962880D01*
X158738711Y-102965955D01*
X158797622Y-102992593D01*
X158822183Y-103004515D01*
X158852434Y-103021754D01*
X158869560Y-103034926D01*
X158877591Y-103042924D01*
X158892493Y-103050622D01*
X158893765Y-103046740D01*
X158895791Y-103023480D01*
X158897626Y-102981126D01*
X158899227Y-102921868D01*
X158900549Y-102847893D01*
X158901548Y-102761390D01*
X158902180Y-102664548D01*
X158902400Y-102559555D01*
X158902349Y-102490644D01*
X158902091Y-102392393D01*
X158901637Y-102302970D01*
X158901010Y-102224667D01*
X158900235Y-102159777D01*
X158899335Y-102110589D01*
X158898334Y-102079396D01*
X158897257Y-102068489D01*
X158894037Y-102069678D01*
X158876452Y-102079824D01*
X158850158Y-102096960D01*
X158837691Y-102105460D01*
X158823622Y-102114671D01*
X158809351Y-102122767D01*
X158793479Y-102129815D01*
X158774609Y-102135883D01*
X158751341Y-102141039D01*
X158722278Y-102145349D01*
X158686021Y-102148881D01*
X158641170Y-102151703D01*
X158586328Y-102153882D01*
X158520097Y-102155486D01*
X158441077Y-102156581D01*
X158347871Y-102157235D01*
X158239079Y-102157516D01*
X158113303Y-102157491D01*
X157969145Y-102157228D01*
X157805207Y-102156794D01*
X157620089Y-102156255D01*
X157441232Y-102155721D01*
X157282374Y-102155195D01*
X157143316Y-102154650D01*
X157022665Y-102154055D01*
X156919028Y-102153381D01*
X156831011Y-102152597D01*
X156757223Y-102151674D01*
X156696269Y-102150581D01*
X156646757Y-102149288D01*
X156607293Y-102147765D01*
X156576484Y-102145981D01*
X156552938Y-102143908D01*
X156535260Y-102141514D01*
X156522059Y-102138770D01*
X156511940Y-102135644D01*
X156503511Y-102132108D01*
X156495375Y-102128209D01*
X156458544Y-102108562D01*
X156428391Y-102089775D01*
X156426908Y-102088728D01*
X156404659Y-102074398D01*
X156391702Y-102068489D01*
X156391249Y-102069496D01*
X156389803Y-102086695D01*
X156388480Y-102123344D01*
X156387316Y-102177038D01*
X156386347Y-102245370D01*
X156385611Y-102325936D01*
X156385142Y-102416330D01*
X156384978Y-102514147D01*
X155568561Y-102514147D01*
X155568573Y-102513050D01*
X155550005Y-102406036D01*
X155510384Y-102299768D01*
X155452516Y-102202781D01*
X155377684Y-102117707D01*
X155289615Y-102048985D01*
X155190616Y-101998082D01*
X155082993Y-101966465D01*
X154969054Y-101955600D01*
X154872267Y-101955600D01*
X154872267Y-100335247D01*
X154872280Y-100124103D01*
X154872313Y-99989686D01*
X155481867Y-99989686D01*
X155544966Y-99951689D01*
X155570005Y-99937007D01*
X155597586Y-99922469D01*
X155625700Y-99910373D01*
X155656551Y-99900468D01*
X155692344Y-99892506D01*
X155735283Y-99886239D01*
X155787574Y-99881418D01*
X155851419Y-99877794D01*
X155929025Y-99875119D01*
X156022594Y-99873143D01*
X156134333Y-99871618D01*
X156266445Y-99870296D01*
X156386434Y-99869387D01*
X156503063Y-99868980D01*
X156598531Y-99869233D01*
X156672556Y-99870143D01*
X156724855Y-99871707D01*
X156755149Y-99873921D01*
X156763156Y-99876780D01*
X156759858Y-99879839D01*
X156738408Y-99897994D01*
X156701889Y-99927725D01*
X156652442Y-99967361D01*
X156592207Y-100015229D01*
X156523327Y-100069657D01*
X156447943Y-100128973D01*
X156368196Y-100191505D01*
X156286228Y-100255579D01*
X156204180Y-100319525D01*
X156124194Y-100381669D01*
X156048411Y-100440339D01*
X155978973Y-100493863D01*
X155918021Y-100540570D01*
X155867696Y-100578786D01*
X155830140Y-100606839D01*
X155807495Y-100623057D01*
X155735212Y-100668365D01*
X155655463Y-100708339D01*
X155587188Y-100729870D01*
X155529844Y-100733173D01*
X155481867Y-100727884D01*
X155482117Y-101859644D01*
X155512722Y-101820133D01*
X155520089Y-101810752D01*
X155574438Y-101747817D01*
X155642259Y-101679003D01*
X155725516Y-101602404D01*
X155826178Y-101516112D01*
X155846847Y-101498948D01*
X155896409Y-101458167D01*
X155957326Y-101408412D01*
X156027898Y-101351045D01*
X156106424Y-101287431D01*
X156191204Y-101218931D01*
X156280537Y-101146910D01*
X156372722Y-101072730D01*
X156391702Y-101057483D01*
X156466060Y-100997754D01*
X156558848Y-100923347D01*
X156649388Y-100850869D01*
X156735978Y-100781686D01*
X156816918Y-100717159D01*
X156890506Y-100658653D01*
X156955044Y-100607530D01*
X157008829Y-100565153D01*
X157050162Y-100532885D01*
X157077342Y-100512090D01*
X157088668Y-100504131D01*
X157092771Y-100505889D01*
X157113334Y-100518770D01*
X157149561Y-100543115D01*
X157199824Y-100577753D01*
X157262492Y-100621514D01*
X157335936Y-100673225D01*
X157418527Y-100731716D01*
X157508636Y-100795816D01*
X157604631Y-100864354D01*
X157704885Y-100936157D01*
X157807768Y-101010056D01*
X157911650Y-101084879D01*
X158014901Y-101159455D01*
X158115892Y-101232613D01*
X158212994Y-101303181D01*
X158304577Y-101369989D01*
X158389011Y-101431865D01*
X158464667Y-101487639D01*
X158529916Y-101536138D01*
X158583128Y-101576193D01*
X158622673Y-101606631D01*
X158648026Y-101627056D01*
X158702295Y-101673101D01*
X158758775Y-101723388D01*
X158808669Y-101770185D01*
X158902400Y-101861349D01*
X158902400Y-100706910D01*
X158826200Y-100707544D01*
X158784160Y-100706426D01*
X158748334Y-100700696D01*
X158710772Y-100688110D01*
X158662577Y-100666432D01*
X158655897Y-100663211D01*
X158606359Y-100637812D01*
X158558369Y-100611004D01*
X158521466Y-100588083D01*
X158514834Y-100583515D01*
X158483593Y-100561484D01*
X158438654Y-100529307D01*
X158382147Y-100488543D01*
X158316204Y-100440755D01*
X158242957Y-100387502D01*
X158164536Y-100330345D01*
X158083072Y-100270845D01*
X158000698Y-100210563D01*
X157919544Y-100151060D01*
X157841742Y-100093895D01*
X157769423Y-100040630D01*
X157704718Y-99992826D01*
X157649759Y-99952043D01*
X157606676Y-99919842D01*
X157577602Y-99897784D01*
X157564667Y-99887429D01*
X157560351Y-99882956D01*
X157558312Y-99878764D01*
X157560926Y-99875357D01*
X157569986Y-99872675D01*
X157587285Y-99870659D01*
X157614614Y-99869252D01*
X157653765Y-99868395D01*
X157706533Y-99868030D01*
X157774707Y-99868097D01*
X157860082Y-99868540D01*
X157964449Y-99869298D01*
X158089600Y-99870315D01*
X158134300Y-99870692D01*
X158255395Y-99871831D01*
X158356688Y-99873028D01*
X158440262Y-99874364D01*
X158508204Y-99875923D01*
X158562599Y-99877785D01*
X158605532Y-99880034D01*
X158639089Y-99882752D01*
X158665355Y-99886021D01*
X158686416Y-99889922D01*
X158704357Y-99894539D01*
X158730770Y-99902808D01*
X158792772Y-99926417D01*
X158845573Y-99952315D01*
X158882645Y-99977465D01*
X158884075Y-99978661D01*
X158888424Y-99980832D01*
X158892026Y-99978672D01*
X158894951Y-99970356D01*
X158897269Y-99954060D01*
X158899051Y-99927959D01*
X158900367Y-99890229D01*
X158901286Y-99839044D01*
X158901878Y-99772580D01*
X158902215Y-99689013D01*
X158902365Y-99586517D01*
X158902400Y-99463268D01*
X158902400Y-98931704D01*
X158844783Y-98970477D01*
X158835893Y-98976568D01*
X158821069Y-98987024D01*
X158807422Y-98996421D01*
X158793765Y-99004817D01*
X158778911Y-99012267D01*
X158761670Y-99018827D01*
X158740855Y-99024554D01*
X158715280Y-99029505D01*
X158683755Y-99033734D01*
X158645093Y-99037299D01*
X158598107Y-99040256D01*
X158541608Y-99042660D01*
X158474409Y-99044569D01*
X158395322Y-99046038D01*
X158303160Y-99047124D01*
X158196734Y-99047882D01*
X158074857Y-99048370D01*
X157936341Y-99048642D01*
X157779999Y-99048757D01*
X157604642Y-99048769D01*
X157409082Y-99048735D01*
X157192133Y-99048711D01*
X157069513Y-99048720D01*
X156864447Y-99048757D01*
X156680116Y-99048773D01*
X156515334Y-99048712D01*
X156368916Y-99048516D01*
X156239674Y-99048130D01*
X156126422Y-99047495D01*
X156027975Y-99046556D01*
X155943144Y-99045255D01*
X155870744Y-99043536D01*
X155809589Y-99041341D01*
X155758492Y-99038615D01*
X155716267Y-99035299D01*
X155681727Y-99031338D01*
X155653686Y-99026675D01*
X155630958Y-99021253D01*
X155612356Y-99015014D01*
X155596693Y-99007903D01*
X155582784Y-98999862D01*
X155569441Y-98990834D01*
X155555479Y-98980764D01*
X155539711Y-98969593D01*
X155481867Y-98929803D01*
X155481867Y-99989686D01*
X154872313Y-99989686D01*
X154872330Y-99919980D01*
X154872430Y-99736314D01*
X154872592Y-99572009D01*
X154872829Y-99425971D01*
X154873153Y-99297106D01*
X154873575Y-99184317D01*
X154874109Y-99086512D01*
X154874767Y-99002596D01*
X154875561Y-98931473D01*
X154876504Y-98872050D01*
X154877608Y-98823232D01*
X154878884Y-98783923D01*
X154880347Y-98753031D01*
X154882007Y-98729459D01*
X154883878Y-98712114D01*
X154885972Y-98699901D01*
X154888300Y-98691725D01*
X154890876Y-98686492D01*
X154894445Y-98680496D01*
X154897978Y-98673721D01*
X154901488Y-98667522D01*
X154905918Y-98661874D01*
X154912208Y-98656753D01*
X154921301Y-98652131D01*
X154934139Y-98647985D01*
X154951662Y-98644287D01*
X154974813Y-98641013D01*
X155004534Y-98638137D01*
X155041765Y-98635633D01*
X155087449Y-98633476D01*
X155142527Y-98631640D01*
X155207941Y-98630100D01*
X155284633Y-98628830D01*
X155373544Y-98627805D01*
X155475617Y-98626999D01*
X155481867Y-98626966D01*
X155591792Y-98626386D01*
X155723011Y-98625941D01*
X155870216Y-98625638D01*
X156034349Y-98625452D01*
X156216352Y-98625358D01*
X156417165Y-98625329D01*
X156637732Y-98625339D01*
X156878992Y-98625364D01*
X157141889Y-98625378D01*
X157184040Y-98625378D01*
X157444668Y-98625354D01*
X157683796Y-98625315D01*
X157902360Y-98625292D01*
X158101295Y-98625313D01*
G36*
X158101295Y-98625313D02*
G01*
X158281535Y-98625407D01*
X158444015Y-98625605D01*
X158589670Y-98625937D01*
X158719434Y-98626431D01*
X158834243Y-98627117D01*
X158935030Y-98628024D01*
X159022730Y-98629183D01*
X159098279Y-98630622D01*
X159162611Y-98632371D01*
X159216661Y-98634460D01*
X159261363Y-98636917D01*
X159297652Y-98639773D01*
X159326463Y-98643057D01*
X159348731Y-98646798D01*
X159365390Y-98651026D01*
X159377375Y-98655771D01*
X159385621Y-98661061D01*
X159391062Y-98666927D01*
X159394634Y-98673398D01*
X159397270Y-98680503D01*
X159399906Y-98688272D01*
X159403477Y-98696734D01*
X159405145Y-98701092D01*
X159407111Y-98709605D01*
X159408911Y-98722306D01*
X159410555Y-98740115D01*
X159412047Y-98763951D01*
X159413397Y-98794734D01*
X159414611Y-98833383D01*
X159415697Y-98880818D01*
X159416661Y-98937957D01*
X159417511Y-99005721D01*
X159418253Y-99085029D01*
X159418897Y-99176801D01*
X159419447Y-99281956D01*
X159419913Y-99401413D01*
X159420300Y-99536092D01*
X159420616Y-99686912D01*
X159420869Y-99854794D01*
X159421066Y-100040655D01*
X159421213Y-100245417D01*
X159421318Y-100469998D01*
X159421389Y-100715318D01*
X159421432Y-100982296D01*
X159421437Y-101020679D01*
X159421480Y-101286078D01*
X159421525Y-101529950D01*
X159421548Y-101753217D01*
X159421524Y-101956804D01*
X159421430Y-102141633D01*
X159421243Y-102308627D01*
X159420939Y-102458710D01*
X159420494Y-102592804D01*
X159419885Y-102711834D01*
X159419089Y-102816721D01*
X159418080Y-102908390D01*
X159416837Y-102987763D01*
X159415335Y-103055763D01*
X159413551Y-103113314D01*
X159411461Y-103161338D01*
X159409042Y-103200760D01*
X159406270Y-103232501D01*
X159403121Y-103257486D01*
X159399572Y-103276636D01*
X159395598Y-103290877D01*
X159391178Y-103301129D01*
X159386286Y-103308318D01*
X159380900Y-103313365D01*
X159374996Y-103317195D01*
X159368549Y-103320729D01*
X159361537Y-103324892D01*
X159359687Y-103325975D01*
X159354180Y-103328187D01*
X159345868Y-103330214D01*
X159333809Y-103332062D01*
X159317063Y-103333739D01*
X159294687Y-103335255D01*
X159265740Y-103336617D01*
X159229280Y-103337833D01*
X159184367Y-103338911D01*
X159130057Y-103339860D01*
X159065410Y-103340688D01*
X158989484Y-103341403D01*
X158901338Y-103342013D01*
X158800029Y-103342526D01*
X158684617Y-103342950D01*
X158554160Y-103343294D01*
X158407716Y-103343566D01*
X158244344Y-103343773D01*
X158063101Y-103343924D01*
X157863048Y-103344028D01*
X157643241Y-103344092D01*
X157402739Y-103344124D01*
X157140602Y-103344133D01*
X154949031Y-103344133D01*
X154910649Y-103305751D01*
X154886911Y-103278645D01*
X154875111Y-103251747D01*
X154872267Y-103215440D01*
X154872267Y-103163511D01*
X154960206Y-103163511D01*
X155010102Y-103161573D01*
X155120523Y-103142801D01*
X155221987Y-103105783D01*
X155313152Y-103052631D01*
X155392673Y-102985454D01*
X155459205Y-102906362D01*
X155511406Y-102817466D01*
X155547930Y-102720875D01*
X155567434Y-102618700D01*
X155568561Y-102514147D01*
X156384978Y-102514147D01*
X156384978Y-102959805D01*
X157561845Y-102962880D01*
X158738711Y-102965955D01*
X158797622Y-102992593D01*
X158822183Y-103004515D01*
X158852434Y-103021754D01*
X158869560Y-103034926D01*
X158877591Y-103042924D01*
X158892493Y-103050622D01*
X158893765Y-103046740D01*
X158895791Y-103023480D01*
X158897626Y-102981126D01*
X158899227Y-102921868D01*
X158900549Y-102847893D01*
X158901548Y-102761390D01*
X158902180Y-102664548D01*
X158902400Y-102559555D01*
X158902349Y-102490644D01*
X158902091Y-102392393D01*
X158901637Y-102302970D01*
X158901010Y-102224667D01*
X158900235Y-102159777D01*
X158899335Y-102110589D01*
X158898334Y-102079396D01*
X158897257Y-102068489D01*
X158894037Y-102069678D01*
X158876452Y-102079824D01*
X158850158Y-102096960D01*
X158837691Y-102105460D01*
X158823622Y-102114671D01*
X158809351Y-102122767D01*
X158793479Y-102129815D01*
X158774609Y-102135883D01*
X158751341Y-102141039D01*
X158722278Y-102145349D01*
X158686021Y-102148881D01*
X158641170Y-102151703D01*
X158586328Y-102153882D01*
X158520097Y-102155486D01*
X158441077Y-102156581D01*
X158347871Y-102157235D01*
X158239079Y-102157516D01*
X158113303Y-102157491D01*
X157969145Y-102157228D01*
X157805207Y-102156794D01*
X157620089Y-102156255D01*
X157441232Y-102155721D01*
X157282374Y-102155195D01*
X157143316Y-102154650D01*
X157022665Y-102154055D01*
X156919028Y-102153381D01*
X156831011Y-102152597D01*
X156757223Y-102151674D01*
X156696269Y-102150581D01*
X156646757Y-102149288D01*
X156607293Y-102147765D01*
X156576484Y-102145981D01*
X156552938Y-102143908D01*
X156535260Y-102141514D01*
X156522059Y-102138770D01*
X156511940Y-102135644D01*
X156503511Y-102132108D01*
X156495375Y-102128209D01*
X156458544Y-102108562D01*
X156428391Y-102089775D01*
X156426908Y-102088728D01*
X156404659Y-102074398D01*
X156391702Y-102068489D01*
X156391249Y-102069496D01*
X156389803Y-102086695D01*
X156388480Y-102123344D01*
X156387316Y-102177038D01*
X156386347Y-102245370D01*
X156385611Y-102325936D01*
X156385142Y-102416330D01*
X156384978Y-102514147D01*
X155568561Y-102514147D01*
X155568573Y-102513050D01*
X155550005Y-102406036D01*
X155510384Y-102299768D01*
X155452516Y-102202781D01*
X155377684Y-102117707D01*
X155289615Y-102048985D01*
X155190616Y-101998082D01*
X155082993Y-101966465D01*
X154969054Y-101955600D01*
X154872267Y-101955600D01*
X154872267Y-100335247D01*
X154872280Y-100124103D01*
X154872313Y-99989686D01*
X155481867Y-99989686D01*
X155544966Y-99951689D01*
X155570005Y-99937007D01*
X155597586Y-99922469D01*
X155625700Y-99910373D01*
X155656551Y-99900468D01*
X155692344Y-99892506D01*
X155735283Y-99886239D01*
X155787574Y-99881418D01*
X155851419Y-99877794D01*
X155929025Y-99875119D01*
X156022594Y-99873143D01*
X156134333Y-99871618D01*
X156266445Y-99870296D01*
X156386434Y-99869387D01*
X156503063Y-99868980D01*
X156598531Y-99869233D01*
X156672556Y-99870143D01*
X156724855Y-99871707D01*
X156755149Y-99873921D01*
X156763156Y-99876780D01*
X156759858Y-99879839D01*
X156738408Y-99897994D01*
X156701889Y-99927725D01*
X156652442Y-99967361D01*
X156592207Y-100015229D01*
X156523327Y-100069657D01*
X156447943Y-100128973D01*
X156368196Y-100191505D01*
X156286228Y-100255579D01*
X156204180Y-100319525D01*
X156124194Y-100381669D01*
X156048411Y-100440339D01*
X155978973Y-100493863D01*
X155918021Y-100540570D01*
X155867696Y-100578786D01*
X155830140Y-100606839D01*
X155807495Y-100623057D01*
X155735212Y-100668365D01*
X155655463Y-100708339D01*
X155587188Y-100729870D01*
X155529844Y-100733173D01*
X155481867Y-100727884D01*
X155482117Y-101859644D01*
X155512722Y-101820133D01*
X155520089Y-101810752D01*
X155574438Y-101747817D01*
X155642259Y-101679003D01*
X155725516Y-101602404D01*
X155826178Y-101516112D01*
X155846847Y-101498948D01*
X155896409Y-101458167D01*
X155957326Y-101408412D01*
X156027898Y-101351045D01*
X156106424Y-101287431D01*
X156191204Y-101218931D01*
X156280537Y-101146910D01*
X156372722Y-101072730D01*
X156391702Y-101057483D01*
X156466060Y-100997754D01*
X156558848Y-100923347D01*
X156649388Y-100850869D01*
X156735978Y-100781686D01*
X156816918Y-100717159D01*
X156890506Y-100658653D01*
X156955044Y-100607530D01*
X157008829Y-100565153D01*
X157050162Y-100532885D01*
X157077342Y-100512090D01*
X157088668Y-100504131D01*
X157092771Y-100505889D01*
X157113334Y-100518770D01*
X157149561Y-100543115D01*
X157199824Y-100577753D01*
X157262492Y-100621514D01*
X157335936Y-100673225D01*
X157418527Y-100731716D01*
X157508636Y-100795816D01*
X157604631Y-100864354D01*
X157704885Y-100936157D01*
X157807768Y-101010056D01*
X157911650Y-101084879D01*
X158014901Y-101159455D01*
X158115892Y-101232613D01*
X158212994Y-101303181D01*
X158304577Y-101369989D01*
X158389011Y-101431865D01*
X158464667Y-101487639D01*
X158529916Y-101536138D01*
X158583128Y-101576193D01*
X158622673Y-101606631D01*
X158648026Y-101627056D01*
X158702295Y-101673101D01*
X158758775Y-101723388D01*
X158808669Y-101770185D01*
X158902400Y-101861349D01*
X158902400Y-100706910D01*
X158826200Y-100707544D01*
X158784160Y-100706426D01*
X158748334Y-100700696D01*
X158710772Y-100688110D01*
X158662577Y-100666432D01*
X158655897Y-100663211D01*
X158606359Y-100637812D01*
X158558369Y-100611004D01*
X158521466Y-100588083D01*
X158514834Y-100583515D01*
X158483593Y-100561484D01*
X158438654Y-100529307D01*
X158382147Y-100488543D01*
X158316204Y-100440755D01*
X158242957Y-100387502D01*
X158164536Y-100330345D01*
X158083072Y-100270845D01*
X158000698Y-100210563D01*
X157919544Y-100151060D01*
X157841742Y-100093895D01*
X157769423Y-100040630D01*
X157704718Y-99992826D01*
X157649759Y-99952043D01*
X157606676Y-99919842D01*
X157577602Y-99897784D01*
X157564667Y-99887429D01*
X157560351Y-99882956D01*
X157558312Y-99878764D01*
X157560926Y-99875357D01*
X157569986Y-99872675D01*
X157587285Y-99870659D01*
X157614614Y-99869252D01*
X157653765Y-99868395D01*
X157706533Y-99868030D01*
X157774707Y-99868097D01*
X157860082Y-99868540D01*
X157964449Y-99869298D01*
X158089600Y-99870315D01*
X158134300Y-99870692D01*
X158255395Y-99871831D01*
X158356688Y-99873028D01*
X158440262Y-99874364D01*
X158508204Y-99875923D01*
X158562599Y-99877785D01*
X158605532Y-99880034D01*
X158639089Y-99882752D01*
X158665355Y-99886021D01*
X158686416Y-99889922D01*
X158704357Y-99894539D01*
X158730770Y-99902808D01*
X158792772Y-99926417D01*
X158845573Y-99952315D01*
X158882645Y-99977465D01*
X158884075Y-99978661D01*
X158888424Y-99980832D01*
X158892026Y-99978672D01*
X158894951Y-99970356D01*
X158897269Y-99954060D01*
X158899051Y-99927959D01*
X158900367Y-99890229D01*
X158901286Y-99839044D01*
X158901878Y-99772580D01*
X158902215Y-99689013D01*
X158902365Y-99586517D01*
X158902400Y-99463268D01*
X158902400Y-98931704D01*
X158844783Y-98970477D01*
X158835893Y-98976568D01*
X158821069Y-98987024D01*
X158807422Y-98996421D01*
X158793765Y-99004817D01*
X158778911Y-99012267D01*
X158761670Y-99018827D01*
X158740855Y-99024554D01*
X158715280Y-99029505D01*
X158683755Y-99033734D01*
X158645093Y-99037299D01*
X158598107Y-99040256D01*
X158541608Y-99042660D01*
X158474409Y-99044569D01*
X158395322Y-99046038D01*
X158303160Y-99047124D01*
X158196734Y-99047882D01*
X158074857Y-99048370D01*
X157936341Y-99048642D01*
X157779999Y-99048757D01*
X157604642Y-99048769D01*
X157409082Y-99048735D01*
X157192133Y-99048711D01*
X157069513Y-99048720D01*
X156864447Y-99048757D01*
X156680116Y-99048773D01*
X156515334Y-99048712D01*
X156368916Y-99048516D01*
X156239674Y-99048130D01*
X156126422Y-99047495D01*
X156027975Y-99046556D01*
X155943144Y-99045255D01*
X155870744Y-99043536D01*
X155809589Y-99041341D01*
X155758492Y-99038615D01*
X155716267Y-99035299D01*
X155681727Y-99031338D01*
X155653686Y-99026675D01*
X155630958Y-99021253D01*
X155612356Y-99015014D01*
X155596693Y-99007903D01*
X155582784Y-98999862D01*
X155569441Y-98990834D01*
X155555479Y-98980764D01*
X155539711Y-98969593D01*
X155481867Y-98929803D01*
X155481867Y-99989686D01*
X154872313Y-99989686D01*
X154872330Y-99919980D01*
X154872430Y-99736314D01*
X154872592Y-99572009D01*
X154872829Y-99425971D01*
X154873153Y-99297106D01*
X154873575Y-99184317D01*
X154874109Y-99086512D01*
X154874767Y-99002596D01*
X154875561Y-98931473D01*
X154876504Y-98872050D01*
X154877608Y-98823232D01*
X154878884Y-98783923D01*
X154880347Y-98753031D01*
X154882007Y-98729459D01*
X154883878Y-98712114D01*
X154885972Y-98699901D01*
X154888300Y-98691725D01*
X154890876Y-98686492D01*
X154894445Y-98680496D01*
X154897978Y-98673721D01*
X154901488Y-98667522D01*
X154905918Y-98661874D01*
X154912208Y-98656753D01*
X154921301Y-98652131D01*
X154934139Y-98647985D01*
X154951662Y-98644287D01*
X154974813Y-98641013D01*
X155004534Y-98638137D01*
X155041765Y-98635633D01*
X155087449Y-98633476D01*
X155142527Y-98631640D01*
X155207941Y-98630100D01*
X155284633Y-98628830D01*
X155373544Y-98627805D01*
X155475617Y-98626999D01*
X155481867Y-98626966D01*
X155591792Y-98626386D01*
X155723011Y-98625941D01*
X155870216Y-98625638D01*
X156034349Y-98625452D01*
X156216352Y-98625358D01*
X156417165Y-98625329D01*
X156637732Y-98625339D01*
X156878992Y-98625364D01*
X157141889Y-98625378D01*
X157184040Y-98625378D01*
X157444668Y-98625354D01*
X157683796Y-98625315D01*
X157902360Y-98625292D01*
X158101295Y-98625313D01*
G37*
%TD*%
M02*
