%TF.GenerationSoftware,KiCad,Pcbnew,8.0.4*%
%TF.CreationDate,2024-09-05T09:17:28+05:30*%
%TF.ProjectId,BreadBoard_PowerSupply,42726561-6442-46f6-9172-645f506f7765,1*%
%TF.SameCoordinates,Original*%
%TF.FileFunction,Copper,L1,Top*%
%TF.FilePolarity,Positive*%
%FSLAX46Y46*%
G04 Gerber Fmt 4.6, Leading zero omitted, Abs format (unit mm)*
G04 Created by KiCad (PCBNEW 8.0.4) date 2024-09-05 09:17:28*
%MOMM*%
%LPD*%
G01*
G04 APERTURE LIST*
G04 Aperture macros list*
%AMRoundRect*
0 Rectangle with rounded corners*
0 $1 Rounding radius*
0 $2 $3 $4 $5 $6 $7 $8 $9 X,Y pos of 4 corners*
0 Add a 4 corners polygon primitive as box body*
4,1,4,$2,$3,$4,$5,$6,$7,$8,$9,$2,$3,0*
0 Add four circle primitives for the rounded corners*
1,1,$1+$1,$2,$3*
1,1,$1+$1,$4,$5*
1,1,$1+$1,$6,$7*
1,1,$1+$1,$8,$9*
0 Add four rect primitives between the rounded corners*
20,1,$1+$1,$2,$3,$4,$5,0*
20,1,$1+$1,$4,$5,$6,$7,0*
20,1,$1+$1,$6,$7,$8,$9,0*
20,1,$1+$1,$8,$9,$2,$3,0*%
G04 Aperture macros list end*
%TA.AperFunction,ComponentPad*%
%ADD10R,1.800000X1.800000*%
%TD*%
%TA.AperFunction,ComponentPad*%
%ADD11C,1.800000*%
%TD*%
%TA.AperFunction,ComponentPad*%
%ADD12C,1.400000*%
%TD*%
%TA.AperFunction,ComponentPad*%
%ADD13O,1.400000X1.400000*%
%TD*%
%TA.AperFunction,ComponentPad*%
%ADD14C,1.600000*%
%TD*%
%TA.AperFunction,ComponentPad*%
%ADD15R,1.700000X1.700000*%
%TD*%
%TA.AperFunction,ComponentPad*%
%ADD16O,1.700000X1.700000*%
%TD*%
%TA.AperFunction,ComponentPad*%
%ADD17R,1.900000X1.900000*%
%TD*%
%TA.AperFunction,ComponentPad*%
%ADD18C,1.900000*%
%TD*%
%TA.AperFunction,ComponentPad*%
%ADD19R,3.500000X3.500000*%
%TD*%
%TA.AperFunction,ComponentPad*%
%ADD20RoundRect,0.750000X-0.750000X-1.000000X0.750000X-1.000000X0.750000X1.000000X-0.750000X1.000000X0*%
%TD*%
%TA.AperFunction,ComponentPad*%
%ADD21RoundRect,0.875000X-0.875000X-0.875000X0.875000X-0.875000X0.875000X0.875000X-0.875000X0.875000X0*%
%TD*%
%TA.AperFunction,ComponentPad*%
%ADD22R,1.905000X2.000000*%
%TD*%
%TA.AperFunction,ComponentPad*%
%ADD23O,1.905000X2.000000*%
%TD*%
%TA.AperFunction,ComponentPad*%
%ADD24R,3.000000X3.000000*%
%TD*%
%TA.AperFunction,ComponentPad*%
%ADD25C,3.000000*%
%TD*%
%TA.AperFunction,Conductor*%
%ADD26C,0.250000*%
%TD*%
G04 APERTURE END LIST*
D10*
%TO.P,D1,1,K*%
%TO.N,GND*%
X173736000Y-99060000D03*
D11*
%TO.P,D1,2,A*%
%TO.N,Net-(D1-A)*%
X173736000Y-96520000D03*
%TD*%
D12*
%TO.P,R2,1*%
%TO.N,Net-(U2-ADJ)*%
X176265000Y-107442000D03*
D13*
%TO.P,R2,2*%
%TO.N,/3.3V*%
X168645000Y-107442000D03*
%TD*%
D12*
%TO.P,R1,1*%
%TO.N,Net-(D1-A)*%
X168645000Y-91186000D03*
D13*
%TO.P,R1,2*%
%TO.N,/12V*%
X176265000Y-91186000D03*
%TD*%
D14*
%TO.P,C1,1*%
%TO.N,/12V*%
X160000000Y-72136000D03*
%TO.P,C1,2*%
%TO.N,GND*%
X157500000Y-72136000D03*
%TD*%
D15*
%TO.P,J4,1,Pin_1*%
%TO.N,/3.3V*%
X159512000Y-68326000D03*
D16*
%TO.P,J4,2,Pin_2*%
%TO.N,/PWR_OUTPUT_1*%
X162052000Y-68326000D03*
%TO.P,J4,3,Pin_3*%
%TO.N,/5V*%
X164592000Y-68326000D03*
%TD*%
D17*
%TO.P,S1,1*%
%TO.N,/12V*%
X172466000Y-80010000D03*
D18*
%TO.P,S1,2*%
%TO.N,/PWR_INPUT*%
X172466000Y-82510000D03*
%TO.P,S1,3*%
%TO.N,unconnected-(S1-Pad3)*%
X172466000Y-85010000D03*
%TD*%
D12*
%TO.P,R3,1*%
%TO.N,GND*%
X168645000Y-104648000D03*
D13*
%TO.P,R3,2*%
%TO.N,Net-(U2-ADJ)*%
X176265000Y-104648000D03*
%TD*%
D19*
%TO.P,J6,1*%
%TO.N,/PWR_INPUT*%
X166274000Y-94800500D03*
D20*
%TO.P,J6,2*%
%TO.N,GND*%
X160274000Y-94800500D03*
D21*
%TO.P,J6,3*%
X163274000Y-99500500D03*
%TD*%
D22*
%TO.P,U1,1,VI*%
%TO.N,/12V*%
X163322000Y-76525000D03*
D23*
%TO.P,U1,2,GND*%
%TO.N,GND*%
X160782000Y-76525000D03*
%TO.P,U1,3,VO*%
%TO.N,/5V*%
X158242000Y-76525000D03*
%TD*%
D15*
%TO.P,J2,1,Pin_1*%
%TO.N,GND*%
X182626000Y-68067000D03*
D16*
%TO.P,J2,2,Pin_2*%
%TO.N,/PWR_OUTPUT_1*%
X182626000Y-70607000D03*
%TD*%
D15*
%TO.P,J1,1,Pin_1*%
%TO.N,GND*%
X182626000Y-119120000D03*
D16*
%TO.P,J1,2,Pin_2*%
%TO.N,/PWR_OUTPUT_2*%
X182626000Y-121660000D03*
%TD*%
D15*
%TO.P,J3,1,Pin_1*%
%TO.N,/3.3V*%
X159512000Y-121666000D03*
D16*
%TO.P,J3,2,Pin_2*%
%TO.N,/PWR_OUTPUT_2*%
X162052000Y-121666000D03*
%TO.P,J3,3,Pin_3*%
%TO.N,/5V*%
X164592000Y-121666000D03*
%TD*%
D24*
%TO.P,J5,1,Pin_1*%
%TO.N,GND*%
X177546000Y-70358000D03*
D25*
%TO.P,J5,2,Pin_2*%
%TO.N,/PWR_OUTPUT_1*%
X172466000Y-70358000D03*
%TD*%
D14*
%TO.P,C3,1*%
%TO.N,GND*%
X163048000Y-118110000D03*
%TO.P,C3,2*%
%TO.N,/3.3V*%
X160548000Y-118110000D03*
%TD*%
D22*
%TO.P,U2,1,ADJ*%
%TO.N,Net-(U2-ADJ)*%
X158242000Y-113975000D03*
D23*
%TO.P,U2,2,VO*%
%TO.N,/3.3V*%
X160782000Y-113975000D03*
%TO.P,U2,3,VI*%
%TO.N,/12V*%
X163322000Y-113975000D03*
%TD*%
D14*
%TO.P,C2,1*%
%TO.N,/5V*%
X166350000Y-72136000D03*
%TO.P,C2,2*%
%TO.N,GND*%
X163850000Y-72136000D03*
%TD*%
D24*
%TO.P,J7,1,Pin_1*%
%TO.N,GND*%
X172466000Y-119470000D03*
D25*
%TO.P,J7,2,Pin_2*%
%TO.N,/PWR_OUTPUT_2*%
X177546000Y-119470000D03*
%TD*%
D26*
%TO.N,/PWR_OUTPUT_1*%
X175006000Y-73152000D02*
X172466000Y-70612000D01*
X172466000Y-70612000D02*
X172466000Y-70358000D01*
X180081000Y-73152000D02*
X175006000Y-73152000D01*
X182626000Y-70607000D02*
X180081000Y-73152000D01*
X172466000Y-70358000D02*
X169259000Y-67151000D01*
X168656000Y-67151000D02*
X163227000Y-67151000D01*
X169259000Y-67151000D02*
X168656000Y-67151000D01*
%TO.N,/12V*%
X168981000Y-76525000D02*
X172466000Y-80010000D01*
X163322000Y-76525000D02*
X168981000Y-76525000D01*
%TO.N,/5V*%
X157734000Y-77033000D02*
X157734000Y-99060000D01*
X160599000Y-74168000D02*
X164318000Y-74168000D01*
X158242000Y-76525000D02*
X157734000Y-77033000D01*
X166350000Y-70069000D02*
X164607000Y-68326000D01*
X166350000Y-72136000D02*
X166350000Y-70069000D01*
X166385000Y-119888000D02*
X164607000Y-121666000D01*
X158242000Y-76525000D02*
X160599000Y-74168000D01*
X164318000Y-74168000D02*
X166350000Y-72136000D01*
X157734000Y-99060000D02*
X166385000Y-107711000D01*
X166385000Y-107711000D02*
X166385000Y-119888000D01*
X166385000Y-72101000D02*
X166350000Y-72136000D01*
%TO.N,/3.3V*%
X160548000Y-118110000D02*
X159512000Y-119146000D01*
X159512000Y-119146000D02*
X159512000Y-121651000D01*
X159512000Y-121651000D02*
X159527000Y-121666000D01*
X160548000Y-114209000D02*
X160782000Y-113975000D01*
X160548000Y-118110000D02*
X160548000Y-114209000D01*
%TO.N,Net-(D1-A)*%
X168645000Y-91186000D02*
X168645000Y-91429000D01*
X173228000Y-96520000D02*
X173736000Y-96520000D01*
X173736000Y-96277000D02*
X173736000Y-96520000D01*
X168645000Y-91186000D02*
X173736000Y-96277000D01*
%TO.N,/PWR_INPUT*%
X166274000Y-84932000D02*
X166274000Y-94800500D01*
X168696000Y-82510000D02*
X166274000Y-84932000D01*
X172466000Y-82510000D02*
X168696000Y-82510000D01*
%TO.N,Net-(U2-ADJ)*%
X176265000Y-104648000D02*
X176265000Y-107442000D01*
%TO.N,/PWR_OUTPUT_2*%
X163576000Y-123190000D02*
X173826000Y-123190000D01*
X178652000Y-119470000D02*
X180842000Y-121660000D01*
X180842000Y-121660000D02*
X182626000Y-121660000D01*
X162052000Y-121666000D02*
X163576000Y-123190000D01*
X173826000Y-123190000D02*
X177546000Y-119470000D01*
X177546000Y-119470000D02*
X178652000Y-119470000D01*
%TO.N,/PWR_OUTPUT_1*%
X163227000Y-67151000D02*
X162052000Y-68326000D01*
%TO.N,GND*%
X177886000Y-70607000D02*
X177546000Y-70267000D01*
%TD*%
M02*
