%TF.GenerationSoftware,KiCad,Pcbnew,8.0.4*%
%TF.CreationDate,2024-09-05T09:16:46+05:30*%
%TF.ProjectId,BreadBoard_PowerSupply,42726561-6442-46f6-9172-645f506f7765,1*%
%TF.SameCoordinates,Original*%
%TF.FileFunction,Plated,1,2,PTH,Mixed*%
%TF.FilePolarity,Positive*%
%FSLAX46Y46*%
G04 Gerber Fmt 4.6, Leading zero omitted, Abs format (unit mm)*
G04 Created by KiCad (PCBNEW 8.0.4) date 2024-09-05 09:16:46*
%MOMM*%
%LPD*%
G01*
G04 APERTURE LIST*
%TA.AperFunction,ComponentDrill*%
%ADD10C,0.700000*%
%TD*%
%TA.AperFunction,ComponentDrill*%
%ADD11C,0.800000*%
%TD*%
%TA.AperFunction,ComponentDrill*%
%ADD12C,0.900000*%
%TD*%
%TA.AperFunction,ComponentDrill*%
%ADD13C,1.000000*%
%TD*%
G04 aperture for slot hole*
%TA.AperFunction,ComponentDrill*%
%ADD14C,1.000000*%
%TD*%
%TA.AperFunction,ComponentDrill*%
%ADD15C,1.100000*%
%TD*%
%TA.AperFunction,ComponentDrill*%
%ADD16C,1.520000*%
%TD*%
G04 APERTURE END LIST*
D10*
%TO.C,R1*%
X168645000Y-91186000D03*
%TO.C,R3*%
X168645000Y-104648000D03*
%TO.C,R2*%
X168645000Y-107442000D03*
%TO.C,R1*%
X176265000Y-91186000D03*
%TO.C,R3*%
X176265000Y-104648000D03*
%TO.C,R2*%
X176265000Y-107442000D03*
D11*
%TO.C,C1*%
X157500000Y-72136000D03*
X160000000Y-72136000D03*
%TO.C,C3*%
X160548000Y-118110000D03*
X163048000Y-118110000D03*
%TO.C,C2*%
X163850000Y-72136000D03*
X166350000Y-72136000D03*
D12*
%TO.C,S1*%
X172466000Y-80010000D03*
X172466000Y-82510000D03*
X172466000Y-85010000D03*
%TO.C,D1*%
X173736000Y-96520000D03*
X173736000Y-99060000D03*
D13*
%TO.C,J4*%
X159512000Y-68326000D03*
%TO.C,J3*%
X159512000Y-121666000D03*
D14*
%TO.C,J6*%
X160274000Y-95800500D02*
X160274000Y-93800500D01*
D13*
%TO.C,J4*%
X162052000Y-68326000D03*
%TO.C,J3*%
X162052000Y-121666000D03*
D14*
%TO.C,J6*%
X164274000Y-99500500D02*
X162274000Y-99500500D01*
D13*
%TO.C,J4*%
X164592000Y-68326000D03*
%TO.C,J3*%
X164592000Y-121666000D03*
D14*
%TO.C,J6*%
X166274000Y-95800500D02*
X166274000Y-93800500D01*
D13*
%TO.C,J2*%
X182626000Y-68067000D03*
X182626000Y-70607000D03*
%TO.C,J1*%
X182626000Y-119120000D03*
X182626000Y-121660000D03*
D15*
%TO.C,U1*%
X158242000Y-76525000D03*
%TO.C,U2*%
X158242000Y-113975000D03*
%TO.C,U1*%
X160782000Y-76525000D03*
%TO.C,U2*%
X160782000Y-113975000D03*
%TO.C,U1*%
X163322000Y-76525000D03*
%TO.C,U2*%
X163322000Y-113975000D03*
D16*
%TO.C,J5*%
X172466000Y-70358000D03*
%TO.C,J7*%
X172466000Y-119470000D03*
%TO.C,J5*%
X177546000Y-70358000D03*
%TO.C,J7*%
X177546000Y-119470000D03*
M02*
