%TF.GenerationSoftware,KiCad,Pcbnew,8.0.4*%
%TF.CreationDate,2024-09-05T09:17:28+05:30*%
%TF.ProjectId,BreadBoard_PowerSupply,42726561-6442-46f6-9172-645f506f7765,1*%
%TF.SameCoordinates,Original*%
%TF.FileFunction,Copper,L2,Bot*%
%TF.FilePolarity,Positive*%
%FSLAX46Y46*%
G04 Gerber Fmt 4.6, Leading zero omitted, Abs format (unit mm)*
G04 Created by KiCad (PCBNEW 8.0.4) date 2024-09-05 09:17:28*
%MOMM*%
%LPD*%
G01*
G04 APERTURE LIST*
G04 Aperture macros list*
%AMRoundRect*
0 Rectangle with rounded corners*
0 $1 Rounding radius*
0 $2 $3 $4 $5 $6 $7 $8 $9 X,Y pos of 4 corners*
0 Add a 4 corners polygon primitive as box body*
4,1,4,$2,$3,$4,$5,$6,$7,$8,$9,$2,$3,0*
0 Add four circle primitives for the rounded corners*
1,1,$1+$1,$2,$3*
1,1,$1+$1,$4,$5*
1,1,$1+$1,$6,$7*
1,1,$1+$1,$8,$9*
0 Add four rect primitives between the rounded corners*
20,1,$1+$1,$2,$3,$4,$5,0*
20,1,$1+$1,$4,$5,$6,$7,0*
20,1,$1+$1,$6,$7,$8,$9,0*
20,1,$1+$1,$8,$9,$2,$3,0*%
G04 Aperture macros list end*
%TA.AperFunction,ComponentPad*%
%ADD10R,1.800000X1.800000*%
%TD*%
%TA.AperFunction,ComponentPad*%
%ADD11C,1.800000*%
%TD*%
%TA.AperFunction,ComponentPad*%
%ADD12C,1.400000*%
%TD*%
%TA.AperFunction,ComponentPad*%
%ADD13O,1.400000X1.400000*%
%TD*%
%TA.AperFunction,ComponentPad*%
%ADD14C,1.600000*%
%TD*%
%TA.AperFunction,ComponentPad*%
%ADD15R,1.700000X1.700000*%
%TD*%
%TA.AperFunction,ComponentPad*%
%ADD16O,1.700000X1.700000*%
%TD*%
%TA.AperFunction,ComponentPad*%
%ADD17R,1.900000X1.900000*%
%TD*%
%TA.AperFunction,ComponentPad*%
%ADD18C,1.900000*%
%TD*%
%TA.AperFunction,ComponentPad*%
%ADD19R,3.500000X3.500000*%
%TD*%
%TA.AperFunction,ComponentPad*%
%ADD20RoundRect,0.750000X-0.750000X-1.000000X0.750000X-1.000000X0.750000X1.000000X-0.750000X1.000000X0*%
%TD*%
%TA.AperFunction,ComponentPad*%
%ADD21RoundRect,0.875000X-0.875000X-0.875000X0.875000X-0.875000X0.875000X0.875000X-0.875000X0.875000X0*%
%TD*%
%TA.AperFunction,ComponentPad*%
%ADD22R,1.905000X2.000000*%
%TD*%
%TA.AperFunction,ComponentPad*%
%ADD23O,1.905000X2.000000*%
%TD*%
%TA.AperFunction,ComponentPad*%
%ADD24R,3.000000X3.000000*%
%TD*%
%TA.AperFunction,ComponentPad*%
%ADD25C,3.000000*%
%TD*%
%TA.AperFunction,Conductor*%
%ADD26C,0.250000*%
%TD*%
G04 APERTURE END LIST*
D10*
%TO.P,D1,1,K*%
%TO.N,GND*%
X173736000Y-99060000D03*
D11*
%TO.P,D1,2,A*%
%TO.N,Net-(D1-A)*%
X173736000Y-96520000D03*
%TD*%
D12*
%TO.P,R2,1*%
%TO.N,Net-(U2-ADJ)*%
X176265000Y-107442000D03*
D13*
%TO.P,R2,2*%
%TO.N,/3.3V*%
X168645000Y-107442000D03*
%TD*%
D12*
%TO.P,R1,1*%
%TO.N,Net-(D1-A)*%
X168645000Y-91186000D03*
D13*
%TO.P,R1,2*%
%TO.N,/12V*%
X176265000Y-91186000D03*
%TD*%
D14*
%TO.P,C1,1*%
%TO.N,/12V*%
X160000000Y-72136000D03*
%TO.P,C1,2*%
%TO.N,GND*%
X157500000Y-72136000D03*
%TD*%
D15*
%TO.P,J4,1,Pin_1*%
%TO.N,/3.3V*%
X159512000Y-68326000D03*
D16*
%TO.P,J4,2,Pin_2*%
%TO.N,/PWR_OUTPUT_1*%
X162052000Y-68326000D03*
%TO.P,J4,3,Pin_3*%
%TO.N,/5V*%
X164592000Y-68326000D03*
%TD*%
D17*
%TO.P,S1,1*%
%TO.N,/12V*%
X172466000Y-80010000D03*
D18*
%TO.P,S1,2*%
%TO.N,/PWR_INPUT*%
X172466000Y-82510000D03*
%TO.P,S1,3*%
%TO.N,unconnected-(S1-Pad3)*%
X172466000Y-85010000D03*
%TD*%
D12*
%TO.P,R3,1*%
%TO.N,GND*%
X168645000Y-104648000D03*
D13*
%TO.P,R3,2*%
%TO.N,Net-(U2-ADJ)*%
X176265000Y-104648000D03*
%TD*%
D19*
%TO.P,J6,1*%
%TO.N,/PWR_INPUT*%
X166274000Y-94800500D03*
D20*
%TO.P,J6,2*%
%TO.N,GND*%
X160274000Y-94800500D03*
D21*
%TO.P,J6,3*%
X163274000Y-99500500D03*
%TD*%
D22*
%TO.P,U1,1,VI*%
%TO.N,/12V*%
X163322000Y-76525000D03*
D23*
%TO.P,U1,2,GND*%
%TO.N,GND*%
X160782000Y-76525000D03*
%TO.P,U1,3,VO*%
%TO.N,/5V*%
X158242000Y-76525000D03*
%TD*%
D15*
%TO.P,J2,1,Pin_1*%
%TO.N,GND*%
X182626000Y-68067000D03*
D16*
%TO.P,J2,2,Pin_2*%
%TO.N,/PWR_OUTPUT_1*%
X182626000Y-70607000D03*
%TD*%
D15*
%TO.P,J1,1,Pin_1*%
%TO.N,GND*%
X182626000Y-119120000D03*
D16*
%TO.P,J1,2,Pin_2*%
%TO.N,/PWR_OUTPUT_2*%
X182626000Y-121660000D03*
%TD*%
D15*
%TO.P,J3,1,Pin_1*%
%TO.N,/3.3V*%
X159512000Y-121666000D03*
D16*
%TO.P,J3,2,Pin_2*%
%TO.N,/PWR_OUTPUT_2*%
X162052000Y-121666000D03*
%TO.P,J3,3,Pin_3*%
%TO.N,/5V*%
X164592000Y-121666000D03*
%TD*%
D24*
%TO.P,J5,1,Pin_1*%
%TO.N,GND*%
X177546000Y-70358000D03*
D25*
%TO.P,J5,2,Pin_2*%
%TO.N,/PWR_OUTPUT_1*%
X172466000Y-70358000D03*
%TD*%
D14*
%TO.P,C3,1*%
%TO.N,GND*%
X163048000Y-118110000D03*
%TO.P,C3,2*%
%TO.N,/3.3V*%
X160548000Y-118110000D03*
%TD*%
D22*
%TO.P,U2,1,ADJ*%
%TO.N,Net-(U2-ADJ)*%
X158242000Y-113975000D03*
D23*
%TO.P,U2,2,VO*%
%TO.N,/3.3V*%
X160782000Y-113975000D03*
%TO.P,U2,3,VI*%
%TO.N,/12V*%
X163322000Y-113975000D03*
%TD*%
D14*
%TO.P,C2,1*%
%TO.N,/5V*%
X166350000Y-72136000D03*
%TO.P,C2,2*%
%TO.N,GND*%
X163850000Y-72136000D03*
%TD*%
D24*
%TO.P,J7,1,Pin_1*%
%TO.N,GND*%
X172466000Y-119470000D03*
D25*
%TO.P,J7,2,Pin_2*%
%TO.N,/PWR_OUTPUT_2*%
X177546000Y-119470000D03*
%TD*%
D26*
%TO.N,/12V*%
X176276000Y-102362000D02*
X176276000Y-91197000D01*
X172466000Y-80010000D02*
X176265000Y-83809000D01*
X176276000Y-91197000D02*
X176265000Y-91186000D01*
X160000000Y-72136000D02*
X163322000Y-75458000D01*
X176265000Y-83809000D02*
X176265000Y-91186000D01*
X163322000Y-75458000D02*
X163322000Y-76525000D01*
X164663000Y-113975000D02*
X176276000Y-102362000D01*
X163322000Y-113975000D02*
X164663000Y-113975000D01*
%TO.N,/3.3V*%
X161798000Y-72390000D02*
X164084000Y-74676000D01*
X166116000Y-74676000D02*
X169926000Y-78486000D01*
X159527000Y-68326000D02*
X161798000Y-70597000D01*
X169926000Y-106161000D02*
X168645000Y-107442000D01*
X164084000Y-74676000D02*
X166116000Y-74676000D01*
X161798000Y-70597000D02*
X161798000Y-72390000D01*
X168645000Y-107442000D02*
X167315000Y-107442000D01*
X169926000Y-78486000D02*
X169926000Y-106161000D01*
X167315000Y-107442000D02*
X160782000Y-113975000D01*
%TO.N,Net-(U2-ADJ)*%
X158242000Y-113975000D02*
X158242000Y-114808000D01*
X159766000Y-116332000D02*
X167375000Y-116332000D01*
X158242000Y-114808000D02*
X159766000Y-116332000D01*
X167375000Y-116332000D02*
X176265000Y-107442000D01*
%TD*%
%TA.AperFunction,Conductor*%
%TO.N,GND*%
G36*
X184206971Y-66295523D02*
G01*
X184211400Y-66296225D01*
X184248301Y-66308212D01*
X184286211Y-66327528D01*
X184317593Y-66350329D01*
X184347670Y-66380406D01*
X184370472Y-66411790D01*
X184389786Y-66449695D01*
X184401772Y-66486582D01*
X184402472Y-66491000D01*
X184404000Y-66510405D01*
X184404000Y-73100638D01*
X184384315Y-73167677D01*
X184367681Y-73188319D01*
X183678319Y-73877681D01*
X183616996Y-73911166D01*
X183590638Y-73914000D01*
X177545999Y-73914000D01*
X177038000Y-74421999D01*
X177038000Y-83431231D01*
X177018315Y-83498270D01*
X176965511Y-83544025D01*
X176896353Y-83553969D01*
X176832797Y-83524944D01*
X176810898Y-83500122D01*
X176750858Y-83410267D01*
X176750855Y-83410263D01*
X176660637Y-83320045D01*
X176660606Y-83320016D01*
X173952818Y-80612228D01*
X173919333Y-80550905D01*
X173918591Y-80544000D01*
X175402000Y-80544000D01*
X175914000Y-80544000D01*
X175914000Y-79042000D01*
X175402000Y-79042000D01*
X175402000Y-80544000D01*
X173918591Y-80544000D01*
X173916499Y-80524547D01*
X173916499Y-79012129D01*
X173916498Y-79012123D01*
X173916497Y-79012116D01*
X173910091Y-78952517D01*
X173859796Y-78817669D01*
X173859795Y-78817668D01*
X173859793Y-78817664D01*
X173773547Y-78702455D01*
X173773544Y-78702452D01*
X173658335Y-78616206D01*
X173658328Y-78616202D01*
X173523482Y-78565908D01*
X173523483Y-78565908D01*
X173463883Y-78559501D01*
X173463881Y-78559500D01*
X173463873Y-78559500D01*
X173463864Y-78559500D01*
X171468129Y-78559500D01*
X171468123Y-78559501D01*
X171408516Y-78565908D01*
X171273671Y-78616202D01*
X171273664Y-78616206D01*
X171158455Y-78702452D01*
X171158452Y-78702455D01*
X171072206Y-78817664D01*
X171072202Y-78817671D01*
X171021908Y-78952517D01*
X171015501Y-79012116D01*
X171015501Y-79012123D01*
X171015500Y-79012135D01*
X171015500Y-81007870D01*
X171015501Y-81007876D01*
X171021908Y-81067483D01*
X171072202Y-81202328D01*
X171072206Y-81202335D01*
X171158452Y-81317544D01*
X171158455Y-81317547D01*
X171273664Y-81403793D01*
X171273666Y-81403794D01*
X171273669Y-81403796D01*
X171278856Y-81405730D01*
X171334790Y-81447597D01*
X171359211Y-81513060D01*
X171344364Y-81581334D01*
X171326762Y-81605893D01*
X171317426Y-81616034D01*
X171185951Y-81817270D01*
X171089389Y-82037410D01*
X171030379Y-82270440D01*
X171010529Y-82509994D01*
X171010529Y-82510005D01*
X171030379Y-82749559D01*
X171089389Y-82982589D01*
X171185951Y-83202729D01*
X171262579Y-83320016D01*
X171317429Y-83403969D01*
X171480236Y-83580825D01*
X171584718Y-83662147D01*
X171625531Y-83718857D01*
X171629206Y-83788630D01*
X171594575Y-83849313D01*
X171584724Y-83857848D01*
X171510294Y-83915779D01*
X171480237Y-83939174D01*
X171317430Y-84116029D01*
X171317427Y-84116033D01*
X171185951Y-84317270D01*
X171089389Y-84537410D01*
X171030379Y-84770440D01*
X171010529Y-85009994D01*
X171010529Y-85010005D01*
X171030379Y-85249559D01*
X171089389Y-85482589D01*
X171185951Y-85702729D01*
X171317427Y-85903966D01*
X171317429Y-85903969D01*
X171480236Y-86080825D01*
X171480239Y-86080827D01*
X171480242Y-86080830D01*
X171669924Y-86228466D01*
X171669930Y-86228470D01*
X171669933Y-86228472D01*
X171881344Y-86342882D01*
X171881347Y-86342883D01*
X172108699Y-86420933D01*
X172108701Y-86420933D01*
X172108703Y-86420934D01*
X172345808Y-86460500D01*
X172345809Y-86460500D01*
X172586191Y-86460500D01*
X172586192Y-86460500D01*
X172823297Y-86420934D01*
X173050656Y-86342882D01*
X173262067Y-86228472D01*
X173451764Y-86080825D01*
X173614571Y-85903969D01*
X173746049Y-85702728D01*
X173842610Y-85482591D01*
X173901620Y-85249563D01*
X173921471Y-85010000D01*
X173901620Y-84770437D01*
X173842610Y-84537409D01*
X173746049Y-84317272D01*
X173614571Y-84116031D01*
X173451764Y-83939175D01*
X173347281Y-83857852D01*
X173306469Y-83801143D01*
X173302794Y-83731370D01*
X173337425Y-83670687D01*
X173347275Y-83662151D01*
X173451764Y-83580825D01*
X173614571Y-83403969D01*
X173746049Y-83202728D01*
X173842610Y-82982591D01*
X173901620Y-82749563D01*
X173911618Y-82628903D01*
X173936771Y-82563722D01*
X173993173Y-82522483D01*
X174062916Y-82518285D01*
X174122875Y-82551465D01*
X175603181Y-84031771D01*
X175636666Y-84093094D01*
X175639500Y-84119452D01*
X175639500Y-90092233D01*
X175619815Y-90159272D01*
X175580778Y-90197660D01*
X175538436Y-90223877D01*
X175374020Y-90373761D01*
X175239943Y-90551308D01*
X175239938Y-90551316D01*
X175140775Y-90750461D01*
X175140769Y-90750476D01*
X175079885Y-90964462D01*
X175079884Y-90964464D01*
X175059357Y-91185999D01*
X175059357Y-91186000D01*
X175079884Y-91407535D01*
X175079885Y-91407537D01*
X175140769Y-91621523D01*
X175140775Y-91621538D01*
X175239938Y-91820683D01*
X175239943Y-91820691D01*
X175374020Y-91998238D01*
X175538433Y-92148120D01*
X175538435Y-92148121D01*
X175538438Y-92148124D01*
X175591778Y-92181150D01*
X175638412Y-92233176D01*
X175650500Y-92286576D01*
X175650500Y-102051547D01*
X175630815Y-102118586D01*
X175614181Y-102139228D01*
X170046425Y-107706983D01*
X169985102Y-107740468D01*
X169915410Y-107735484D01*
X169859477Y-107693612D01*
X169835060Y-107628148D01*
X169835272Y-107607872D01*
X169850643Y-107442000D01*
X169830115Y-107220464D01*
X169830112Y-107220454D01*
X169829685Y-107218167D01*
X169829798Y-107217046D01*
X169829586Y-107214755D01*
X169830034Y-107214713D01*
X169836713Y-107148651D01*
X169863887Y-107107701D01*
X170411858Y-106559733D01*
X170480312Y-106457285D01*
X170527463Y-106343451D01*
X170551501Y-106222606D01*
X170551501Y-106099393D01*
X170551501Y-106094283D01*
X170551500Y-106094257D01*
X170551500Y-103044000D01*
X171549500Y-103044000D01*
X171904000Y-103044000D01*
X172902000Y-103044000D01*
X173298024Y-103044000D01*
X174404000Y-101938024D01*
X174404000Y-101542000D01*
X172902000Y-101542000D01*
X172902000Y-103044000D01*
X171904000Y-103044000D01*
X171904000Y-101542000D01*
X171549500Y-101542000D01*
X171549500Y-103044000D01*
X170551500Y-103044000D01*
X170551500Y-96519993D01*
X172330700Y-96519993D01*
X172330700Y-96520006D01*
X172349864Y-96751297D01*
X172349866Y-96751308D01*
X172406842Y-96976300D01*
X172500075Y-97188848D01*
X172627018Y-97383150D01*
X172722167Y-97486510D01*
X172753089Y-97549164D01*
X172745228Y-97618590D01*
X172701081Y-97672746D01*
X172674271Y-97686674D01*
X172593911Y-97716646D01*
X172593906Y-97716649D01*
X172478812Y-97802809D01*
X172478809Y-97802812D01*
X172392649Y-97917906D01*
X172392645Y-97917913D01*
X172342403Y-98052620D01*
X172342401Y-98052627D01*
X172336000Y-98112155D01*
X172336000Y-98810000D01*
X173360722Y-98810000D01*
X173316667Y-98886306D01*
X173286000Y-99000756D01*
X173286000Y-99119244D01*
X173316667Y-99233694D01*
X173360722Y-99310000D01*
X172336000Y-99310000D01*
X172336000Y-100007844D01*
X172342401Y-100067372D01*
X172342403Y-100067379D01*
X172392645Y-100202086D01*
X172392649Y-100202093D01*
X172478809Y-100317187D01*
X172478812Y-100317190D01*
X172593906Y-100403350D01*
X172593913Y-100403354D01*
X172728620Y-100453596D01*
X172728627Y-100453598D01*
X172788155Y-100459999D01*
X172788172Y-100460000D01*
X173486000Y-100460000D01*
X173486000Y-99435277D01*
X173562306Y-99479333D01*
X173676756Y-99510000D01*
X173795244Y-99510000D01*
X173909694Y-99479333D01*
X173986000Y-99435277D01*
X173986000Y-100460000D01*
X174683828Y-100460000D01*
X174683844Y-100459999D01*
X174743372Y-100453598D01*
X174743379Y-100453596D01*
X174878086Y-100403354D01*
X174878093Y-100403350D01*
X174993187Y-100317190D01*
X174993190Y-100317187D01*
X175079350Y-100202093D01*
X175079354Y-100202086D01*
X175129596Y-100067379D01*
X175129598Y-100067372D01*
X175135999Y-100007844D01*
X175136000Y-100007827D01*
X175136000Y-99310000D01*
X174111278Y-99310000D01*
X174155333Y-99233694D01*
X174186000Y-99119244D01*
X174186000Y-99000756D01*
X174155333Y-98886306D01*
X174111278Y-98810000D01*
X175136000Y-98810000D01*
X175136000Y-98112172D01*
X175135999Y-98112155D01*
X175129598Y-98052627D01*
X175129596Y-98052620D01*
X175079354Y-97917913D01*
X175079350Y-97917906D01*
X174993190Y-97802812D01*
X174993187Y-97802809D01*
X174878093Y-97716649D01*
X174878086Y-97716645D01*
X174797729Y-97686674D01*
X174741795Y-97644803D01*
X174717378Y-97579338D01*
X174732230Y-97511065D01*
X174749826Y-97486516D01*
X174844979Y-97383153D01*
X174971924Y-97188849D01*
X175065157Y-96976300D01*
X175122134Y-96751305D01*
X175134272Y-96604823D01*
X175141300Y-96520006D01*
X175141300Y-96519993D01*
X175122135Y-96288702D01*
X175122133Y-96288691D01*
X175065157Y-96063699D01*
X174971924Y-95851151D01*
X174844983Y-95656852D01*
X174844980Y-95656849D01*
X174844979Y-95656847D01*
X174687784Y-95486087D01*
X174687779Y-95486083D01*
X174687777Y-95486081D01*
X174504634Y-95343535D01*
X174504628Y-95343531D01*
X174300504Y-95233064D01*
X174300495Y-95233061D01*
X174080984Y-95157702D01*
X173909282Y-95129050D01*
X173852049Y-95119500D01*
X173619951Y-95119500D01*
X173574164Y-95127140D01*
X173391015Y-95157702D01*
X173171504Y-95233061D01*
X173171495Y-95233064D01*
X172967371Y-95343531D01*
X172967365Y-95343535D01*
X172784222Y-95486081D01*
X172784219Y-95486084D01*
X172627016Y-95656852D01*
X172500075Y-95851151D01*
X172406842Y-96063699D01*
X172349866Y-96288691D01*
X172349864Y-96288702D01*
X172330700Y-96519993D01*
X170551500Y-96519993D01*
X170551500Y-93044000D01*
X171549500Y-93044000D01*
X171904000Y-93044000D01*
X172902000Y-93044000D01*
X174404000Y-93044000D01*
X174404000Y-92366342D01*
X174403573Y-92365687D01*
X174379293Y-92326475D01*
X174376391Y-92321536D01*
X174359523Y-92291253D01*
X174356851Y-92286185D01*
X174237112Y-92045719D01*
X174234675Y-92040528D01*
X174220664Y-92008792D01*
X174218470Y-92003494D01*
X174201813Y-91960485D01*
X174199871Y-91955105D01*
X174188869Y-91922277D01*
X174187176Y-91916808D01*
X174113674Y-91658476D01*
X174112234Y-91652933D01*
X174104301Y-91619205D01*
X174103119Y-91613602D01*
X174094643Y-91568266D01*
X174093720Y-91562609D01*
X174090845Y-91542000D01*
X172902000Y-91542000D01*
X172902000Y-93044000D01*
X171904000Y-93044000D01*
X171904000Y-91542000D01*
X171549500Y-91542000D01*
X171549500Y-93044000D01*
X170551500Y-93044000D01*
X170551500Y-90544000D01*
X171549500Y-90544000D01*
X171904000Y-90544000D01*
X172902000Y-90544000D01*
X174161908Y-90544000D01*
X174187176Y-90455192D01*
X174188869Y-90449723D01*
X174199871Y-90416895D01*
X174201813Y-90411515D01*
X174218470Y-90368506D01*
X174220664Y-90363208D01*
X174234675Y-90331472D01*
X174237112Y-90326281D01*
X174356851Y-90085815D01*
X174359523Y-90080747D01*
X174376391Y-90050464D01*
X174379293Y-90045525D01*
X174403573Y-90006313D01*
X174404000Y-90005657D01*
X174404000Y-89042000D01*
X172902000Y-89042000D01*
X172902000Y-90544000D01*
X171904000Y-90544000D01*
X171904000Y-89042000D01*
X171549500Y-89042000D01*
X171549500Y-90544000D01*
X170551500Y-90544000D01*
X170551500Y-87419601D01*
X172902000Y-87419601D01*
X172902000Y-88044000D01*
X174404000Y-88044000D01*
X174404000Y-86542000D01*
X174382175Y-86542000D01*
X174366199Y-86560865D01*
X174362803Y-86564711D01*
X174172047Y-86771927D01*
X174168500Y-86775623D01*
X174146583Y-86797541D01*
X174142885Y-86801090D01*
X174112527Y-86829038D01*
X174108684Y-86832432D01*
X174085015Y-86852479D01*
X174081036Y-86855710D01*
X173858769Y-87028708D01*
X173854659Y-87031772D01*
X173829419Y-87049793D01*
X173825185Y-87052687D01*
X173790640Y-87075255D01*
X173786295Y-87077966D01*
X173759662Y-87093836D01*
X173755206Y-87096369D01*
X173507498Y-87230422D01*
X173502938Y-87232769D01*
X173475064Y-87246395D01*
X173470411Y-87248551D01*
X173432621Y-87265125D01*
X173427886Y-87267086D01*
X173399018Y-87278349D01*
X173394211Y-87280111D01*
X173127831Y-87371560D01*
X173122949Y-87373124D01*
X173093225Y-87381973D01*
X173088282Y-87383334D01*
X173048280Y-87393463D01*
X173043289Y-87394618D01*
X173012947Y-87400980D01*
X173007910Y-87401928D01*
X172902000Y-87419601D01*
X170551500Y-87419601D01*
X170551500Y-78553741D01*
X170551501Y-78553720D01*
X170551501Y-78424391D01*
X170527464Y-78303555D01*
X170527463Y-78303549D01*
X170480312Y-78189715D01*
X170411858Y-78087267D01*
X170411855Y-78087263D01*
X170368592Y-78044000D01*
X175402000Y-78044000D01*
X175914000Y-78044000D01*
X175914000Y-76542000D01*
X175402000Y-76542000D01*
X175402000Y-78044000D01*
X170368592Y-78044000D01*
X168990615Y-76666024D01*
X170402000Y-76666024D01*
X171134878Y-77398902D01*
X171139076Y-77403311D01*
X171163807Y-77430598D01*
X171167781Y-77435205D01*
X171198870Y-77473087D01*
X171202615Y-77477885D01*
X171224547Y-77507457D01*
X171228051Y-77512433D01*
X171271144Y-77576925D01*
X171374756Y-77565788D01*
X171378061Y-77565478D01*
X171398101Y-77563865D01*
X171401422Y-77563642D01*
X171428105Y-77562214D01*
X171431418Y-77562081D01*
X171451466Y-77561545D01*
X171454780Y-77561501D01*
X171904000Y-77561500D01*
X172902000Y-77561500D01*
X173477248Y-77561500D01*
X173480572Y-77561545D01*
X173500674Y-77562084D01*
X173503994Y-77562217D01*
X173530680Y-77563649D01*
X173533989Y-77563871D01*
X173553982Y-77565481D01*
X173557285Y-77565792D01*
X173661175Y-77576962D01*
X173668843Y-77578029D01*
X173715029Y-77585936D01*
X173722619Y-77587481D01*
X173783330Y-77601826D01*
X173790809Y-77603842D01*
X173835672Y-77617450D01*
X173843012Y-77619929D01*
X174040502Y-77693587D01*
X174048682Y-77696975D01*
X174097419Y-77719233D01*
X174105333Y-77723195D01*
X174167923Y-77757372D01*
X174175537Y-77761890D01*
X174220604Y-77790854D01*
X174227874Y-77795902D01*
X174400173Y-77924886D01*
X174404000Y-77927969D01*
X174404000Y-76542000D01*
X172902000Y-76542000D01*
X172902000Y-77561500D01*
X171904000Y-77561500D01*
X171904000Y-76542000D01*
X170402000Y-76542000D01*
X170402000Y-76666024D01*
X168990615Y-76666024D01*
X166608928Y-74284338D01*
X166608925Y-74284334D01*
X166608925Y-74284335D01*
X166601858Y-74277268D01*
X166601858Y-74277267D01*
X166514733Y-74190142D01*
X166514732Y-74190141D01*
X166514731Y-74190140D01*
X166478640Y-74166025D01*
X167902000Y-74166025D01*
X169279975Y-75544000D01*
X169404000Y-75544000D01*
X170402000Y-75544000D01*
X171904000Y-75544000D01*
X172902000Y-75544000D01*
X174404000Y-75544000D01*
X175402000Y-75544000D01*
X175914000Y-75544000D01*
X175914000Y-74223088D01*
X175923439Y-74175635D01*
X175978793Y-74042000D01*
X175402000Y-74042000D01*
X175402000Y-75544000D01*
X174404000Y-75544000D01*
X174404000Y-74042000D01*
X172902000Y-74042000D01*
X172902000Y-75544000D01*
X171904000Y-75544000D01*
X171904000Y-74042000D01*
X170402000Y-74042000D01*
X170402000Y-75544000D01*
X169404000Y-75544000D01*
X169404000Y-74042000D01*
X167902000Y-74042000D01*
X167902000Y-74166025D01*
X166478640Y-74166025D01*
X166463509Y-74155915D01*
X166445552Y-74143916D01*
X166412286Y-74121688D01*
X166412283Y-74121686D01*
X166412280Y-74121685D01*
X166331792Y-74088347D01*
X166298453Y-74074537D01*
X166288427Y-74072543D01*
X166238029Y-74062518D01*
X166177610Y-74050500D01*
X166177607Y-74050500D01*
X166177606Y-74050500D01*
X164394452Y-74050500D01*
X164327413Y-74030815D01*
X164306771Y-74014181D01*
X163930956Y-73638366D01*
X163897471Y-73577043D01*
X163902455Y-73507351D01*
X163944327Y-73451418D01*
X164007831Y-73427157D01*
X164076599Y-73421141D01*
X164076610Y-73421139D01*
X164296317Y-73362269D01*
X164296331Y-73362264D01*
X164502478Y-73266136D01*
X164575471Y-73215024D01*
X163896447Y-72536000D01*
X163902661Y-72536000D01*
X164004394Y-72508741D01*
X164095606Y-72456080D01*
X164170080Y-72381606D01*
X164222741Y-72290394D01*
X164250000Y-72188661D01*
X164250000Y-72182447D01*
X164929024Y-72861471D01*
X164980134Y-72788481D01*
X164987340Y-72773028D01*
X165033511Y-72720587D01*
X165100704Y-72701433D01*
X165167585Y-72721646D01*
X165212105Y-72773022D01*
X165219430Y-72788730D01*
X165219432Y-72788734D01*
X165349954Y-72975141D01*
X165510858Y-73136045D01*
X165510861Y-73136047D01*
X165697266Y-73266568D01*
X165903504Y-73362739D01*
X166123308Y-73421635D01*
X166280791Y-73435413D01*
X166349998Y-73441468D01*
X166350000Y-73441468D01*
X166350002Y-73441468D01*
X166406673Y-73436509D01*
X166576692Y-73421635D01*
X166796496Y-73362739D01*
X167002734Y-73266568D01*
X167189139Y-73136047D01*
X167281186Y-73044000D01*
X168462707Y-73044000D01*
X169404000Y-73044000D01*
X169404000Y-72504851D01*
X180402000Y-72504851D01*
X180402000Y-72790000D01*
X181750432Y-72790000D01*
X181506663Y-72676328D01*
X181501812Y-72673936D01*
X181472791Y-72658829D01*
X181468051Y-72656229D01*
X181430327Y-72634451D01*
X181425698Y-72631642D01*
X181398084Y-72614050D01*
X181393585Y-72611044D01*
X181164322Y-72450512D01*
X181159958Y-72447311D01*
X181133978Y-72427375D01*
X181129756Y-72423987D01*
X181096389Y-72395986D01*
X181092326Y-72392423D01*
X181068208Y-72370323D01*
X181064300Y-72366581D01*
X180866419Y-72168700D01*
X180862677Y-72164792D01*
X180840577Y-72140674D01*
X180837014Y-72136611D01*
X180809013Y-72103244D01*
X180805625Y-72099022D01*
X180785689Y-72073042D01*
X180782488Y-72068678D01*
X180621956Y-71839415D01*
X180618950Y-71834916D01*
X180601358Y-71807302D01*
X180598549Y-71802673D01*
X180576771Y-71764949D01*
X180574171Y-71760209D01*
X180559064Y-71731188D01*
X180556672Y-71726337D01*
X180544000Y-71699162D01*
X180544000Y-71919177D01*
X180543956Y-71922491D01*
X180543420Y-71942539D01*
X180543287Y-71945855D01*
X180541858Y-71972542D01*
X180541636Y-71975856D01*
X180540023Y-71995905D01*
X180539711Y-71999217D01*
X180528545Y-72103069D01*
X180527478Y-72110738D01*
X180519572Y-72156916D01*
X180518028Y-72164501D01*
X180503685Y-72225212D01*
X180501668Y-72232695D01*
X180488058Y-72277564D01*
X180485579Y-72284904D01*
X180411970Y-72482261D01*
X180408581Y-72490442D01*
X180402000Y-72504851D01*
X169404000Y-72504851D01*
X169404000Y-71542000D01*
X168570421Y-71542000D01*
X168605267Y-71672049D01*
X168606553Y-71677304D01*
X168613638Y-71709263D01*
X168614693Y-71714570D01*
X168622256Y-71757465D01*
X168623079Y-71762812D01*
X168627350Y-71795256D01*
X168627939Y-71800633D01*
X168651568Y-72070714D01*
X168651922Y-72076111D01*
X168653350Y-72108811D01*
X168653468Y-72114221D01*
X168653468Y-72157779D01*
X168653350Y-72163189D01*
X168651922Y-72195889D01*
X168651568Y-72201286D01*
X168627939Y-72471367D01*
X168627350Y-72476744D01*
X168623079Y-72509188D01*
X168622256Y-72514535D01*
X168614693Y-72557430D01*
X168613638Y-72562737D01*
X168606553Y-72594696D01*
X168605267Y-72599951D01*
X168535095Y-72861841D01*
X168533580Y-72867038D01*
X168523731Y-72898273D01*
X168521990Y-72903401D01*
X168507089Y-72944333D01*
X168505130Y-72949371D01*
X168492611Y-72979592D01*
X168490433Y-72984541D01*
X168462707Y-73044000D01*
X167281186Y-73044000D01*
X167350047Y-72975139D01*
X167480568Y-72788734D01*
X167576739Y-72582496D01*
X167635635Y-72362692D01*
X167655468Y-72136000D01*
X167635635Y-71909308D01*
X167576739Y-71689504D01*
X167480568Y-71483266D01*
X167350047Y-71296861D01*
X167350045Y-71296858D01*
X167189141Y-71135954D01*
X167002734Y-71005432D01*
X167002732Y-71005431D01*
X166796497Y-70909261D01*
X166796488Y-70909258D01*
X166576697Y-70850366D01*
X166576693Y-70850365D01*
X166576692Y-70850365D01*
X166576691Y-70850364D01*
X166576686Y-70850364D01*
X166350002Y-70830532D01*
X166349998Y-70830532D01*
X166123313Y-70850364D01*
X166123302Y-70850366D01*
X165903511Y-70909258D01*
X165903502Y-70909261D01*
X165697267Y-71005431D01*
X165697265Y-71005432D01*
X165510858Y-71135954D01*
X165349954Y-71296858D01*
X165219432Y-71483265D01*
X165219429Y-71483270D01*
X165212104Y-71498979D01*
X165165929Y-71551417D01*
X165098735Y-71570566D01*
X165031855Y-71550347D01*
X164987341Y-71498973D01*
X164980133Y-71483515D01*
X164980132Y-71483513D01*
X164929025Y-71410526D01*
X164250000Y-72089551D01*
X164250000Y-72083339D01*
X164222741Y-71981606D01*
X164170080Y-71890394D01*
X164095606Y-71815920D01*
X164004394Y-71763259D01*
X163902661Y-71736000D01*
X163896448Y-71736000D01*
X164575472Y-71056974D01*
X164502478Y-71005863D01*
X164296331Y-70909735D01*
X164296317Y-70909730D01*
X164076610Y-70850860D01*
X164076599Y-70850858D01*
X163850002Y-70831034D01*
X163849998Y-70831034D01*
X163623400Y-70850858D01*
X163623389Y-70850860D01*
X163403682Y-70909730D01*
X163403673Y-70909734D01*
X163197516Y-71005866D01*
X163197512Y-71005868D01*
X163124526Y-71056973D01*
X163124526Y-71056974D01*
X163803553Y-71736000D01*
X163797339Y-71736000D01*
X163695606Y-71763259D01*
X163604394Y-71815920D01*
X163529920Y-71890394D01*
X163477259Y-71981606D01*
X163450000Y-72083339D01*
X163450000Y-72089552D01*
X162770974Y-71410526D01*
X162770973Y-71410526D01*
X162719868Y-71483512D01*
X162719866Y-71483516D01*
X162659882Y-71612153D01*
X162613710Y-71664592D01*
X162546516Y-71683744D01*
X162479635Y-71663528D01*
X162434300Y-71610363D01*
X162423500Y-71559748D01*
X162423500Y-70535394D01*
X162418142Y-70508461D01*
X162418142Y-70508460D01*
X162418142Y-70508459D01*
X162411481Y-70474971D01*
X162404014Y-70437429D01*
X167902000Y-70437429D01*
X168008571Y-70544000D01*
X169404000Y-70544000D01*
X169404000Y-70357998D01*
X170460390Y-70357998D01*
X170460390Y-70358001D01*
X170480804Y-70643433D01*
X170541628Y-70923037D01*
X170541630Y-70923043D01*
X170541631Y-70923046D01*
X170621042Y-71135954D01*
X170641635Y-71191166D01*
X170778770Y-71442309D01*
X170778775Y-71442317D01*
X170950254Y-71671387D01*
X170950270Y-71671405D01*
X171152594Y-71873729D01*
X171152612Y-71873745D01*
X171381682Y-72045224D01*
X171381690Y-72045229D01*
X171632833Y-72182364D01*
X171632832Y-72182364D01*
X171632836Y-72182365D01*
X171632839Y-72182367D01*
X171900954Y-72282369D01*
X171900960Y-72282370D01*
X171900962Y-72282371D01*
X172180566Y-72343195D01*
X172180568Y-72343195D01*
X172180572Y-72343196D01*
X172434220Y-72361337D01*
X172465999Y-72363610D01*
X172466000Y-72363610D01*
X172466001Y-72363610D01*
X172494595Y-72361564D01*
X172751428Y-72343196D01*
X173031046Y-72282369D01*
X173299161Y-72182367D01*
X173550315Y-72045226D01*
X173779395Y-71873739D01*
X173981739Y-71671395D01*
X174153226Y-71442315D01*
X174290367Y-71191161D01*
X174390369Y-70923046D01*
X174406072Y-70850860D01*
X174451195Y-70643433D01*
X174451195Y-70643432D01*
X174451196Y-70643428D01*
X174471610Y-70358000D01*
X174451196Y-70072572D01*
X174434073Y-69993860D01*
X174390371Y-69792962D01*
X174390370Y-69792960D01*
X174390369Y-69792954D01*
X174290367Y-69524839D01*
X174285953Y-69516756D01*
X174153229Y-69273690D01*
X174153224Y-69273682D01*
X173981745Y-69044612D01*
X173981729Y-69044594D01*
X173779405Y-68842270D01*
X173779387Y-68842254D01*
X173736508Y-68810155D01*
X175546000Y-68810155D01*
X175546000Y-70108000D01*
X176826936Y-70108000D01*
X176815207Y-70136316D01*
X176786000Y-70283147D01*
X176786000Y-70432853D01*
X176815207Y-70579684D01*
X176826936Y-70608000D01*
X175546000Y-70608000D01*
X175546000Y-71905844D01*
X175552401Y-71965372D01*
X175552403Y-71965379D01*
X175602645Y-72100086D01*
X175602649Y-72100093D01*
X175688809Y-72215187D01*
X175688812Y-72215190D01*
X175803906Y-72301350D01*
X175803913Y-72301354D01*
X175938620Y-72351596D01*
X175938627Y-72351598D01*
X175998155Y-72357999D01*
X175998172Y-72358000D01*
X177296000Y-72358000D01*
X177296000Y-71077064D01*
X177324316Y-71088793D01*
X177471147Y-71118000D01*
X177620853Y-71118000D01*
X177767684Y-71088793D01*
X177796000Y-71077064D01*
X177796000Y-72358000D01*
X179093828Y-72358000D01*
X179093844Y-72357999D01*
X179153372Y-72351598D01*
X179153379Y-72351596D01*
X179288086Y-72301354D01*
X179288093Y-72301350D01*
X179403187Y-72215190D01*
X179403190Y-72215187D01*
X179489350Y-72100093D01*
X179489354Y-72100086D01*
X179539596Y-71965379D01*
X179539598Y-71965372D01*
X179545999Y-71905844D01*
X179546000Y-71905827D01*
X179546000Y-70608000D01*
X178265064Y-70608000D01*
X178265479Y-70606999D01*
X181270341Y-70606999D01*
X181270341Y-70607000D01*
X181290936Y-70842403D01*
X181290938Y-70842413D01*
X181352094Y-71070655D01*
X181352096Y-71070659D01*
X181352097Y-71070663D01*
X181408289Y-71191166D01*
X181451965Y-71284830D01*
X181451967Y-71284834D01*
X181539978Y-71410526D01*
X181587505Y-71478401D01*
X181754599Y-71645495D01*
X181817692Y-71689673D01*
X181948165Y-71781032D01*
X181948167Y-71781033D01*
X181948170Y-71781035D01*
X182162337Y-71880903D01*
X182390592Y-71942063D01*
X182578918Y-71958539D01*
X182625999Y-71962659D01*
X182626000Y-71962659D01*
X182626001Y-71962659D01*
X182665234Y-71959226D01*
X182861408Y-71942063D01*
X183089663Y-71880903D01*
X183303830Y-71781035D01*
X183497401Y-71645495D01*
X183664495Y-71478401D01*
X183800035Y-71284830D01*
X183899903Y-71070663D01*
X183961063Y-70842408D01*
X183981659Y-70607000D01*
X183961063Y-70371592D01*
X183899903Y-70143337D01*
X183800035Y-69929171D01*
X183791255Y-69916632D01*
X183664496Y-69735600D01*
X183605394Y-69676498D01*
X183542179Y-69613283D01*
X183508696Y-69551963D01*
X183513680Y-69482271D01*
X183555551Y-69426337D01*
X183586529Y-69409422D01*
X183718086Y-69360354D01*
X183718093Y-69360350D01*
X183833187Y-69274190D01*
X183833190Y-69274187D01*
X183919350Y-69159093D01*
X183919354Y-69159086D01*
X183969596Y-69024379D01*
X183969598Y-69024372D01*
X183975999Y-68964844D01*
X183976000Y-68964827D01*
X183976000Y-68317000D01*
X183059012Y-68317000D01*
X183091925Y-68259993D01*
X183126000Y-68132826D01*
X183126000Y-68001174D01*
X183091925Y-67874007D01*
X183059012Y-67817000D01*
X183976000Y-67817000D01*
X183976000Y-67169172D01*
X183975999Y-67169155D01*
X183969598Y-67109627D01*
X183969596Y-67109620D01*
X183919354Y-66974913D01*
X183919350Y-66974906D01*
X183833190Y-66859812D01*
X183833187Y-66859809D01*
X183718093Y-66773649D01*
X183718086Y-66773645D01*
X183583379Y-66723403D01*
X183583372Y-66723401D01*
X183523844Y-66717000D01*
X182876000Y-66717000D01*
X182876000Y-67633988D01*
X182818993Y-67601075D01*
X182691826Y-67567000D01*
X182560174Y-67567000D01*
X182433007Y-67601075D01*
X182376000Y-67633988D01*
X182376000Y-66717000D01*
X181728155Y-66717000D01*
X181668627Y-66723401D01*
X181668620Y-66723403D01*
X181533913Y-66773645D01*
X181533906Y-66773649D01*
X181418812Y-66859809D01*
X181418809Y-66859812D01*
X181332649Y-66974906D01*
X181332645Y-66974913D01*
X181282403Y-67109620D01*
X181282401Y-67109627D01*
X181276000Y-67169155D01*
X181276000Y-67817000D01*
X182192988Y-67817000D01*
X182160075Y-67874007D01*
X182126000Y-68001174D01*
X182126000Y-68132826D01*
X182160075Y-68259993D01*
X182192988Y-68317000D01*
X181276000Y-68317000D01*
X181276000Y-68964844D01*
X181282401Y-69024372D01*
X181282403Y-69024379D01*
X181332645Y-69159086D01*
X181332649Y-69159093D01*
X181418809Y-69274187D01*
X181418812Y-69274190D01*
X181533906Y-69360350D01*
X181533913Y-69360354D01*
X181665470Y-69409421D01*
X181721403Y-69451292D01*
X181745821Y-69516756D01*
X181730970Y-69585029D01*
X181709819Y-69613284D01*
X181587503Y-69735600D01*
X181451965Y-69929169D01*
X181451964Y-69929171D01*
X181352098Y-70143335D01*
X181352094Y-70143344D01*
X181290938Y-70371586D01*
X181290936Y-70371596D01*
X181270341Y-70606999D01*
X178265479Y-70606999D01*
X178276793Y-70579684D01*
X178306000Y-70432853D01*
X178306000Y-70283147D01*
X178276793Y-70136316D01*
X178265064Y-70108000D01*
X179546000Y-70108000D01*
X179546000Y-68810172D01*
X179545999Y-68810155D01*
X179539598Y-68750627D01*
X179539596Y-68750620D01*
X179489354Y-68615913D01*
X179489350Y-68615906D01*
X179403190Y-68500812D01*
X179403187Y-68500809D01*
X179288093Y-68414649D01*
X179288086Y-68414645D01*
X179153379Y-68364403D01*
X179153372Y-68364401D01*
X179093844Y-68358000D01*
X177796000Y-68358000D01*
X177796000Y-69638935D01*
X177767684Y-69627207D01*
X177620853Y-69598000D01*
X177471147Y-69598000D01*
X177324316Y-69627207D01*
X177296000Y-69638935D01*
X177296000Y-68358000D01*
X175998155Y-68358000D01*
X175938627Y-68364401D01*
X175938620Y-68364403D01*
X175803913Y-68414645D01*
X175803906Y-68414649D01*
X175688812Y-68500809D01*
X175688809Y-68500812D01*
X175602649Y-68615906D01*
X175602645Y-68615913D01*
X175552403Y-68750620D01*
X175552401Y-68750627D01*
X175546000Y-68810155D01*
X173736508Y-68810155D01*
X173550317Y-68670775D01*
X173550309Y-68670770D01*
X173299166Y-68533635D01*
X173299167Y-68533635D01*
X173120777Y-68467099D01*
X173031046Y-68433631D01*
X173031043Y-68433630D01*
X173031037Y-68433628D01*
X172751433Y-68372804D01*
X172466001Y-68352390D01*
X172465999Y-68352390D01*
X172180566Y-68372804D01*
X171900962Y-68433628D01*
X171632833Y-68533635D01*
X171381690Y-68670770D01*
X171381682Y-68670775D01*
X171152612Y-68842254D01*
X171152594Y-68842270D01*
X170950270Y-69044594D01*
X170950254Y-69044612D01*
X170778775Y-69273682D01*
X170778770Y-69273690D01*
X170641635Y-69524833D01*
X170541628Y-69792962D01*
X170480804Y-70072566D01*
X170460390Y-70357998D01*
X169404000Y-70357998D01*
X169404000Y-69042000D01*
X167902000Y-69042000D01*
X167902000Y-70437429D01*
X162404014Y-70437429D01*
X162399463Y-70414548D01*
X162376040Y-70358000D01*
X162352312Y-70300714D01*
X162318084Y-70249490D01*
X162283858Y-70198267D01*
X162283856Y-70198264D01*
X162193637Y-70108045D01*
X162193606Y-70108016D01*
X161978190Y-69892600D01*
X161944705Y-69831277D01*
X161949689Y-69761585D01*
X161991561Y-69705652D01*
X162055063Y-69681391D01*
X162287408Y-69661063D01*
X162515663Y-69599903D01*
X162729830Y-69500035D01*
X162923401Y-69364495D01*
X163090495Y-69197401D01*
X163220425Y-69011842D01*
X163275002Y-68968217D01*
X163344500Y-68961023D01*
X163406855Y-68992546D01*
X163423575Y-69011842D01*
X163553500Y-69197395D01*
X163553505Y-69197401D01*
X163720599Y-69364495D01*
X163817384Y-69432265D01*
X163914165Y-69500032D01*
X163914167Y-69500033D01*
X163914170Y-69500035D01*
X164128337Y-69599903D01*
X164356592Y-69661063D01*
X164533034Y-69676500D01*
X164591999Y-69681659D01*
X164592000Y-69681659D01*
X164592001Y-69681659D01*
X164650966Y-69676500D01*
X164827408Y-69661063D01*
X165055663Y-69599903D01*
X165269830Y-69500035D01*
X165463401Y-69364495D01*
X165630495Y-69197401D01*
X165766035Y-69003830D01*
X165865903Y-68789663D01*
X165927063Y-68561408D01*
X165947659Y-68326000D01*
X165927063Y-68090592D01*
X165914579Y-68044000D01*
X167902000Y-68044000D01*
X169404000Y-68044000D01*
X170402000Y-68044000D01*
X170553620Y-68044000D01*
X170797863Y-67861162D01*
X170801450Y-67858575D01*
X170823430Y-67843313D01*
X170827107Y-67840856D01*
X170857083Y-67821589D01*
X170860853Y-67819260D01*
X170883898Y-67805586D01*
X170887747Y-67803394D01*
X171170194Y-67649166D01*
X171174118Y-67647113D01*
X171198082Y-67635118D01*
X171202079Y-67633206D01*
X171234495Y-67618404D01*
X171238551Y-67616639D01*
X171263272Y-67606400D01*
X171267389Y-67604780D01*
X171568869Y-67492334D01*
X171573037Y-67490864D01*
X171598415Y-67482416D01*
X171602636Y-67481094D01*
X171636826Y-67471052D01*
X171641100Y-67469879D01*
X171667076Y-67463248D01*
X171671388Y-67462229D01*
X171874706Y-67418000D01*
X170402000Y-67418000D01*
X170402000Y-68044000D01*
X169404000Y-68044000D01*
X169404000Y-67418000D01*
X167902000Y-67418000D01*
X167902000Y-68044000D01*
X165914579Y-68044000D01*
X165865903Y-67862337D01*
X165766035Y-67648171D01*
X165765295Y-67647113D01*
X165630494Y-67454597D01*
X165463402Y-67287506D01*
X165463395Y-67287501D01*
X165269834Y-67151967D01*
X165269830Y-67151965D01*
X165269828Y-67151964D01*
X165055663Y-67052097D01*
X165055659Y-67052096D01*
X165055655Y-67052094D01*
X164827413Y-66990938D01*
X164827403Y-66990936D01*
X164592001Y-66970341D01*
X164591999Y-66970341D01*
X164356596Y-66990936D01*
X164356586Y-66990938D01*
X164128344Y-67052094D01*
X164128335Y-67052098D01*
X163914171Y-67151964D01*
X163914169Y-67151965D01*
X163720597Y-67287505D01*
X163553505Y-67454597D01*
X163423575Y-67640158D01*
X163368998Y-67683783D01*
X163299500Y-67690977D01*
X163237145Y-67659454D01*
X163220425Y-67640158D01*
X163090494Y-67454597D01*
X162923402Y-67287506D01*
X162923395Y-67287501D01*
X162729834Y-67151967D01*
X162729830Y-67151965D01*
X162729828Y-67151964D01*
X162515663Y-67052097D01*
X162515659Y-67052096D01*
X162515655Y-67052094D01*
X162287413Y-66990938D01*
X162287403Y-66990936D01*
X162052001Y-66970341D01*
X162051999Y-66970341D01*
X161816596Y-66990936D01*
X161816586Y-66990938D01*
X161588344Y-67052094D01*
X161588335Y-67052098D01*
X161374171Y-67151964D01*
X161374169Y-67151965D01*
X161180600Y-67287503D01*
X161058673Y-67409430D01*
X160997350Y-67442914D01*
X160927658Y-67437930D01*
X160871725Y-67396058D01*
X160854810Y-67365081D01*
X160805797Y-67233671D01*
X160805793Y-67233664D01*
X160719547Y-67118455D01*
X160719544Y-67118452D01*
X160604335Y-67032206D01*
X160604328Y-67032202D01*
X160469482Y-66981908D01*
X160469483Y-66981908D01*
X160409883Y-66975501D01*
X160409881Y-66975500D01*
X160409873Y-66975500D01*
X160409864Y-66975500D01*
X158614129Y-66975500D01*
X158614123Y-66975501D01*
X158554516Y-66981908D01*
X158419671Y-67032202D01*
X158419664Y-67032206D01*
X158304455Y-67118452D01*
X158304452Y-67118455D01*
X158218206Y-67233664D01*
X158218202Y-67233671D01*
X158167908Y-67368517D01*
X158161501Y-67428116D01*
X158161500Y-67428135D01*
X158161500Y-69223870D01*
X158161501Y-69223876D01*
X158167908Y-69283483D01*
X158218202Y-69418328D01*
X158218206Y-69418335D01*
X158304452Y-69533544D01*
X158304455Y-69533547D01*
X158419664Y-69619793D01*
X158419671Y-69619797D01*
X158554517Y-69670091D01*
X158554516Y-69670091D01*
X158561444Y-69670835D01*
X158614127Y-69676500D01*
X159941547Y-69676499D01*
X160008586Y-69696184D01*
X160029228Y-69712818D01*
X161136181Y-70819771D01*
X161169666Y-70881094D01*
X161172500Y-70907452D01*
X161172500Y-71169951D01*
X161152815Y-71236990D01*
X161100011Y-71282745D01*
X161030853Y-71292689D01*
X160967297Y-71263664D01*
X160960819Y-71257632D01*
X160839141Y-71135954D01*
X160652734Y-71005432D01*
X160652732Y-71005431D01*
X160446497Y-70909261D01*
X160446488Y-70909258D01*
X160226697Y-70850366D01*
X160226693Y-70850365D01*
X160226692Y-70850365D01*
X160226691Y-70850364D01*
X160226686Y-70850364D01*
X160000002Y-70830532D01*
X159999998Y-70830532D01*
X159773313Y-70850364D01*
X159773302Y-70850366D01*
X159553511Y-70909258D01*
X159553502Y-70909261D01*
X159347267Y-71005431D01*
X159347265Y-71005432D01*
X159160858Y-71135954D01*
X158999954Y-71296858D01*
X158869432Y-71483265D01*
X158869429Y-71483270D01*
X158862104Y-71498979D01*
X158815929Y-71551417D01*
X158748735Y-71570566D01*
X158681855Y-71550347D01*
X158637341Y-71498973D01*
X158630133Y-71483515D01*
X158630132Y-71483513D01*
X158579025Y-71410526D01*
X157900000Y-72089551D01*
X157900000Y-72083339D01*
X157872741Y-71981606D01*
X157820080Y-71890394D01*
X157745606Y-71815920D01*
X157654394Y-71763259D01*
X157552661Y-71736000D01*
X157546448Y-71736000D01*
X158225472Y-71056974D01*
X158152478Y-71005863D01*
X157946331Y-70909735D01*
X157946317Y-70909730D01*
X157726610Y-70850860D01*
X157726599Y-70850858D01*
X157500002Y-70831034D01*
X157499998Y-70831034D01*
X157273400Y-70850858D01*
X157273389Y-70850860D01*
X157053682Y-70909730D01*
X157053673Y-70909734D01*
X156847516Y-71005866D01*
X156847512Y-71005868D01*
X156774526Y-71056973D01*
X156774526Y-71056974D01*
X157453553Y-71736000D01*
X157447339Y-71736000D01*
X157345606Y-71763259D01*
X157254394Y-71815920D01*
X157179920Y-71890394D01*
X157127259Y-71981606D01*
X157100000Y-72083339D01*
X157100000Y-72089552D01*
X156420974Y-71410526D01*
X156420973Y-71410526D01*
X156369868Y-71483512D01*
X156369866Y-71483516D01*
X156273734Y-71689673D01*
X156273730Y-71689682D01*
X156214860Y-71909389D01*
X156214858Y-71909400D01*
X156195034Y-72135997D01*
X156195034Y-72136002D01*
X156214858Y-72362599D01*
X156214860Y-72362610D01*
X156273730Y-72582317D01*
X156273735Y-72582331D01*
X156369863Y-72788478D01*
X156420974Y-72861472D01*
X157100000Y-72182446D01*
X157100000Y-72188661D01*
X157127259Y-72290394D01*
X157179920Y-72381606D01*
X157254394Y-72456080D01*
X157345606Y-72508741D01*
X157447339Y-72536000D01*
X157453553Y-72536000D01*
X156774526Y-73215025D01*
X156847513Y-73266132D01*
X156847521Y-73266136D01*
X157053668Y-73362264D01*
X157053682Y-73362269D01*
X157273389Y-73421139D01*
X157273400Y-73421141D01*
X157499998Y-73440966D01*
X157500002Y-73440966D01*
X157726599Y-73421141D01*
X157726610Y-73421139D01*
X157946317Y-73362269D01*
X157946331Y-73362264D01*
X158152478Y-73266136D01*
X158225471Y-73215024D01*
X157546447Y-72536000D01*
X157552661Y-72536000D01*
X157654394Y-72508741D01*
X157745606Y-72456080D01*
X157820080Y-72381606D01*
X157872741Y-72290394D01*
X157900000Y-72188661D01*
X157900000Y-72182447D01*
X158579024Y-72861471D01*
X158630134Y-72788481D01*
X158637340Y-72773028D01*
X158683511Y-72720587D01*
X158750704Y-72701433D01*
X158817585Y-72721646D01*
X158862105Y-72773022D01*
X158869430Y-72788730D01*
X158869432Y-72788734D01*
X158999954Y-72975141D01*
X159160858Y-73136045D01*
X159160861Y-73136047D01*
X159347266Y-73266568D01*
X159553504Y-73362739D01*
X159773308Y-73421635D01*
X159930791Y-73435413D01*
X159999998Y-73441468D01*
X160000000Y-73441468D01*
X160000002Y-73441468D01*
X160056673Y-73436509D01*
X160226692Y-73421635D01*
X160295048Y-73403319D01*
X160364897Y-73404982D01*
X160414822Y-73435413D01*
X161993733Y-75014324D01*
X162027218Y-75075647D01*
X162022234Y-75145339D01*
X162005319Y-75176316D01*
X161925704Y-75282668D01*
X161925702Y-75282671D01*
X161915127Y-75311026D01*
X161873256Y-75366960D01*
X161807791Y-75391377D01*
X161739518Y-75376525D01*
X161726060Y-75368011D01*
X161543279Y-75235213D01*
X161339568Y-75131417D01*
X161122124Y-75060765D01*
X161032000Y-75046490D01*
X161032000Y-76034252D01*
X160994292Y-76012482D01*
X160854409Y-75975000D01*
X160709591Y-75975000D01*
X160569708Y-76012482D01*
X160532000Y-76034252D01*
X160532000Y-75046490D01*
X160531999Y-75046490D01*
X160441875Y-75060765D01*
X160224431Y-75131417D01*
X160020723Y-75235211D01*
X159835757Y-75369597D01*
X159674097Y-75531257D01*
X159612627Y-75615864D01*
X159557297Y-75658529D01*
X159487684Y-75664508D01*
X159425889Y-75631902D01*
X159411991Y-75615864D01*
X159350286Y-75530934D01*
X159188566Y-75369214D01*
X159003538Y-75234783D01*
X158914271Y-75189299D01*
X158799755Y-75130950D01*
X158582248Y-75060278D01*
X158412826Y-75033444D01*
X158356354Y-75024500D01*
X158127646Y-75024500D01*
X158052349Y-75036426D01*
X157901753Y-75060278D01*
X157901750Y-75060278D01*
X157684244Y-75130950D01*
X157480461Y-75234783D01*
X157414550Y-75282671D01*
X157295434Y-75369214D01*
X157295432Y-75369216D01*
X157295431Y-75369216D01*
X157133716Y-75530931D01*
X157133716Y-75530932D01*
X157133714Y-75530934D01*
X157124221Y-75544000D01*
X156999283Y-75715961D01*
X156895450Y-75919744D01*
X156824778Y-76137250D01*
X156824778Y-76137253D01*
X156789000Y-76363146D01*
X156789000Y-76686853D01*
X156824778Y-76912746D01*
X156824778Y-76912749D01*
X156895450Y-77130255D01*
X156932256Y-77202490D01*
X156999283Y-77334038D01*
X157133714Y-77519066D01*
X157295434Y-77680786D01*
X157480462Y-77815217D01*
X157656261Y-77904791D01*
X157684244Y-77919049D01*
X157901751Y-77989721D01*
X157901752Y-77989721D01*
X157901755Y-77989722D01*
X158127646Y-78025500D01*
X158127647Y-78025500D01*
X158356353Y-78025500D01*
X158356354Y-78025500D01*
X158582245Y-77989722D01*
X158582248Y-77989721D01*
X158582249Y-77989721D01*
X158799755Y-77919049D01*
X158799755Y-77919048D01*
X158799758Y-77919048D01*
X159003538Y-77815217D01*
X159188566Y-77680786D01*
X159350286Y-77519066D01*
X159411992Y-77434134D01*
X159467319Y-77391470D01*
X159536932Y-77385491D01*
X159598727Y-77418096D01*
X159612626Y-77434135D01*
X159674097Y-77518741D01*
X159674097Y-77518742D01*
X159835757Y-77680402D01*
X160020723Y-77814788D01*
X160224429Y-77918582D01*
X160441871Y-77989234D01*
X160532000Y-78003509D01*
X160532000Y-77015747D01*
X160569708Y-77037518D01*
X160709591Y-77075000D01*
X160854409Y-77075000D01*
X160994292Y-77037518D01*
X161032000Y-77015747D01*
X161032000Y-78003508D01*
X161122128Y-77989234D01*
X161339570Y-77918582D01*
X161543276Y-77814788D01*
X161726059Y-77681988D01*
X161791865Y-77658508D01*
X161859919Y-77674333D01*
X161908614Y-77724439D01*
X161915127Y-77738974D01*
X161925701Y-77767326D01*
X161925706Y-77767335D01*
X162011952Y-77882544D01*
X162011955Y-77882547D01*
X162127164Y-77968793D01*
X162127171Y-77968797D01*
X162262017Y-78019091D01*
X162262016Y-78019091D01*
X162268944Y-78019835D01*
X162321627Y-78025500D01*
X164322372Y-78025499D01*
X164381983Y-78019091D01*
X164516831Y-77968796D01*
X164632046Y-77882546D01*
X164718296Y-77767331D01*
X164768591Y-77632483D01*
X164775000Y-77572873D01*
X164774999Y-75477128D01*
X164770874Y-75438753D01*
X164783281Y-75369994D01*
X164830892Y-75318857D01*
X164894164Y-75301500D01*
X165805548Y-75301500D01*
X165872587Y-75321185D01*
X165893229Y-75337819D01*
X169264181Y-78708771D01*
X169297666Y-78770094D01*
X169300500Y-78796452D01*
X169300500Y-89971486D01*
X169280815Y-90038525D01*
X169228011Y-90084280D01*
X169158853Y-90094224D01*
X169131707Y-90087113D01*
X169003857Y-90037584D01*
X168974940Y-90026382D01*
X168756243Y-89985500D01*
X168533757Y-89985500D01*
X168315060Y-90026382D01*
X168183864Y-90077207D01*
X168107601Y-90106752D01*
X168107595Y-90106754D01*
X167918439Y-90223874D01*
X167918437Y-90223876D01*
X167754020Y-90373761D01*
X167619943Y-90551308D01*
X167619938Y-90551316D01*
X167520775Y-90750461D01*
X167520769Y-90750476D01*
X167459885Y-90964462D01*
X167459884Y-90964464D01*
X167439357Y-91185999D01*
X167439357Y-91186000D01*
X167459884Y-91407535D01*
X167459885Y-91407537D01*
X167520769Y-91621523D01*
X167520775Y-91621538D01*
X167619938Y-91820683D01*
X167619943Y-91820691D01*
X167754020Y-91998238D01*
X167918437Y-92148123D01*
X167918439Y-92148125D01*
X168107595Y-92265245D01*
X168107596Y-92265245D01*
X168107599Y-92265247D01*
X168315060Y-92345618D01*
X168533757Y-92386500D01*
X168533759Y-92386500D01*
X168756241Y-92386500D01*
X168756243Y-92386500D01*
X168974940Y-92345618D01*
X169131707Y-92284885D01*
X169201330Y-92279024D01*
X169263070Y-92311734D01*
X169297325Y-92372631D01*
X169300500Y-92400513D01*
X169300500Y-103434021D01*
X169280815Y-103501060D01*
X169228011Y-103546815D01*
X169158853Y-103556759D01*
X169131707Y-103549648D01*
X168974807Y-103488865D01*
X168756193Y-103448000D01*
X168533807Y-103448000D01*
X168315195Y-103488865D01*
X168107824Y-103569200D01*
X168107823Y-103569201D01*
X167991671Y-103641119D01*
X168645000Y-104294447D01*
X168648553Y-104298000D01*
X168598922Y-104298000D01*
X168509905Y-104321852D01*
X168430095Y-104367930D01*
X168364930Y-104433095D01*
X168318852Y-104512905D01*
X168295000Y-104601922D01*
X168295000Y-104694078D01*
X168318852Y-104783095D01*
X168364930Y-104862905D01*
X168430095Y-104928070D01*
X168509905Y-104974148D01*
X168598922Y-104998000D01*
X168648551Y-104998000D01*
X167991672Y-105654879D01*
X167991672Y-105654880D01*
X168107821Y-105726797D01*
X168107822Y-105726798D01*
X168315195Y-105807134D01*
X168533807Y-105848000D01*
X168756193Y-105848000D01*
X168974807Y-105807134D01*
X169113044Y-105753580D01*
X169182667Y-105747717D01*
X169244408Y-105780426D01*
X169278663Y-105841322D01*
X169274558Y-105911071D01*
X169245520Y-105956887D01*
X168974892Y-106227515D01*
X168913569Y-106261000D01*
X168864426Y-106261722D01*
X168756243Y-106241500D01*
X168533757Y-106241500D01*
X168315060Y-106282382D01*
X168183864Y-106333207D01*
X168107601Y-106362752D01*
X168107595Y-106362754D01*
X167918439Y-106479874D01*
X167918437Y-106479876D01*
X167754020Y-106629761D01*
X167650212Y-106767227D01*
X167594103Y-106808863D01*
X167551258Y-106816500D01*
X167253389Y-106816500D01*
X167192971Y-106828518D01*
X167149743Y-106837116D01*
X167132546Y-106840537D01*
X167018716Y-106887687D01*
X167018707Y-106887692D01*
X166916268Y-106956140D01*
X166872705Y-106999703D01*
X166829142Y-107043267D01*
X166829139Y-107043270D01*
X161357033Y-112515375D01*
X161295710Y-112548860D01*
X161231034Y-112545625D01*
X161122248Y-112510278D01*
X160904271Y-112475754D01*
X160896354Y-112474500D01*
X160667646Y-112474500D01*
X160627188Y-112480908D01*
X160441753Y-112510278D01*
X160441750Y-112510278D01*
X160224244Y-112580950D01*
X160020461Y-112684783D01*
X159837759Y-112817525D01*
X159771952Y-112841005D01*
X159703898Y-112825180D01*
X159655203Y-112775074D01*
X159648690Y-112760538D01*
X159638296Y-112732669D01*
X159638293Y-112732664D01*
X159552047Y-112617455D01*
X159552044Y-112617452D01*
X159436835Y-112531206D01*
X159436828Y-112531202D01*
X159301982Y-112480908D01*
X159301983Y-112480908D01*
X159242383Y-112474501D01*
X159242381Y-112474500D01*
X159242373Y-112474500D01*
X159242364Y-112474500D01*
X157241629Y-112474500D01*
X157241623Y-112474501D01*
X157182016Y-112480908D01*
X157047171Y-112531202D01*
X157047164Y-112531206D01*
X156931955Y-112617452D01*
X156931952Y-112617455D01*
X156845706Y-112732664D01*
X156845702Y-112732671D01*
X156795408Y-112867517D01*
X156789001Y-112927116D01*
X156789000Y-112927135D01*
X156789000Y-115022870D01*
X156789001Y-115022876D01*
X156795408Y-115082483D01*
X156845702Y-115217328D01*
X156845706Y-115217335D01*
X156931952Y-115332544D01*
X156931955Y-115332547D01*
X157047164Y-115418793D01*
X157047171Y-115418797D01*
X157182017Y-115469091D01*
X157182016Y-115469091D01*
X157188944Y-115469835D01*
X157241627Y-115475500D01*
X157973547Y-115475499D01*
X158040586Y-115495183D01*
X158061227Y-115511817D01*
X159280141Y-116730732D01*
X159280142Y-116730733D01*
X159367266Y-116817857D01*
X159367269Y-116817860D01*
X159367271Y-116817861D01*
X159465149Y-116883261D01*
X159469712Y-116886310D01*
X159469713Y-116886310D01*
X159469714Y-116886311D01*
X159583548Y-116933463D01*
X159592814Y-116935306D01*
X159607747Y-116938277D01*
X159669658Y-116970662D01*
X159704232Y-117031377D01*
X159700493Y-117101147D01*
X159671238Y-117147575D01*
X159547951Y-117270862D01*
X159417432Y-117457265D01*
X159417431Y-117457267D01*
X159321261Y-117663502D01*
X159321258Y-117663511D01*
X159262366Y-117883302D01*
X159262364Y-117883313D01*
X159242532Y-118109998D01*
X159242532Y-118110001D01*
X159262364Y-118336686D01*
X159262366Y-118336697D01*
X159321258Y-118556488D01*
X159321261Y-118556497D01*
X159417431Y-118762732D01*
X159417432Y-118762734D01*
X159547954Y-118949141D01*
X159708858Y-119110045D01*
X159708861Y-119110047D01*
X159895266Y-119240568D01*
X160101504Y-119336739D01*
X160321308Y-119395635D01*
X160483230Y-119409801D01*
X160547998Y-119415468D01*
X160548000Y-119415468D01*
X160548002Y-119415468D01*
X160604673Y-119410509D01*
X160774692Y-119395635D01*
X160994496Y-119336739D01*
X161200734Y-119240568D01*
X161387139Y-119110047D01*
X161548047Y-118949139D01*
X161678568Y-118762734D01*
X161685893Y-118747024D01*
X161732064Y-118694586D01*
X161799257Y-118675433D01*
X161866138Y-118695648D01*
X161910657Y-118747024D01*
X161917864Y-118762480D01*
X161968974Y-118835472D01*
X162648000Y-118156446D01*
X162648000Y-118162661D01*
X162675259Y-118264394D01*
X162727920Y-118355606D01*
X162802394Y-118430080D01*
X162893606Y-118482741D01*
X162995339Y-118510000D01*
X163001553Y-118510000D01*
X162322526Y-119189025D01*
X162395513Y-119240132D01*
X162395521Y-119240136D01*
X162601668Y-119336264D01*
X162601682Y-119336269D01*
X162821389Y-119395139D01*
X162821400Y-119395141D01*
X163047998Y-119414966D01*
X163048002Y-119414966D01*
X163274599Y-119395141D01*
X163274610Y-119395139D01*
X163494317Y-119336269D01*
X163494331Y-119336264D01*
X163700478Y-119240136D01*
X163773471Y-119189024D01*
X163094447Y-118510000D01*
X163100661Y-118510000D01*
X163202394Y-118482741D01*
X163293606Y-118430080D01*
X163368080Y-118355606D01*
X163420741Y-118264394D01*
X163448000Y-118162661D01*
X163448000Y-118156447D01*
X164127024Y-118835471D01*
X164178136Y-118762478D01*
X164274264Y-118556331D01*
X164274269Y-118556317D01*
X164333139Y-118336610D01*
X164333141Y-118336599D01*
X164352966Y-118110002D01*
X164352966Y-118109997D01*
X164333141Y-117883400D01*
X164333139Y-117883389D01*
X164329632Y-117870301D01*
X167902000Y-117870301D01*
X167902000Y-118044000D01*
X169404000Y-118044000D01*
X169404000Y-117922155D01*
X170466000Y-117922155D01*
X170466000Y-119220000D01*
X171746936Y-119220000D01*
X171735207Y-119248316D01*
X171706000Y-119395147D01*
X171706000Y-119544853D01*
X171735207Y-119691684D01*
X171746936Y-119720000D01*
X170466000Y-119720000D01*
X170466000Y-121017844D01*
X170472401Y-121077372D01*
X170472403Y-121077379D01*
X170522645Y-121212086D01*
X170522649Y-121212093D01*
X170608809Y-121327187D01*
X170608812Y-121327190D01*
X170723906Y-121413350D01*
X170723913Y-121413354D01*
X170858620Y-121463596D01*
X170858627Y-121463598D01*
X170918155Y-121469999D01*
X170918172Y-121470000D01*
X172216000Y-121470000D01*
X172216000Y-120189064D01*
X172244316Y-120200793D01*
X172391147Y-120230000D01*
X172540853Y-120230000D01*
X172687684Y-120200793D01*
X172716000Y-120189064D01*
X172716000Y-121470000D01*
X174013828Y-121470000D01*
X174013844Y-121469999D01*
X174073372Y-121463598D01*
X174073379Y-121463596D01*
X174208086Y-121413354D01*
X174208093Y-121413350D01*
X174323187Y-121327190D01*
X174323190Y-121327187D01*
X174409350Y-121212093D01*
X174409354Y-121212086D01*
X174459596Y-121077379D01*
X174459598Y-121077372D01*
X174465999Y-121017844D01*
X174466000Y-121017827D01*
X174466000Y-119720000D01*
X173185064Y-119720000D01*
X173196793Y-119691684D01*
X173226000Y-119544853D01*
X173226000Y-119469998D01*
X175540390Y-119469998D01*
X175540390Y-119470001D01*
X175560804Y-119755433D01*
X175621628Y-120035037D01*
X175621630Y-120035043D01*
X175621631Y-120035046D01*
X175694345Y-120230000D01*
X175721635Y-120303166D01*
X175858770Y-120554309D01*
X175858775Y-120554317D01*
X176030254Y-120783387D01*
X176030270Y-120783405D01*
X176232594Y-120985729D01*
X176232612Y-120985745D01*
X176461682Y-121157224D01*
X176461690Y-121157229D01*
X176712833Y-121294364D01*
X176712832Y-121294364D01*
X176712836Y-121294365D01*
X176712839Y-121294367D01*
X176980954Y-121394369D01*
X176980960Y-121394370D01*
X176980962Y-121394371D01*
X177260566Y-121455195D01*
X177260568Y-121455195D01*
X177260572Y-121455196D01*
X177514220Y-121473337D01*
X177545999Y-121475610D01*
X177546000Y-121475610D01*
X177546001Y-121475610D01*
X177574595Y-121473564D01*
X177831428Y-121455196D01*
X177972095Y-121424596D01*
X178111037Y-121394371D01*
X178111037Y-121394370D01*
X178111046Y-121394369D01*
X178379161Y-121294367D01*
X178630315Y-121157226D01*
X178859395Y-120985739D01*
X179061739Y-120783395D01*
X179233226Y-120554315D01*
X179370367Y-120303161D01*
X179470369Y-120035046D01*
X179531196Y-119755428D01*
X179551610Y-119470000D01*
X179531196Y-119184572D01*
X179500181Y-119042000D01*
X179470371Y-118904962D01*
X179470370Y-118904960D01*
X179470369Y-118904954D01*
X179370367Y-118636839D01*
X179326496Y-118556496D01*
X179233229Y-118385690D01*
X179233224Y-118385682D01*
X179061745Y-118156612D01*
X179061729Y-118156594D01*
X178859405Y-117954270D01*
X178859387Y-117954254D01*
X178630317Y-117782775D01*
X178630309Y-117782770D01*
X178379166Y-117645635D01*
X178379167Y-117645635D01*
X178271915Y-117605632D01*
X178111046Y-117545631D01*
X178111043Y-117545630D01*
X178111037Y-117545628D01*
X177831433Y-117484804D01*
X177546001Y-117464390D01*
X177545999Y-117464390D01*
X177260566Y-117484804D01*
X176980962Y-117545628D01*
X176712833Y-117645635D01*
X176461690Y-117782770D01*
X176461682Y-117782775D01*
X176232612Y-117954254D01*
X176232594Y-117954270D01*
X176030270Y-118156594D01*
X176030254Y-118156612D01*
X175858775Y-118385682D01*
X175858770Y-118385690D01*
X175721635Y-118636833D01*
X175621628Y-118904962D01*
X175560804Y-119184566D01*
X175540390Y-119469998D01*
X173226000Y-119469998D01*
X173226000Y-119395147D01*
X173196793Y-119248316D01*
X173185064Y-119220000D01*
X174466000Y-119220000D01*
X174466000Y-117922172D01*
X174465999Y-117922155D01*
X174459598Y-117862627D01*
X174459596Y-117862620D01*
X174409354Y-117727913D01*
X174409350Y-117727906D01*
X174323190Y-117612812D01*
X174323187Y-117612809D01*
X174208093Y-117526649D01*
X174208086Y-117526645D01*
X174073379Y-117476403D01*
X174073372Y-117476401D01*
X174013844Y-117470000D01*
X172716000Y-117470000D01*
X172716000Y-118750935D01*
X172687684Y-118739207D01*
X172540853Y-118710000D01*
X172391147Y-118710000D01*
X172244316Y-118739207D01*
X172216000Y-118750935D01*
X172216000Y-117470000D01*
X170918155Y-117470000D01*
X170858627Y-117476401D01*
X170858620Y-117476403D01*
X170723913Y-117526645D01*
X170723906Y-117526649D01*
X170608812Y-117612809D01*
X170608809Y-117612812D01*
X170522649Y-117727906D01*
X170522645Y-117727913D01*
X170472403Y-117862620D01*
X170472401Y-117862627D01*
X170466000Y-117922155D01*
X169404000Y-117922155D01*
X169404000Y-117373481D01*
X175402000Y-117373481D01*
X175539516Y-117235965D01*
X175542701Y-117232892D01*
X175562308Y-117214637D01*
X175565605Y-117211675D01*
X175592537Y-117188340D01*
X175595934Y-117185501D01*
X175616776Y-117168707D01*
X175620268Y-117165995D01*
X175877863Y-116973162D01*
X175881450Y-116970575D01*
X175903430Y-116955313D01*
X175907107Y-116952856D01*
X175937083Y-116933589D01*
X175940853Y-116931260D01*
X175963898Y-116917586D01*
X175967747Y-116915394D01*
X176250194Y-116761166D01*
X176254118Y-116759113D01*
X176278082Y-116747118D01*
X176282079Y-116745206D01*
X176314495Y-116730404D01*
X176318551Y-116728639D01*
X176343272Y-116718400D01*
X176347389Y-116716780D01*
X176648869Y-116604334D01*
X176653037Y-116602864D01*
X176678415Y-116594416D01*
X176682636Y-116593094D01*
X176715783Y-116583358D01*
X176674425Y-116542000D01*
X175402000Y-116542000D01*
X175402000Y-117373481D01*
X169404000Y-117373481D01*
X169404000Y-116598971D01*
X168619533Y-117383437D01*
X168619513Y-117383463D01*
X168462094Y-117540883D01*
X168457683Y-117545082D01*
X168430380Y-117569827D01*
X168425767Y-117573806D01*
X168421318Y-117577455D01*
X168417257Y-117597880D01*
X168384874Y-117659792D01*
X168343095Y-117688252D01*
X168144038Y-117770710D01*
X168053838Y-117830981D01*
X167987161Y-117851859D01*
X167972793Y-117851282D01*
X167954005Y-117849431D01*
X167916747Y-117864866D01*
X167911066Y-117867058D01*
X167902000Y-117870301D01*
X164329632Y-117870301D01*
X164274269Y-117663682D01*
X164274264Y-117663668D01*
X164178136Y-117457521D01*
X164178132Y-117457513D01*
X164127025Y-117384526D01*
X163448000Y-118063551D01*
X163448000Y-118057339D01*
X163420741Y-117955606D01*
X163368080Y-117864394D01*
X163293606Y-117789920D01*
X163202394Y-117737259D01*
X163100661Y-117710000D01*
X163094448Y-117710000D01*
X163810628Y-116993819D01*
X163871951Y-116960334D01*
X163898309Y-116957500D01*
X167436607Y-116957500D01*
X167497029Y-116945481D01*
X167557452Y-116933463D01*
X167557455Y-116933461D01*
X167557458Y-116933461D01*
X167590787Y-116919654D01*
X167590786Y-116919654D01*
X167590792Y-116919652D01*
X167671286Y-116886312D01*
X167722509Y-116852084D01*
X167773733Y-116817858D01*
X167860858Y-116730733D01*
X167860858Y-116730731D01*
X167871066Y-116720524D01*
X167871067Y-116720521D01*
X169047588Y-115544000D01*
X170458971Y-115544000D01*
X171904000Y-115544000D01*
X172902000Y-115544000D01*
X174404000Y-115544000D01*
X175402000Y-115544000D01*
X175919786Y-115544000D01*
X175914000Y-115514912D01*
X175914000Y-114042000D01*
X175402000Y-114042000D01*
X175402000Y-115544000D01*
X174404000Y-115544000D01*
X174404000Y-114042000D01*
X172902000Y-114042000D01*
X172902000Y-115544000D01*
X171904000Y-115544000D01*
X171904000Y-114098971D01*
X170458971Y-115544000D01*
X169047588Y-115544000D01*
X171547588Y-113044000D01*
X172958971Y-113044000D01*
X174404000Y-113044000D01*
X175402000Y-113044000D01*
X175914000Y-113044000D01*
X175914000Y-111542000D01*
X175402000Y-111542000D01*
X175402000Y-113044000D01*
X174404000Y-113044000D01*
X174404000Y-111598971D01*
X172958971Y-113044000D01*
X171547588Y-113044000D01*
X175935107Y-108656482D01*
X175996428Y-108622999D01*
X176045570Y-108622276D01*
X176153757Y-108642500D01*
X176153759Y-108642500D01*
X176376241Y-108642500D01*
X176376243Y-108642500D01*
X176594940Y-108601618D01*
X176802401Y-108521247D01*
X176848723Y-108492565D01*
X176916082Y-108474009D01*
X176982781Y-108494817D01*
X177027643Y-108548381D01*
X177038000Y-108597992D01*
X177038000Y-115316000D01*
X177546000Y-115824000D01*
X183590638Y-115824000D01*
X183657677Y-115843685D01*
X183678319Y-115860319D01*
X184113681Y-116295681D01*
X184147166Y-116357004D01*
X184150000Y-116383362D01*
X184150000Y-117964481D01*
X184130315Y-118031520D01*
X184077511Y-118077275D01*
X184008353Y-118087219D01*
X183944797Y-118058194D01*
X183925570Y-118034336D01*
X183924669Y-118035011D01*
X183833190Y-117912812D01*
X183833187Y-117912809D01*
X183718093Y-117826649D01*
X183718086Y-117826645D01*
X183583379Y-117776403D01*
X183583372Y-117776401D01*
X183523844Y-117770000D01*
X182876000Y-117770000D01*
X182876000Y-118686988D01*
X182818993Y-118654075D01*
X182691826Y-118620000D01*
X182560174Y-118620000D01*
X182433007Y-118654075D01*
X182376000Y-118686988D01*
X182376000Y-117770000D01*
X181728155Y-117770000D01*
X181668627Y-117776401D01*
X181668620Y-117776403D01*
X181533913Y-117826645D01*
X181533906Y-117826649D01*
X181418812Y-117912809D01*
X181418809Y-117912812D01*
X181332649Y-118027906D01*
X181332645Y-118027913D01*
X181282403Y-118162620D01*
X181282401Y-118162627D01*
X181276000Y-118222155D01*
X181276000Y-118870000D01*
X182192988Y-118870000D01*
X182160075Y-118927007D01*
X182126000Y-119054174D01*
X182126000Y-119185826D01*
X182160075Y-119312993D01*
X182192988Y-119370000D01*
X181276000Y-119370000D01*
X181276000Y-120017844D01*
X181282401Y-120077372D01*
X181282403Y-120077379D01*
X181332645Y-120212086D01*
X181332649Y-120212093D01*
X181418809Y-120327187D01*
X181418812Y-120327190D01*
X181533906Y-120413350D01*
X181533913Y-120413354D01*
X181665470Y-120462421D01*
X181721403Y-120504292D01*
X181745821Y-120569756D01*
X181730970Y-120638029D01*
X181709819Y-120666284D01*
X181587503Y-120788600D01*
X181451965Y-120982169D01*
X181451964Y-120982171D01*
X181352098Y-121196335D01*
X181352094Y-121196344D01*
X181290938Y-121424586D01*
X181290936Y-121424596D01*
X181270341Y-121659999D01*
X181270341Y-121660000D01*
X181290936Y-121895403D01*
X181290938Y-121895413D01*
X181352094Y-122123655D01*
X181352096Y-122123659D01*
X181352097Y-122123663D01*
X181434802Y-122301023D01*
X181451965Y-122337830D01*
X181451967Y-122337834D01*
X181461776Y-122351842D01*
X181587505Y-122531401D01*
X181754599Y-122698495D01*
X181782911Y-122718319D01*
X181948165Y-122834032D01*
X181948167Y-122834033D01*
X181948170Y-122834035D01*
X182162337Y-122933903D01*
X182162343Y-122933904D01*
X182162344Y-122933905D01*
X182208323Y-122946225D01*
X182267984Y-122982590D01*
X182298513Y-123045436D01*
X182290219Y-123114812D01*
X182245733Y-123168690D01*
X182179182Y-123189965D01*
X182176230Y-123190000D01*
X165064163Y-123190000D01*
X164997124Y-123170315D01*
X164951369Y-123117511D01*
X164941425Y-123048353D01*
X164970450Y-122984797D01*
X165029228Y-122947023D01*
X165032070Y-122946225D01*
X165048815Y-122941737D01*
X165055663Y-122939903D01*
X165269830Y-122840035D01*
X165463401Y-122704495D01*
X165630495Y-122537401D01*
X165766035Y-122343830D01*
X165865903Y-122129663D01*
X165882961Y-122066000D01*
X167902000Y-122066000D01*
X169404000Y-122066000D01*
X169404000Y-121542000D01*
X167902000Y-121542000D01*
X167902000Y-122066000D01*
X165882961Y-122066000D01*
X165927063Y-121901408D01*
X165947659Y-121666000D01*
X165927063Y-121430592D01*
X165879981Y-121254876D01*
X165865905Y-121202344D01*
X165865904Y-121202343D01*
X165865903Y-121202337D01*
X165766035Y-120988171D01*
X165764337Y-120985745D01*
X165630494Y-120794597D01*
X165463402Y-120627506D01*
X165463395Y-120627501D01*
X165269834Y-120491967D01*
X165269830Y-120491965D01*
X165242749Y-120479337D01*
X165055663Y-120392097D01*
X165055659Y-120392096D01*
X165055655Y-120392094D01*
X164827413Y-120330938D01*
X164827403Y-120330936D01*
X164592001Y-120310341D01*
X164591999Y-120310341D01*
X164356596Y-120330936D01*
X164356586Y-120330938D01*
X164128344Y-120392094D01*
X164128335Y-120392098D01*
X163914171Y-120491964D01*
X163914169Y-120491965D01*
X163720597Y-120627505D01*
X163553505Y-120794597D01*
X163423575Y-120980158D01*
X163368998Y-121023783D01*
X163299500Y-121030977D01*
X163237145Y-120999454D01*
X163220425Y-120980158D01*
X163090494Y-120794597D01*
X162923402Y-120627506D01*
X162923395Y-120627501D01*
X162729834Y-120491967D01*
X162729830Y-120491965D01*
X162702749Y-120479337D01*
X162515663Y-120392097D01*
X162515659Y-120392096D01*
X162515655Y-120392094D01*
X162287413Y-120330938D01*
X162287403Y-120330936D01*
X162052001Y-120310341D01*
X162051999Y-120310341D01*
X161816596Y-120330936D01*
X161816586Y-120330938D01*
X161588344Y-120392094D01*
X161588335Y-120392098D01*
X161374171Y-120491964D01*
X161374169Y-120491965D01*
X161180600Y-120627503D01*
X161058673Y-120749430D01*
X160997350Y-120782914D01*
X160927658Y-120777930D01*
X160871725Y-120736058D01*
X160854810Y-120705081D01*
X160805797Y-120573671D01*
X160805793Y-120573664D01*
X160719547Y-120458455D01*
X160719544Y-120458452D01*
X160604335Y-120372206D01*
X160604328Y-120372202D01*
X160469482Y-120321908D01*
X160469483Y-120321908D01*
X160409883Y-120315501D01*
X160409881Y-120315500D01*
X160409873Y-120315500D01*
X160409864Y-120315500D01*
X158614129Y-120315500D01*
X158614123Y-120315501D01*
X158554516Y-120321908D01*
X158419671Y-120372202D01*
X158419664Y-120372206D01*
X158304455Y-120458452D01*
X158304452Y-120458455D01*
X158218206Y-120573664D01*
X158218202Y-120573671D01*
X158167908Y-120708517D01*
X158161501Y-120768116D01*
X158161500Y-120768135D01*
X158161500Y-122563870D01*
X158161501Y-122563876D01*
X158167908Y-122623483D01*
X158218202Y-122758328D01*
X158218206Y-122758335D01*
X158304452Y-122873544D01*
X158304455Y-122873547D01*
X158426769Y-122965112D01*
X158425070Y-122967381D01*
X158464264Y-123006580D01*
X158479111Y-123074854D01*
X158454690Y-123140317D01*
X158398754Y-123182185D01*
X158355428Y-123190000D01*
X153213362Y-123190000D01*
X153146323Y-123170315D01*
X153125681Y-123153681D01*
X152690319Y-122718319D01*
X152656834Y-122656996D01*
X152654000Y-122630638D01*
X152654000Y-122066000D01*
X155402000Y-122066000D01*
X156904000Y-122066000D01*
X156904000Y-121542000D01*
X155402000Y-121542000D01*
X155402000Y-122066000D01*
X152654000Y-122066000D01*
X152654000Y-120544000D01*
X153778000Y-120544000D01*
X154404000Y-120544000D01*
X155402000Y-120544000D01*
X156904000Y-120544000D01*
X156904000Y-119456104D01*
X165402000Y-119456104D01*
X165417500Y-119461747D01*
X165422535Y-119463705D01*
X165452756Y-119476223D01*
X165457708Y-119478402D01*
X165711337Y-119596672D01*
X165716188Y-119599064D01*
X165745209Y-119614171D01*
X165749949Y-119616771D01*
X165787673Y-119638549D01*
X165792302Y-119641358D01*
X165819916Y-119658950D01*
X165824415Y-119661956D01*
X166053678Y-119822488D01*
X166058042Y-119825689D01*
X166084022Y-119845625D01*
X166088243Y-119849012D01*
X166121610Y-119877012D01*
X166125678Y-119880580D01*
X166149794Y-119902680D01*
X166153698Y-119906418D01*
X166351590Y-120104309D01*
X166355330Y-120108216D01*
X166377449Y-120132354D01*
X166381020Y-120136426D01*
X166409018Y-120169795D01*
X166412403Y-120174012D01*
X166432323Y-120199973D01*
X166435521Y-120204335D01*
X166596040Y-120433581D01*
X166599046Y-120438080D01*
X166616628Y-120465679D01*
X166619433Y-120470301D01*
X166641212Y-120508022D01*
X166643814Y-120512765D01*
X166658930Y-120541801D01*
X166660015Y-120544000D01*
X166904000Y-120544000D01*
X167902000Y-120544000D01*
X169404000Y-120544000D01*
X169404000Y-119042000D01*
X167902000Y-119042000D01*
X167902000Y-120544000D01*
X166904000Y-120544000D01*
X166904000Y-119042000D01*
X165402000Y-119042000D01*
X165402000Y-119456104D01*
X156904000Y-119456104D01*
X156904000Y-119042000D01*
X155402000Y-119042000D01*
X155402000Y-120544000D01*
X154404000Y-120544000D01*
X154404000Y-119042000D01*
X153778000Y-119042000D01*
X153778000Y-120544000D01*
X152654000Y-120544000D01*
X152654000Y-118044000D01*
X153778000Y-118044000D01*
X154404000Y-118044000D01*
X155402000Y-118044000D01*
X156904000Y-118044000D01*
X156904000Y-116542000D01*
X155402000Y-116542000D01*
X155402000Y-118044000D01*
X154404000Y-118044000D01*
X154404000Y-116542000D01*
X153778000Y-116542000D01*
X153778000Y-118044000D01*
X152654000Y-118044000D01*
X152654000Y-115544000D01*
X153778000Y-115544000D01*
X154404000Y-115544000D01*
X155402000Y-115544000D01*
X155902386Y-115544000D01*
X155849431Y-115402018D01*
X155846952Y-115394679D01*
X155833347Y-115349828D01*
X155831332Y-115342352D01*
X155816984Y-115281637D01*
X155815439Y-115274045D01*
X155807528Y-115227840D01*
X155806459Y-115220167D01*
X155795288Y-115116244D01*
X155794978Y-115112939D01*
X155793365Y-115092899D01*
X155793142Y-115089578D01*
X155791714Y-115062895D01*
X155791581Y-115059582D01*
X155791045Y-115039534D01*
X155791001Y-115036220D01*
X155791000Y-114042000D01*
X155402000Y-114042000D01*
X155402000Y-115544000D01*
X154404000Y-115544000D01*
X154404000Y-114042000D01*
X153778000Y-114042000D01*
X153778000Y-115544000D01*
X152654000Y-115544000D01*
X152654000Y-113044000D01*
X153778000Y-113044000D01*
X154404000Y-113044000D01*
X155402000Y-113044000D01*
X155791000Y-113044000D01*
X155791000Y-112913752D01*
X155791045Y-112910428D01*
X155791584Y-112890326D01*
X155791717Y-112887006D01*
X155793149Y-112860320D01*
X155793371Y-112857011D01*
X155794981Y-112837018D01*
X155795292Y-112833715D01*
X155806462Y-112729825D01*
X155807529Y-112722157D01*
X155815436Y-112675971D01*
X155816981Y-112668381D01*
X155831326Y-112607670D01*
X155833342Y-112600191D01*
X155846950Y-112555328D01*
X155849429Y-112547988D01*
X155923087Y-112350498D01*
X155926475Y-112342318D01*
X155948733Y-112293581D01*
X155952695Y-112285667D01*
X155986872Y-112223077D01*
X155991390Y-112215463D01*
X156020354Y-112170396D01*
X156025402Y-112163126D01*
X156154386Y-111990827D01*
X156159939Y-111983936D01*
X156195019Y-111943451D01*
X156201051Y-111936972D01*
X156251472Y-111886551D01*
X156257951Y-111880519D01*
X156298436Y-111845439D01*
X156305327Y-111839886D01*
X156477626Y-111710902D01*
X156484896Y-111705854D01*
X156529963Y-111676890D01*
X156537577Y-111672372D01*
X156600167Y-111638195D01*
X156608081Y-111634233D01*
X156656818Y-111611975D01*
X156664998Y-111608587D01*
X156843529Y-111542000D01*
X155402000Y-111542000D01*
X155402000Y-113044000D01*
X154404000Y-113044000D01*
X154404000Y-111542000D01*
X153778000Y-111542000D01*
X153778000Y-113044000D01*
X152654000Y-113044000D01*
X152654000Y-110544000D01*
X153778000Y-110544000D01*
X154404000Y-110544000D01*
X155402000Y-110544000D01*
X156904000Y-110544000D01*
X157902000Y-110544000D01*
X159404000Y-110544000D01*
X160402000Y-110544000D01*
X161904000Y-110544000D01*
X161904000Y-109042000D01*
X160402000Y-109042000D01*
X160402000Y-110544000D01*
X159404000Y-110544000D01*
X159404000Y-109042000D01*
X157902000Y-109042000D01*
X157902000Y-110544000D01*
X156904000Y-110544000D01*
X156904000Y-109042000D01*
X155402000Y-109042000D01*
X155402000Y-110544000D01*
X154404000Y-110544000D01*
X154404000Y-109042000D01*
X153778000Y-109042000D01*
X153778000Y-110544000D01*
X152654000Y-110544000D01*
X152654000Y-108044000D01*
X153778000Y-108044000D01*
X154404000Y-108044000D01*
X155402000Y-108044000D01*
X156904000Y-108044000D01*
X157902000Y-108044000D01*
X159404000Y-108044000D01*
X160402000Y-108044000D01*
X161904000Y-108044000D01*
X162902000Y-108044000D01*
X164404000Y-108044000D01*
X164404000Y-106542000D01*
X162902000Y-106542000D01*
X162902000Y-108044000D01*
X161904000Y-108044000D01*
X161904000Y-106542000D01*
X160402000Y-106542000D01*
X160402000Y-108044000D01*
X159404000Y-108044000D01*
X159404000Y-106542000D01*
X157902000Y-106542000D01*
X157902000Y-108044000D01*
X156904000Y-108044000D01*
X156904000Y-106542000D01*
X155402000Y-106542000D01*
X155402000Y-108044000D01*
X154404000Y-108044000D01*
X154404000Y-106542000D01*
X153778000Y-106542000D01*
X153778000Y-108044000D01*
X152654000Y-108044000D01*
X152654000Y-105544000D01*
X153778000Y-105544000D01*
X154404000Y-105544000D01*
X155402000Y-105544000D01*
X156904000Y-105544000D01*
X157902000Y-105544000D01*
X159404000Y-105544000D01*
X160402000Y-105544000D01*
X161904000Y-105544000D01*
X162902000Y-105544000D01*
X164404000Y-105544000D01*
X165402000Y-105544000D01*
X166635737Y-105544000D01*
X166617587Y-105507551D01*
X166615153Y-105502365D01*
X166601153Y-105470658D01*
X166598961Y-105465366D01*
X166582299Y-105422357D01*
X166580353Y-105416968D01*
X166569340Y-105384109D01*
X166567645Y-105378637D01*
X166494166Y-105120379D01*
X166492727Y-105114836D01*
X166484795Y-105081111D01*
X166483613Y-105075510D01*
X166475137Y-105030175D01*
X166474214Y-105024517D01*
X166469425Y-104990185D01*
X166468765Y-104984495D01*
X166443989Y-104717122D01*
X166443592Y-104711409D01*
X166441991Y-104676789D01*
X166441859Y-104671061D01*
X166441859Y-104647999D01*
X167439859Y-104647999D01*
X167439859Y-104648000D01*
X167460378Y-104869439D01*
X167521240Y-105083350D01*
X167620369Y-105282428D01*
X167636137Y-105303308D01*
X167636138Y-105303308D01*
X168291447Y-104648000D01*
X167636138Y-103992691D01*
X167636137Y-103992691D01*
X167620368Y-104013574D01*
X167521240Y-104212649D01*
X167460378Y-104426560D01*
X167439859Y-104647999D01*
X166441859Y-104647999D01*
X166441859Y-104624939D01*
X166441991Y-104619211D01*
X166443592Y-104584591D01*
X166443989Y-104578878D01*
X166468765Y-104311505D01*
X166469425Y-104305815D01*
X166474214Y-104271483D01*
X166475137Y-104265825D01*
X166483613Y-104220490D01*
X166484795Y-104214889D01*
X166492727Y-104181164D01*
X166494166Y-104175621D01*
X166532184Y-104042000D01*
X165402000Y-104042000D01*
X165402000Y-105544000D01*
X164404000Y-105544000D01*
X164404000Y-104042000D01*
X162902000Y-104042000D01*
X162902000Y-105544000D01*
X161904000Y-105544000D01*
X161904000Y-104042000D01*
X160402000Y-104042000D01*
X160402000Y-105544000D01*
X159404000Y-105544000D01*
X159404000Y-104042000D01*
X157902000Y-104042000D01*
X157902000Y-105544000D01*
X156904000Y-105544000D01*
X156904000Y-104042000D01*
X155402000Y-104042000D01*
X155402000Y-105544000D01*
X154404000Y-105544000D01*
X154404000Y-104042000D01*
X153778000Y-104042000D01*
X153778000Y-105544000D01*
X152654000Y-105544000D01*
X152654000Y-103044000D01*
X153778000Y-103044000D01*
X154404000Y-103044000D01*
X155402000Y-103044000D01*
X156904000Y-103044000D01*
X157902000Y-103044000D01*
X159404000Y-103044000D01*
X160402000Y-103044000D01*
X161904000Y-103044000D01*
X161904000Y-102748499D01*
X162902000Y-102748499D01*
X162902000Y-103044000D01*
X164404000Y-103044000D01*
X164404000Y-102739839D01*
X164399591Y-102740380D01*
X164395337Y-102740827D01*
X164369562Y-102743089D01*
X164365296Y-102743390D01*
X164283901Y-102747712D01*
X164280605Y-102747843D01*
X164257431Y-102748456D01*
X164254152Y-102748499D01*
X163323454Y-102748499D01*
X163275999Y-102739059D01*
X163274001Y-102738231D01*
X163272004Y-102739059D01*
X163224549Y-102748499D01*
X162902000Y-102748499D01*
X161904000Y-102748499D01*
X161904000Y-102696738D01*
X161812707Y-102679082D01*
X161807564Y-102677974D01*
X161776593Y-102670609D01*
X161771498Y-102669282D01*
X161730722Y-102657736D01*
X161725688Y-102656195D01*
X161695434Y-102646223D01*
X161690469Y-102644469D01*
X161431828Y-102546862D01*
X161426945Y-102544900D01*
X161397652Y-102532401D01*
X161392853Y-102530231D01*
X161354614Y-102511958D01*
X161349914Y-102509588D01*
X161321792Y-102494652D01*
X161317198Y-102492086D01*
X161145999Y-102391623D01*
X165402000Y-102391623D01*
X165402000Y-103044000D01*
X166904000Y-103044000D01*
X166904000Y-101542000D01*
X166215884Y-101542000D01*
X166125678Y-101695719D01*
X166122917Y-101700203D01*
X166105651Y-101726955D01*
X166102706Y-101731313D01*
X166078235Y-101765914D01*
X166075103Y-101770148D01*
X166055625Y-101795347D01*
X166052319Y-101799442D01*
X165874127Y-102010790D01*
X165870648Y-102014743D01*
X165849105Y-102038197D01*
X165845463Y-102041996D01*
X165815496Y-102071963D01*
X165811697Y-102075605D01*
X165788243Y-102097148D01*
X165784290Y-102100627D01*
X165572942Y-102278819D01*
X165568847Y-102282125D01*
X165543648Y-102301603D01*
X165539414Y-102304735D01*
X165504813Y-102329206D01*
X165500455Y-102332151D01*
X165473703Y-102349417D01*
X165469219Y-102352178D01*
X165402000Y-102391623D01*
X161145999Y-102391623D01*
X161078781Y-102352178D01*
X161074297Y-102349417D01*
X161047545Y-102332151D01*
X161043187Y-102329206D01*
X161008586Y-102304735D01*
X161004352Y-102301603D01*
X160979153Y-102282125D01*
X160975058Y-102278819D01*
X160763710Y-102100627D01*
X160759757Y-102097148D01*
X160736303Y-102075605D01*
X160732504Y-102071963D01*
X160702537Y-102041996D01*
X160698895Y-102038197D01*
X160677352Y-102014743D01*
X160673873Y-102010790D01*
X160495681Y-101799442D01*
X160492375Y-101795347D01*
X160472897Y-101770148D01*
X160469765Y-101765914D01*
X160445294Y-101731313D01*
X160442349Y-101726955D01*
X160425083Y-101700203D01*
X160422322Y-101695719D01*
X160402000Y-101661088D01*
X160402000Y-103044000D01*
X159404000Y-103044000D01*
X159404000Y-101542000D01*
X157902000Y-101542000D01*
X157902000Y-103044000D01*
X156904000Y-103044000D01*
X156904000Y-101542000D01*
X155402000Y-101542000D01*
X155402000Y-103044000D01*
X154404000Y-103044000D01*
X154404000Y-101542000D01*
X153778000Y-101542000D01*
X153778000Y-103044000D01*
X152654000Y-103044000D01*
X152654000Y-100544000D01*
X153778000Y-100544000D01*
X154404000Y-100544000D01*
X155402000Y-100544000D01*
X156904000Y-100544000D01*
X157902000Y-100544000D01*
X159404000Y-100544000D01*
X159404000Y-99042000D01*
X157902000Y-99042000D01*
X157902000Y-100544000D01*
X156904000Y-100544000D01*
X156904000Y-99042000D01*
X155402000Y-99042000D01*
X155402000Y-100544000D01*
X154404000Y-100544000D01*
X154404000Y-99042000D01*
X153778000Y-99042000D01*
X153778000Y-100544000D01*
X152654000Y-100544000D01*
X152654000Y-98531921D01*
X161024000Y-98531921D01*
X161024000Y-99250500D01*
X161840988Y-99250500D01*
X161808075Y-99307507D01*
X161774000Y-99434674D01*
X161774000Y-99566326D01*
X161808075Y-99693493D01*
X161840988Y-99750500D01*
X161024001Y-99750500D01*
X161024001Y-100469088D01*
X161026794Y-100521691D01*
X161071237Y-100751487D01*
X161153879Y-100970475D01*
X161272339Y-101172341D01*
X161272344Y-101172348D01*
X161423211Y-101351286D01*
X161423213Y-101351288D01*
X161602151Y-101502155D01*
X161602158Y-101502160D01*
X161804024Y-101620620D01*
X162023012Y-101703262D01*
X162252809Y-101747705D01*
X162305382Y-101750498D01*
X162305421Y-101750499D01*
X163023999Y-101750499D01*
X163024000Y-101750498D01*
X163024000Y-100000500D01*
X163524000Y-100000500D01*
X163524000Y-101750499D01*
X164242576Y-101750499D01*
X164242588Y-101750498D01*
X164295191Y-101747705D01*
X164524987Y-101703262D01*
X164743975Y-101620620D01*
X164945841Y-101502160D01*
X164945848Y-101502155D01*
X165124786Y-101351288D01*
X165124788Y-101351286D01*
X165275655Y-101172348D01*
X165275660Y-101172341D01*
X165394120Y-100970475D01*
X165476762Y-100751487D01*
X165521205Y-100521691D01*
X165521205Y-100521690D01*
X165523998Y-100469117D01*
X165524000Y-100469078D01*
X165524000Y-99750500D01*
X164707012Y-99750500D01*
X164739925Y-99693493D01*
X164774000Y-99566326D01*
X164774000Y-99500498D01*
X166511731Y-99500498D01*
X166512561Y-99502500D01*
X166522000Y-99549954D01*
X166522000Y-100480650D01*
X166521957Y-100483927D01*
X166521344Y-100507115D01*
X166521212Y-100510417D01*
X166519428Y-100544000D01*
X166904000Y-100544000D01*
X167902000Y-100544000D01*
X168302500Y-100544000D01*
X168302500Y-99042000D01*
X167902000Y-99042000D01*
X167902000Y-100544000D01*
X166904000Y-100544000D01*
X166904000Y-99042000D01*
X166521999Y-99042000D01*
X166521999Y-99451046D01*
X166512559Y-99498501D01*
X166511731Y-99500498D01*
X164774000Y-99500498D01*
X164774000Y-99434674D01*
X164739925Y-99307507D01*
X164707012Y-99250500D01*
X165523999Y-99250500D01*
X165523999Y-98531923D01*
X165523998Y-98531911D01*
X165521205Y-98479308D01*
X165476762Y-98249512D01*
X165394120Y-98030524D01*
X165275660Y-97828658D01*
X165275655Y-97828651D01*
X165124788Y-97649713D01*
X165124786Y-97649711D01*
X164945848Y-97498844D01*
X164945841Y-97498839D01*
X164743975Y-97380379D01*
X164524984Y-97297736D01*
X164519840Y-97296741D01*
X164457760Y-97264680D01*
X164422869Y-97204146D01*
X164426244Y-97134358D01*
X164466814Y-97077473D01*
X164531697Y-97051552D01*
X164543374Y-97050999D01*
X168071872Y-97050999D01*
X168131483Y-97044591D01*
X168266331Y-96994296D01*
X168381546Y-96908046D01*
X168467796Y-96792831D01*
X168518091Y-96657983D01*
X168524500Y-96598373D01*
X168524499Y-93002628D01*
X168518091Y-92943017D01*
X168478571Y-92837059D01*
X168467797Y-92808171D01*
X168467793Y-92808164D01*
X168381547Y-92692955D01*
X168381544Y-92692952D01*
X168266335Y-92606706D01*
X168266328Y-92606702D01*
X168131482Y-92556408D01*
X168131483Y-92556408D01*
X168071883Y-92550001D01*
X168071881Y-92550000D01*
X168071873Y-92550000D01*
X168071864Y-92550000D01*
X164476129Y-92550000D01*
X164476123Y-92550001D01*
X164416516Y-92556408D01*
X164281671Y-92606702D01*
X164281664Y-92606706D01*
X164166455Y-92692952D01*
X164166452Y-92692955D01*
X164080206Y-92808164D01*
X164080202Y-92808171D01*
X164029908Y-92943017D01*
X164023501Y-93002616D01*
X164023501Y-93002623D01*
X164023500Y-93002635D01*
X164023500Y-96598370D01*
X164023501Y-96598376D01*
X164029908Y-96657983D01*
X164080202Y-96792828D01*
X164080206Y-96792835D01*
X164166452Y-96908044D01*
X164166455Y-96908047D01*
X164281664Y-96994293D01*
X164281673Y-96994298D01*
X164330506Y-97012511D01*
X164386440Y-97054381D01*
X164410858Y-97119845D01*
X164396007Y-97188118D01*
X164346603Y-97237524D01*
X164280598Y-97252518D01*
X164242625Y-97250501D01*
X164242579Y-97250500D01*
X163524000Y-97250500D01*
X163524000Y-99000500D01*
X163024000Y-99000500D01*
X163024000Y-97250500D01*
X162305423Y-97250500D01*
X162305411Y-97250501D01*
X162252808Y-97253294D01*
X162023012Y-97297737D01*
X161804024Y-97380379D01*
X161602158Y-97498839D01*
X161602151Y-97498844D01*
X161423213Y-97649711D01*
X161423211Y-97649713D01*
X161272344Y-97828651D01*
X161272339Y-97828658D01*
X161153879Y-98030524D01*
X161071237Y-98249512D01*
X161026794Y-98479308D01*
X161026794Y-98479309D01*
X161024001Y-98531882D01*
X161024000Y-98531921D01*
X152654000Y-98531921D01*
X152654000Y-98044000D01*
X153778000Y-98044000D01*
X154404000Y-98044000D01*
X155402000Y-98044000D01*
X156904000Y-98044000D01*
X156904000Y-96542000D01*
X155402000Y-96542000D01*
X155402000Y-98044000D01*
X154404000Y-98044000D01*
X154404000Y-96542000D01*
X153778000Y-96542000D01*
X153778000Y-98044000D01*
X152654000Y-98044000D01*
X152654000Y-95544000D01*
X153778000Y-95544000D01*
X154404000Y-95544000D01*
X155402000Y-95544000D01*
X156904000Y-95544000D01*
X156904000Y-94042000D01*
X155402000Y-94042000D01*
X155402000Y-95544000D01*
X154404000Y-95544000D01*
X154404000Y-94042000D01*
X153778000Y-94042000D01*
X153778000Y-95544000D01*
X152654000Y-95544000D01*
X152654000Y-93736303D01*
X158274000Y-93736303D01*
X158274000Y-94550500D01*
X159774000Y-94550500D01*
X159774000Y-95050500D01*
X158274001Y-95050500D01*
X158274001Y-95864697D01*
X158284400Y-95996832D01*
X158339377Y-96215019D01*
X158432428Y-96419874D01*
X158432431Y-96419880D01*
X158560559Y-96604823D01*
X158560569Y-96604835D01*
X158719664Y-96763930D01*
X158719676Y-96763940D01*
X158904619Y-96892068D01*
X158904625Y-96892071D01*
X159109480Y-96985122D01*
X159327667Y-97040099D01*
X159459810Y-97050499D01*
X160023999Y-97050499D01*
X160024000Y-97050498D01*
X160024000Y-96233512D01*
X160081007Y-96266425D01*
X160208174Y-96300500D01*
X160339826Y-96300500D01*
X160466993Y-96266425D01*
X160524000Y-96233512D01*
X160524000Y-97050499D01*
X161088182Y-97050499D01*
X161088197Y-97050498D01*
X161220332Y-97040099D01*
X161438519Y-96985122D01*
X161643374Y-96892071D01*
X161643380Y-96892068D01*
X161828323Y-96763940D01*
X161828335Y-96763930D01*
X161987430Y-96604835D01*
X161987440Y-96604823D01*
X162115568Y-96419880D01*
X162115571Y-96419874D01*
X162208622Y-96215019D01*
X162263599Y-95996832D01*
X162273999Y-95864696D01*
X162274000Y-95864684D01*
X162274000Y-95050500D01*
X160774000Y-95050500D01*
X160774000Y-94550500D01*
X162273999Y-94550500D01*
X162273999Y-93736317D01*
X162273998Y-93736302D01*
X162263599Y-93604167D01*
X162208622Y-93385980D01*
X162115571Y-93181125D01*
X162115568Y-93181119D01*
X161987440Y-92996176D01*
X161987430Y-92996164D01*
X161828335Y-92837069D01*
X161828323Y-92837059D01*
X161643380Y-92708931D01*
X161643374Y-92708928D01*
X161438519Y-92615877D01*
X161231853Y-92563803D01*
X162902000Y-92563803D01*
X162948688Y-92631194D01*
X162951753Y-92635837D01*
X162969664Y-92664342D01*
X162972519Y-92669121D01*
X162994628Y-92708087D01*
X162997263Y-92712983D01*
X163012547Y-92742978D01*
X163014962Y-92747994D01*
X163040971Y-92805255D01*
X163042029Y-92797657D01*
X163049936Y-92751471D01*
X163051481Y-92743881D01*
X163065826Y-92683170D01*
X163067842Y-92675691D01*
X163081450Y-92630828D01*
X163083929Y-92623488D01*
X163157587Y-92425998D01*
X163160975Y-92417818D01*
X163183233Y-92369081D01*
X163187195Y-92361167D01*
X163221372Y-92298577D01*
X163225890Y-92290963D01*
X163254854Y-92245896D01*
X163259902Y-92238626D01*
X163388886Y-92066327D01*
X163394439Y-92059436D01*
X163429519Y-92018951D01*
X163435551Y-92012472D01*
X163485972Y-91962051D01*
X163492451Y-91956019D01*
X163532936Y-91920939D01*
X163539827Y-91915386D01*
X163712126Y-91786402D01*
X163719396Y-91781354D01*
X163764463Y-91752390D01*
X163772077Y-91747872D01*
X163834667Y-91713695D01*
X163842581Y-91709733D01*
X163891318Y-91687475D01*
X163899498Y-91684087D01*
X164096982Y-91610431D01*
X164104321Y-91607952D01*
X164149172Y-91594347D01*
X164156648Y-91592332D01*
X164217363Y-91577984D01*
X164224955Y-91576439D01*
X164271160Y-91568528D01*
X164278833Y-91567459D01*
X164382756Y-91556288D01*
X164386061Y-91555978D01*
X164404000Y-91554534D01*
X164404000Y-91542000D01*
X162902000Y-91542000D01*
X162902000Y-92563803D01*
X161231853Y-92563803D01*
X161220332Y-92560900D01*
X161088196Y-92550500D01*
X160524000Y-92550500D01*
X160524000Y-93367488D01*
X160466993Y-93334575D01*
X160339826Y-93300500D01*
X160208174Y-93300500D01*
X160081007Y-93334575D01*
X160024000Y-93367488D01*
X160024000Y-92550500D01*
X159459817Y-92550500D01*
X159459802Y-92550501D01*
X159327667Y-92560900D01*
X159109480Y-92615877D01*
X158904625Y-92708928D01*
X158904619Y-92708931D01*
X158719676Y-92837059D01*
X158719664Y-92837069D01*
X158560569Y-92996164D01*
X158560559Y-92996176D01*
X158432431Y-93181119D01*
X158432428Y-93181125D01*
X158339377Y-93385980D01*
X158284400Y-93604167D01*
X158274000Y-93736303D01*
X152654000Y-93736303D01*
X152654000Y-93044000D01*
X153778000Y-93044000D01*
X154404000Y-93044000D01*
X155402000Y-93044000D01*
X156904000Y-93044000D01*
X156904000Y-92243350D01*
X157902000Y-92243350D01*
X158029809Y-92115541D01*
X158033827Y-92111698D01*
X158058661Y-92088997D01*
X158062850Y-92085338D01*
X158097241Y-92056623D01*
X158101595Y-92053150D01*
X158128397Y-92032742D01*
X158132901Y-92029470D01*
X158354693Y-91875813D01*
X158359337Y-91872747D01*
X158387842Y-91854836D01*
X158392621Y-91851981D01*
X158431587Y-91829872D01*
X158436483Y-91827237D01*
X158466478Y-91811953D01*
X158471494Y-91809538D01*
X158717142Y-91697959D01*
X158722258Y-91695772D01*
X158753494Y-91683242D01*
X158758702Y-91681287D01*
X158800992Y-91666488D01*
X158806286Y-91664768D01*
X158838541Y-91655082D01*
X158843906Y-91653601D01*
X159104184Y-91588017D01*
X159109269Y-91586849D01*
X159140174Y-91580431D01*
X159145303Y-91579478D01*
X159186750Y-91572675D01*
X159191918Y-91571938D01*
X159223246Y-91568142D01*
X159228433Y-91567624D01*
X159398634Y-91554229D01*
X159403500Y-91553942D01*
X159404000Y-91553922D01*
X159404000Y-91542000D01*
X157902000Y-91542000D01*
X157902000Y-92243350D01*
X156904000Y-92243350D01*
X156904000Y-91542000D01*
X155402000Y-91542000D01*
X155402000Y-93044000D01*
X154404000Y-93044000D01*
X154404000Y-91542000D01*
X153778000Y-91542000D01*
X153778000Y-93044000D01*
X152654000Y-93044000D01*
X152654000Y-90544000D01*
X153778000Y-90544000D01*
X154404000Y-90544000D01*
X155402000Y-90544000D01*
X156904000Y-90544000D01*
X157902000Y-90544000D01*
X159404000Y-90544000D01*
X160402000Y-90544000D01*
X161904000Y-90544000D01*
X162902000Y-90544000D01*
X164404000Y-90544000D01*
X165402000Y-90544000D01*
X166541908Y-90544000D01*
X166567176Y-90455192D01*
X166568869Y-90449723D01*
X166579871Y-90416895D01*
X166581813Y-90411515D01*
X166598470Y-90368506D01*
X166600664Y-90363208D01*
X166614675Y-90331472D01*
X166617112Y-90326281D01*
X166736851Y-90085815D01*
X166739523Y-90080747D01*
X166756391Y-90050464D01*
X166759293Y-90045525D01*
X166783573Y-90006313D01*
X166786700Y-90001514D01*
X166806281Y-89972930D01*
X166809626Y-89968281D01*
X166904000Y-89843309D01*
X166904000Y-89042000D01*
X165402000Y-89042000D01*
X165402000Y-90544000D01*
X164404000Y-90544000D01*
X164404000Y-89042000D01*
X162902000Y-89042000D01*
X162902000Y-90544000D01*
X161904000Y-90544000D01*
X161904000Y-89042000D01*
X160402000Y-89042000D01*
X160402000Y-90544000D01*
X159404000Y-90544000D01*
X159404000Y-89042000D01*
X157902000Y-89042000D01*
X157902000Y-90544000D01*
X156904000Y-90544000D01*
X156904000Y-89042000D01*
X155402000Y-89042000D01*
X155402000Y-90544000D01*
X154404000Y-90544000D01*
X154404000Y-89042000D01*
X153778000Y-89042000D01*
X153778000Y-90544000D01*
X152654000Y-90544000D01*
X152654000Y-88044000D01*
X153778000Y-88044000D01*
X154404000Y-88044000D01*
X155402000Y-88044000D01*
X156904000Y-88044000D01*
X157902000Y-88044000D01*
X159404000Y-88044000D01*
X160402000Y-88044000D01*
X161904000Y-88044000D01*
X162902000Y-88044000D01*
X164404000Y-88044000D01*
X165402000Y-88044000D01*
X166904000Y-88044000D01*
X167902000Y-88044000D01*
X168302500Y-88044000D01*
X168302500Y-86542000D01*
X167902000Y-86542000D01*
X167902000Y-88044000D01*
X166904000Y-88044000D01*
X166904000Y-86542000D01*
X165402000Y-86542000D01*
X165402000Y-88044000D01*
X164404000Y-88044000D01*
X164404000Y-86542000D01*
X162902000Y-86542000D01*
X162902000Y-88044000D01*
X161904000Y-88044000D01*
X161904000Y-86542000D01*
X160402000Y-86542000D01*
X160402000Y-88044000D01*
X159404000Y-88044000D01*
X159404000Y-86542000D01*
X157902000Y-86542000D01*
X157902000Y-88044000D01*
X156904000Y-88044000D01*
X156904000Y-86542000D01*
X155402000Y-86542000D01*
X155402000Y-88044000D01*
X154404000Y-88044000D01*
X154404000Y-86542000D01*
X153778000Y-86542000D01*
X153778000Y-88044000D01*
X152654000Y-88044000D01*
X152654000Y-85544000D01*
X153778000Y-85544000D01*
X154404000Y-85544000D01*
X155402000Y-85544000D01*
X156904000Y-85544000D01*
X157902000Y-85544000D01*
X159404000Y-85544000D01*
X160402000Y-85544000D01*
X161904000Y-85544000D01*
X162902000Y-85544000D01*
X164404000Y-85544000D01*
X165402000Y-85544000D01*
X166904000Y-85544000D01*
X167902000Y-85544000D01*
X168302500Y-85544000D01*
X168302500Y-84042000D01*
X167902000Y-84042000D01*
X167902000Y-85544000D01*
X166904000Y-85544000D01*
X166904000Y-84042000D01*
X165402000Y-84042000D01*
X165402000Y-85544000D01*
X164404000Y-85544000D01*
X164404000Y-84042000D01*
X162902000Y-84042000D01*
X162902000Y-85544000D01*
X161904000Y-85544000D01*
X161904000Y-84042000D01*
X160402000Y-84042000D01*
X160402000Y-85544000D01*
X159404000Y-85544000D01*
X159404000Y-84042000D01*
X157902000Y-84042000D01*
X157902000Y-85544000D01*
X156904000Y-85544000D01*
X156904000Y-84042000D01*
X155402000Y-84042000D01*
X155402000Y-85544000D01*
X154404000Y-85544000D01*
X154404000Y-84042000D01*
X153778000Y-84042000D01*
X153778000Y-85544000D01*
X152654000Y-85544000D01*
X152654000Y-83044000D01*
X153778000Y-83044000D01*
X154404000Y-83044000D01*
X155402000Y-83044000D01*
X156904000Y-83044000D01*
X157902000Y-83044000D01*
X159404000Y-83044000D01*
X160402000Y-83044000D01*
X161904000Y-83044000D01*
X162902000Y-83044000D01*
X164404000Y-83044000D01*
X165402000Y-83044000D01*
X166904000Y-83044000D01*
X167902000Y-83044000D01*
X168302500Y-83044000D01*
X168302500Y-81542000D01*
X167902000Y-81542000D01*
X167902000Y-83044000D01*
X166904000Y-83044000D01*
X166904000Y-81542000D01*
X165402000Y-81542000D01*
X165402000Y-83044000D01*
X164404000Y-83044000D01*
X164404000Y-81542000D01*
X162902000Y-81542000D01*
X162902000Y-83044000D01*
X161904000Y-83044000D01*
X161904000Y-81542000D01*
X160402000Y-81542000D01*
X160402000Y-83044000D01*
X159404000Y-83044000D01*
X159404000Y-81542000D01*
X157902000Y-81542000D01*
X157902000Y-83044000D01*
X156904000Y-83044000D01*
X156904000Y-81542000D01*
X155402000Y-81542000D01*
X155402000Y-83044000D01*
X154404000Y-83044000D01*
X154404000Y-81542000D01*
X153778000Y-81542000D01*
X153778000Y-83044000D01*
X152654000Y-83044000D01*
X152654000Y-80544000D01*
X153778000Y-80544000D01*
X154404000Y-80544000D01*
X155402000Y-80544000D01*
X156904000Y-80544000D01*
X157902000Y-80544000D01*
X159404000Y-80544000D01*
X160402000Y-80544000D01*
X161904000Y-80544000D01*
X162902000Y-80544000D01*
X164404000Y-80544000D01*
X165402000Y-80544000D01*
X166904000Y-80544000D01*
X167902000Y-80544000D01*
X168302500Y-80544000D01*
X168302500Y-79158474D01*
X168186026Y-79042000D01*
X167902000Y-79042000D01*
X167902000Y-80544000D01*
X166904000Y-80544000D01*
X166904000Y-79042000D01*
X165402000Y-79042000D01*
X165402000Y-80544000D01*
X164404000Y-80544000D01*
X164404000Y-79042000D01*
X162902000Y-79042000D01*
X162902000Y-80544000D01*
X161904000Y-80544000D01*
X161904000Y-79042000D01*
X160402000Y-79042000D01*
X160402000Y-80544000D01*
X159404000Y-80544000D01*
X159404000Y-79042000D01*
X157902000Y-79042000D01*
X157902000Y-80544000D01*
X156904000Y-80544000D01*
X156904000Y-79042000D01*
X155402000Y-79042000D01*
X155402000Y-80544000D01*
X154404000Y-80544000D01*
X154404000Y-79042000D01*
X153778000Y-79042000D01*
X153778000Y-80544000D01*
X152654000Y-80544000D01*
X152654000Y-78044000D01*
X153778000Y-78044000D01*
X154404000Y-78044000D01*
X155402000Y-78044000D01*
X156281505Y-78044000D01*
X165680262Y-78044000D01*
X166904000Y-78044000D01*
X166904000Y-77759974D01*
X165772999Y-76628973D01*
X165773000Y-77586248D01*
X165772955Y-77589572D01*
X165772416Y-77609674D01*
X165772283Y-77612994D01*
X165770851Y-77639680D01*
X165770629Y-77642989D01*
X165769019Y-77662982D01*
X165768708Y-77666285D01*
X165757538Y-77770175D01*
X165756471Y-77777843D01*
X165748564Y-77824029D01*
X165747019Y-77831619D01*
X165732674Y-77892330D01*
X165730658Y-77899809D01*
X165717050Y-77944672D01*
X165714571Y-77952012D01*
X165680262Y-78044000D01*
X156281505Y-78044000D01*
X156180363Y-77904791D01*
X156177578Y-77900795D01*
X156161210Y-77876298D01*
X156158585Y-77872197D01*
X156138103Y-77838773D01*
X156135641Y-77834572D01*
X156121251Y-77808876D01*
X156118956Y-77804583D01*
X155997331Y-77565881D01*
X155995207Y-77561502D01*
X155982878Y-77534760D01*
X155980927Y-77530299D01*
X155965925Y-77494083D01*
X155964150Y-77489549D01*
X155953951Y-77461905D01*
X155952355Y-77457302D01*
X155869562Y-77202490D01*
X155868147Y-77197826D01*
X155860145Y-77169449D01*
X155858915Y-77164732D01*
X155849767Y-77126614D01*
X155848725Y-77121863D01*
X155842985Y-77093000D01*
X155842130Y-77088212D01*
X155800223Y-76823627D01*
X155799555Y-76818803D01*
X155796095Y-76789569D01*
X155795619Y-76784732D01*
X155792541Y-76745653D01*
X155792254Y-76740788D01*
X155791096Y-76711336D01*
X155791000Y-76706464D01*
X155791000Y-76542000D01*
X155402000Y-76542000D01*
X155402000Y-78044000D01*
X154404000Y-78044000D01*
X154404000Y-76542000D01*
X153778000Y-76542000D01*
X153778000Y-78044000D01*
X152654000Y-78044000D01*
X152654000Y-75544000D01*
X153778000Y-75544000D01*
X154404000Y-75544000D01*
X155402000Y-75544000D01*
X155970861Y-75544000D01*
X155980927Y-75519701D01*
X155982878Y-75515240D01*
X155995207Y-75488498D01*
X155997331Y-75484119D01*
X156118956Y-75245417D01*
X156121251Y-75241124D01*
X156135641Y-75215428D01*
X156138103Y-75211227D01*
X156158585Y-75177803D01*
X156161210Y-75173702D01*
X156177578Y-75149205D01*
X156180363Y-75145209D01*
X156337838Y-74928464D01*
X156340778Y-74924581D01*
X156359016Y-74901447D01*
X156362104Y-74897684D01*
X156387562Y-74867877D01*
X156390797Y-74864237D01*
X156410790Y-74842609D01*
X156414164Y-74839100D01*
X156603600Y-74649664D01*
X156607109Y-74646290D01*
X156628737Y-74626297D01*
X156632377Y-74623062D01*
X156662184Y-74597604D01*
X156665947Y-74594516D01*
X156689081Y-74576278D01*
X156692964Y-74573338D01*
X156904000Y-74420010D01*
X156904000Y-74355366D01*
X156774328Y-74320622D01*
X156769130Y-74319107D01*
X156737896Y-74309258D01*
X156732772Y-74307518D01*
X156691842Y-74292619D01*
X156686800Y-74290658D01*
X156656580Y-74278139D01*
X156651633Y-74275962D01*
X156406004Y-74161424D01*
X156401152Y-74159032D01*
X156372114Y-74143916D01*
X156367369Y-74141312D01*
X156329646Y-74119532D01*
X156325019Y-74116724D01*
X156297418Y-74099139D01*
X156292922Y-74096135D01*
X156215610Y-74042000D01*
X155402000Y-74042000D01*
X155402000Y-75544000D01*
X154404000Y-75544000D01*
X154404000Y-74042000D01*
X153778000Y-74042000D01*
X153778000Y-75544000D01*
X152654000Y-75544000D01*
X152654000Y-73044000D01*
X153778000Y-73044000D01*
X154404000Y-73044000D01*
X154404000Y-71542000D01*
X153778000Y-71542000D01*
X153778000Y-73044000D01*
X152654000Y-73044000D01*
X152654000Y-70544000D01*
X153778000Y-70544000D01*
X154404000Y-70544000D01*
X155402000Y-70544000D01*
X155900202Y-70544000D01*
X155905145Y-70541145D01*
X155982269Y-70407566D01*
X156018533Y-70367992D01*
X156292935Y-70175855D01*
X156297437Y-70172847D01*
X156325050Y-70155257D01*
X156329674Y-70152451D01*
X156367397Y-70130673D01*
X156372140Y-70128071D01*
X156401162Y-70112964D01*
X156406011Y-70110573D01*
X156651631Y-69996038D01*
X156656582Y-69993860D01*
X156686802Y-69981342D01*
X156691840Y-69979382D01*
X156732771Y-69964482D01*
X156737896Y-69962742D01*
X156769130Y-69952893D01*
X156774327Y-69951378D01*
X156904000Y-69916632D01*
X156904000Y-69042000D01*
X155402000Y-69042000D01*
X155402000Y-70544000D01*
X154404000Y-70544000D01*
X154404000Y-69042000D01*
X153778000Y-69042000D01*
X153778000Y-70544000D01*
X152654000Y-70544000D01*
X152654000Y-68044000D01*
X155402000Y-68044000D01*
X156904000Y-68044000D01*
X156904000Y-67418000D01*
X155402000Y-67418000D01*
X155402000Y-68044000D01*
X152654000Y-68044000D01*
X152654000Y-67107362D01*
X152673685Y-67040323D01*
X152690319Y-67019681D01*
X153379681Y-66330319D01*
X153441004Y-66296834D01*
X153467362Y-66294000D01*
X184187595Y-66294000D01*
X184206971Y-66295523D01*
G37*
%TD.AperFunction*%
%TA.AperFunction,Conductor*%
G36*
X162264729Y-116977185D02*
G01*
X162285371Y-116993819D01*
X163001553Y-117710000D01*
X162995339Y-117710000D01*
X162893606Y-117737259D01*
X162802394Y-117789920D01*
X162727920Y-117864394D01*
X162675259Y-117955606D01*
X162648000Y-118057339D01*
X162648000Y-118063552D01*
X161968974Y-117384526D01*
X161968973Y-117384526D01*
X161917868Y-117457512D01*
X161917867Y-117457514D01*
X161910656Y-117472979D01*
X161864482Y-117525417D01*
X161797288Y-117544567D01*
X161730407Y-117524350D01*
X161685893Y-117472976D01*
X161678568Y-117457266D01*
X161548047Y-117270861D01*
X161548045Y-117270858D01*
X161446368Y-117169181D01*
X161412883Y-117107858D01*
X161417867Y-117038166D01*
X161459739Y-116982233D01*
X161525203Y-116957816D01*
X161534049Y-116957500D01*
X162197690Y-116957500D01*
X162264729Y-116977185D01*
G37*
%TD.AperFunction*%
%TD*%
M02*
